<svg width="510" height="606" viewBox="0 0 510 606" fill="none" xmlns="http://www.w3.org/2000/svg">
<g filter="url(#filter0_d_304_8692)">
<path d="M459.195 215.378L50.8936 391.713" stroke="#70548E" stroke-width="2.09923" stroke-linecap="round" stroke-linejoin="round"/>
<path d="M459.195 391.713L50.8936 215.378" stroke="#70548E" stroke-width="2.09923" stroke-linecap="round" stroke-linejoin="round"/>
<path d="M255.569 568.049L254.519 39.042" stroke="#70548E" stroke-width="2.09923" stroke-linecap="round" stroke-linejoin="round"/>
<path d="M50.6124 392.238L255.136 37.9924L459.66 392.238H50.6124Z" stroke="#70548E" stroke-width="2.09923"/>
<path d="M459.661 215.378L255.137 569.623L50.6128 215.378L459.661 215.378Z" stroke="#70548E" stroke-width="2.09923"/>
<path d="M237.905 303.525C237.905 313.287 245.69 321.167 255.253 321.167C264.815 321.167 272.6 313.287 272.6 303.525C272.6 293.763 264.815 285.882 255.253 285.882C245.69 285.882 237.905 293.763 237.905 303.525Z" fill="#DACEE8" stroke="#70548E" stroke-width="2.46004"/>
<path d="M255.492 309V297.634L256.233 298.444H252.772V296.945H257.197V309H255.492Z" fill="#70548E"/>
<path d="M237.905 35.8724C237.905 45.6344 245.69 53.5148 255.253 53.5148C264.815 53.5148 272.6 45.6344 272.6 35.8724C272.6 26.1105 264.815 18.23 255.253 18.23C245.69 18.23 237.905 26.1105 237.905 35.8724Z" fill="#DACEE8" stroke="#70548E" stroke-width="2.46004"/>
<path d="M255.307 41.4851C254.331 41.4851 253.488 41.3416 252.776 41.0546C252.064 40.7676 251.513 40.36 251.123 39.8319C250.732 39.2924 250.537 38.661 250.537 37.9377C250.537 37.2259 250.721 36.6232 251.088 36.1296C251.467 35.6244 252.012 35.2456 252.724 34.993C253.436 34.729 254.297 34.597 255.307 34.597C256.317 34.597 257.178 34.729 257.89 34.993C258.613 35.2456 259.165 35.6244 259.543 36.1296C259.922 36.6347 260.112 37.2374 260.112 37.9377C260.112 38.661 259.916 39.2924 259.526 39.8319C259.136 40.36 258.579 40.7676 257.856 41.0546C257.133 41.3416 256.283 41.4851 255.307 41.4851ZM255.307 40.0902C256.272 40.0902 257.023 39.8951 257.563 39.5048C258.114 39.1029 258.39 38.5634 258.39 37.886C258.39 37.2202 258.114 36.6978 257.563 36.319C257.023 35.9287 256.272 35.7335 255.307 35.7335C254.354 35.7335 253.608 35.9287 253.069 36.319C252.529 36.6978 252.259 37.2202 252.259 37.886C252.259 38.5634 252.529 39.1029 253.069 39.5048C253.608 39.8951 254.354 40.0902 255.307 40.0902ZM255.307 35.5269C254.389 35.5269 253.608 35.4063 252.965 35.1652C252.322 34.9127 251.829 34.5568 251.484 34.0976C251.14 33.6269 250.968 33.0701 250.968 32.4272C250.968 31.7499 251.146 31.1701 251.501 30.688C251.869 30.1943 252.38 29.8155 253.034 29.5514C253.688 29.2874 254.446 29.1554 255.307 29.1554C256.18 29.1554 256.943 29.2874 257.597 29.5514C258.252 29.8155 258.763 30.1943 259.13 30.688C259.497 31.1701 259.681 31.7499 259.681 32.4272C259.681 33.0701 259.509 33.6269 259.165 34.0976C258.82 34.5568 258.321 34.9127 257.666 35.1652C257.012 35.4063 256.226 35.5269 255.307 35.5269ZM255.307 34.4248C256.145 34.4248 256.8 34.2526 257.27 33.9082C257.752 33.5638 257.994 33.0931 257.994 32.4961C257.994 31.8876 257.747 31.4112 257.253 31.0668C256.759 30.7224 256.111 30.5502 255.307 30.5502C254.504 30.5502 253.861 30.7224 253.378 31.0668C252.908 31.4112 252.672 31.8876 252.672 32.4961C252.672 33.0931 252.902 33.5638 253.361 33.9082C253.832 34.2526 254.481 34.4248 255.307 34.4248Z" fill="#70548E"/>
<path d="M222.128 53V40.9458H231.221V42.4095H223.833V45.8536H227.587C229.022 45.8536 230.113 46.1521 230.859 46.749C231.605 47.346 231.978 48.2128 231.978 49.3493C231.978 50.5203 231.571 51.4215 230.756 52.0529C229.952 52.6843 228.798 53 227.295 53H222.128ZM223.833 51.6396H227.226C228.224 51.6396 228.976 51.4502 229.481 51.0713C229.998 50.6925 230.256 50.13 230.256 49.3837C230.256 47.9372 229.246 47.214 227.226 47.214H223.833V51.6396ZM234.81 53.1033C234.489 53.1033 234.213 52.9943 233.984 52.7761C233.754 52.5465 233.639 52.2595 233.639 51.9151C233.639 51.5707 233.754 51.2895 233.984 51.0713C234.213 50.8532 234.489 50.7441 234.81 50.7441C235.12 50.7441 235.384 50.8532 235.602 51.0713C235.832 51.2895 235.947 51.5707 235.947 51.9151C235.947 52.2595 235.832 52.5465 235.602 52.7761C235.384 52.9943 235.12 53.1033 234.81 53.1033Z" fill="#70548E"/>
<path d="M222.128 232V219.946H231.221V221.41H223.833V224.854H227.587C229.022 224.854 230.113 225.152 230.859 225.749C231.605 226.346 231.978 227.213 231.978 228.349C231.978 229.52 231.571 230.421 230.756 231.053C229.952 231.684 228.798 232 227.295 232H222.128ZM223.833 230.64H227.226C228.224 230.64 228.976 230.45 229.481 230.071C229.998 229.692 230.256 229.13 230.256 228.384C230.256 226.937 229.246 226.214 227.226 226.214H223.833V230.64ZM234.81 232.103C234.489 232.103 234.213 231.994 233.984 231.776C233.754 231.547 233.639 231.26 233.639 230.915C233.639 230.571 233.754 230.289 233.984 230.071C234.213 229.853 234.489 229.744 234.81 229.744C235.12 229.744 235.384 229.853 235.602 230.071C235.832 230.289 235.947 230.571 235.947 230.915C235.947 231.26 235.832 231.547 235.602 231.776C235.384 231.994 235.12 232.103 234.81 232.103Z" fill="#70548E"/>
<path d="M222.128 309V296.946H231.221V298.41H223.833V301.854H227.587C229.022 301.854 230.113 302.152 230.859 302.749C231.605 303.346 231.978 304.213 231.978 305.349C231.978 306.52 231.571 307.421 230.756 308.053C229.952 308.684 228.798 309 227.295 309H222.128ZM223.833 307.64H227.226C228.224 307.64 228.976 307.45 229.481 307.071C229.998 306.692 230.256 306.13 230.256 305.384C230.256 303.937 229.246 303.214 227.226 303.214H223.833V307.64ZM234.81 309.103C234.489 309.103 234.213 308.994 233.984 308.776C233.754 308.547 233.639 308.26 233.639 307.915C233.639 307.571 233.754 307.289 233.984 307.071C234.213 306.853 234.489 306.744 234.81 306.744C235.12 306.744 235.384 306.853 235.602 307.071C235.832 307.289 235.947 307.571 235.947 307.915C235.947 308.26 235.832 308.547 235.602 308.776C235.384 308.994 235.12 309.103 234.81 309.103Z" fill="#70548E"/>
<path d="M17.1284 408V395.946H26.2207V397.41H18.8332V400.854H22.5873C24.0223 400.854 25.1129 401.152 25.8591 401.749C26.6053 402.346 26.9784 403.213 26.9784 404.349C26.9784 405.52 26.5709 406.421 25.7558 407.053C24.9522 407.684 23.7984 408 22.2945 408H17.1284ZM18.8332 406.64H22.2256C23.2244 406.64 23.9764 406.45 24.4815 406.071C24.9981 405.692 25.2564 405.13 25.2564 404.384C25.2564 402.937 24.2461 402.214 22.2256 402.214H18.8332V406.64ZM29.8102 408.103C29.4888 408.103 29.2133 407.994 28.9837 407.776C28.754 407.547 28.6392 407.26 28.6392 406.915C28.6392 406.571 28.754 406.289 28.9837 406.071C29.2133 405.853 29.4888 405.744 29.8102 405.744C30.1202 405.744 30.3842 405.853 30.6024 406.071C30.832 406.289 30.9468 406.571 30.9468 406.915C30.9468 407.26 30.832 407.547 30.6024 407.776C30.3842 407.994 30.1202 408.103 29.8102 408.103Z" fill="#70548E"/>
<path d="M17.1284 231V218.946H26.2207V220.41H18.8332V223.854H22.5873C24.0223 223.854 25.1129 224.152 25.8591 224.749C26.6053 225.346 26.9784 226.213 26.9784 227.349C26.9784 228.52 26.5709 229.421 25.7558 230.053C24.9522 230.684 23.7984 231 22.2945 231H17.1284ZM18.8332 229.64H22.2256C23.2244 229.64 23.9764 229.45 24.4815 229.071C24.9981 228.692 25.2564 228.13 25.2564 227.384C25.2564 225.937 24.2461 225.214 22.2256 225.214H18.8332V229.64ZM29.8102 231.103C29.4888 231.103 29.2133 230.994 28.9837 230.776C28.754 230.547 28.6392 230.26 28.6392 229.915C28.6392 229.571 28.754 229.289 28.9837 229.071C29.2133 228.853 29.4888 228.744 29.8102 228.744C30.1202 228.744 30.3842 228.853 30.6024 229.071C30.832 229.289 30.9468 229.571 30.9468 229.915C30.9468 230.26 30.832 230.547 30.6024 230.776C30.3842 230.994 30.1202 231.103 29.8102 231.103Z" fill="#70548E"/>
<path d="M100.128 266V253.946H109.221V255.41H101.833V258.854H105.587C107.022 258.854 108.113 259.152 108.859 259.749C109.605 260.346 109.978 261.213 109.978 262.349C109.978 263.52 109.571 264.421 108.756 265.053C107.952 265.684 106.798 266 105.295 266H100.128ZM101.833 264.64H105.226C106.224 264.64 106.976 264.45 107.481 264.071C107.998 263.692 108.256 263.13 108.256 262.384C108.256 260.937 107.246 260.214 105.226 260.214H101.833V264.64ZM112.81 266.103C112.489 266.103 112.213 265.994 111.984 265.776C111.754 265.547 111.639 265.26 111.639 264.915C111.639 264.571 111.754 264.289 111.984 264.071C112.213 263.853 112.489 263.744 112.81 263.744C113.12 263.744 113.384 263.853 113.602 264.071C113.832 264.289 113.947 264.571 113.947 264.915C113.947 265.26 113.832 265.547 113.602 265.776C113.384 265.994 113.12 266.103 112.81 266.103Z" fill="#70548E"/>
<path d="M100.128 357V344.946H109.221V346.41H101.833V349.854H105.587C107.022 349.854 108.113 350.152 108.859 350.749C109.605 351.346 109.978 352.213 109.978 353.349C109.978 354.52 109.571 355.421 108.756 356.053C107.952 356.684 106.798 357 105.295 357H100.128ZM101.833 355.64H105.226C106.224 355.64 106.976 355.45 107.481 355.071C107.998 354.692 108.256 354.13 108.256 353.384C108.256 351.937 107.246 351.214 105.226 351.214H101.833V355.64ZM112.81 357.103C112.489 357.103 112.213 356.994 111.984 356.776C111.754 356.547 111.639 356.26 111.639 355.915C111.639 355.571 111.754 355.289 111.984 355.071C112.213 354.853 112.489 354.744 112.81 354.744C113.12 354.744 113.384 354.853 113.602 355.071C113.832 355.289 113.947 355.571 113.947 355.915C113.947 356.26 113.832 356.547 113.602 356.776C113.384 356.994 113.12 357.103 112.81 357.103Z" fill="#70548E"/>
<path d="M344.128 374V361.946H353.221V363.41H345.833V366.854H349.587C351.022 366.854 352.113 367.152 352.859 367.749C353.605 368.346 353.978 369.213 353.978 370.349C353.978 371.52 353.571 372.421 352.756 373.053C351.952 373.684 350.798 374 349.295 374H344.128ZM345.833 372.64H349.226C350.224 372.64 350.976 372.45 351.481 372.071C351.998 371.692 352.256 371.13 352.256 370.384C352.256 368.937 351.246 368.214 349.226 368.214H345.833V372.64ZM356.81 374.103C356.489 374.103 356.213 373.994 355.984 373.776C355.754 373.547 355.639 373.26 355.639 372.915C355.639 372.571 355.754 372.289 355.984 372.071C356.213 371.853 356.489 371.744 356.81 371.744C357.12 371.744 357.384 371.853 357.602 372.071C357.832 372.289 357.947 372.571 357.947 372.915C357.947 373.26 357.832 373.547 357.602 373.776C357.384 373.994 357.12 374.103 356.81 374.103Z" fill="#70548E"/>
<path d="M344.128 244V231.946H353.221V233.41H345.833V236.854H349.587C351.022 236.854 352.113 237.152 352.859 237.749C353.605 238.346 353.978 239.213 353.978 240.349C353.978 241.52 353.571 242.421 352.756 243.053C351.952 243.684 350.798 244 349.295 244H344.128ZM345.833 242.64H349.226C350.224 242.64 350.976 242.45 351.481 242.071C351.998 241.692 352.256 241.13 352.256 240.384C352.256 238.937 351.246 238.214 349.226 238.214H345.833V242.64ZM356.81 244.103C356.489 244.103 356.213 243.994 355.984 243.776C355.754 243.547 355.639 243.26 355.639 242.915C355.639 242.571 355.754 242.289 355.984 242.071C356.213 241.853 356.489 241.744 356.81 241.744C357.12 241.744 357.384 241.853 357.602 242.071C357.832 242.289 357.947 242.571 357.947 242.915C357.947 243.26 357.832 243.547 357.602 243.776C357.384 243.994 357.12 244.103 356.81 244.103Z" fill="#70548E"/>
<path d="M479.128 231V218.946H488.221V220.41H480.833V223.854H484.587C486.022 223.854 487.113 224.152 487.859 224.749C488.605 225.346 488.978 226.213 488.978 227.349C488.978 228.52 488.571 229.421 487.756 230.053C486.952 230.684 485.798 231 484.295 231H479.128ZM480.833 229.64H484.226C485.224 229.64 485.976 229.45 486.481 229.071C486.998 228.692 487.256 228.13 487.256 227.384C487.256 225.937 486.246 225.214 484.226 225.214H480.833V229.64ZM491.81 231.103C491.489 231.103 491.213 230.994 490.984 230.776C490.754 230.547 490.639 230.26 490.639 229.915C490.639 229.571 490.754 229.289 490.984 229.071C491.213 228.853 491.489 228.744 491.81 228.744C492.12 228.744 492.384 228.853 492.602 229.071C492.832 229.289 492.947 229.571 492.947 229.915C492.947 230.26 492.832 230.547 492.602 230.776C492.384 230.994 492.12 231.103 491.81 231.103Z" fill="#70548E"/>
<path d="M479.128 409V396.946H488.221V398.41H480.833V401.854H484.587C486.022 401.854 487.113 402.152 487.859 402.749C488.605 403.346 488.978 404.213 488.978 405.349C488.978 406.52 488.571 407.421 487.756 408.053C486.952 408.684 485.798 409 484.295 409H479.128ZM480.833 407.64H484.226C485.224 407.64 485.976 407.45 486.481 407.071C486.998 406.692 487.256 406.13 487.256 405.384C487.256 403.937 486.246 403.214 484.226 403.214H480.833V407.64ZM491.81 409.103C491.489 409.103 491.213 408.994 490.984 408.776C490.754 408.547 490.639 408.26 490.639 407.915C490.639 407.571 490.754 407.289 490.984 407.071C491.213 406.853 491.489 406.744 491.81 406.744C492.12 406.744 492.384 406.853 492.602 407.071C492.832 407.289 492.947 407.571 492.947 407.915C492.947 408.26 492.832 408.547 492.602 408.776C492.384 408.994 492.12 409.103 491.81 409.103Z" fill="#70548E"/>
<path d="M222.128 409V396.946H231.221V398.41H223.833V401.854H227.587C229.022 401.854 230.113 402.152 230.859 402.749C231.605 403.346 231.978 404.213 231.978 405.349C231.978 406.52 231.571 407.421 230.756 408.053C229.952 408.684 228.798 409 227.295 409H222.128ZM223.833 407.64H227.226C228.224 407.64 228.976 407.45 229.481 407.071C229.998 406.692 230.256 406.13 230.256 405.384C230.256 403.937 229.246 403.214 227.226 403.214H223.833V407.64ZM234.81 409.103C234.489 409.103 234.213 408.994 233.984 408.776C233.754 408.547 233.639 408.26 233.639 407.915C233.639 407.571 233.754 407.289 233.984 407.071C234.213 406.853 234.489 406.744 234.81 406.744C235.12 406.744 235.384 406.853 235.602 407.071C235.832 407.289 235.947 407.571 235.947 407.915C235.947 408.26 235.832 408.547 235.602 408.776C235.384 408.994 235.12 409.103 234.81 409.103Z" fill="#70548E"/>
<path d="M222.128 587V574.946H231.221V576.41H223.833V579.854H227.587C229.022 579.854 230.113 580.152 230.859 580.749C231.605 581.346 231.978 582.213 231.978 583.349C231.978 584.52 231.571 585.421 230.756 586.053C229.952 586.684 228.798 587 227.295 587H222.128ZM223.833 585.64H227.226C228.224 585.64 228.976 585.45 229.481 585.071C229.998 584.692 230.256 584.13 230.256 583.384C230.256 581.937 229.246 581.214 227.226 581.214H223.833V585.64ZM234.81 587.103C234.489 587.103 234.213 586.994 233.984 586.776C233.754 586.547 233.639 586.26 233.639 585.915C233.639 585.571 233.754 585.289 233.984 585.071C234.213 584.853 234.489 584.744 234.81 584.744C235.12 584.744 235.384 584.853 235.602 585.071C235.832 585.289 235.947 585.571 235.947 585.915C235.947 586.26 235.832 586.547 235.602 586.776C235.384 586.994 235.12 587.103 234.81 587.103Z" fill="#70548E"/>
<path d="M237.905 570.127C237.905 579.889 245.69 587.77 255.253 587.77C264.815 587.77 272.6 579.889 272.6 570.127C272.6 560.365 264.815 552.485 255.253 552.485C245.69 552.485 237.905 560.365 237.905 570.127Z" fill="#DACEE8" stroke="#70548E" stroke-width="2.46004"/>
<path d="M250.548 575.602V564.237L251.289 565.046H247.827V563.548H252.253V575.602H250.548ZM258.782 575.74C257.932 575.74 257.105 575.608 256.302 575.344C255.51 575.08 254.861 574.724 254.356 574.276L255.148 572.916C255.55 573.295 256.072 573.605 256.715 573.846C257.358 574.087 258.041 574.208 258.764 574.208C259.683 574.208 260.389 574.012 260.882 573.622C261.376 573.232 261.623 572.709 261.623 572.055C261.623 571.607 261.514 571.217 261.296 570.884C261.078 570.551 260.699 570.299 260.159 570.126C259.631 569.943 258.902 569.851 257.972 569.851H255.234L255.871 563.548H262.673V565.046H256.508L257.404 564.203L256.905 569.179L256.009 568.353H258.334C259.539 568.353 260.509 568.508 261.244 568.818C261.979 569.128 262.513 569.558 262.846 570.109C263.178 570.649 263.345 571.274 263.345 571.986C263.345 572.675 263.178 573.306 262.846 573.88C262.513 574.443 262.008 574.896 261.33 575.241C260.664 575.574 259.815 575.74 258.782 575.74Z" fill="#70548E"/>
<path d="M237.905 391.693C237.905 401.454 245.69 409.335 255.253 409.335C264.815 409.335 272.6 401.454 272.6 391.693C272.6 381.931 264.815 374.05 255.253 374.05C245.69 374.05 237.905 381.931 237.905 391.693Z" fill="#DACEE8" stroke="#70548E" stroke-width="2.46004"/>
<path d="M253.585 397.167L258.699 385.837L259.147 386.611H251.983L252.844 385.768V388.764H251.191V385.113H260.284V386.284L255.41 397.167H253.585Z" fill="#70548E"/>
<path d="M237.905 214.307C237.905 224.069 245.69 231.95 255.253 231.95C264.815 231.95 272.6 224.069 272.6 214.307C272.6 204.545 264.815 196.665 255.253 196.665C245.69 196.665 237.905 204.545 237.905 214.307Z" fill="#DACEE8" stroke="#70548E" stroke-width="2.46004"/>
<path d="M249.678 219.782V208.417L250.419 209.226H246.957V207.728H251.383V219.782H249.678ZM259.083 219.92C258.015 219.92 257.102 219.685 256.345 219.214C255.587 218.743 255.007 218.066 254.605 217.182C254.215 216.287 254.02 215.196 254.02 213.91C254.02 212.544 254.261 211.39 254.743 210.449C255.225 209.507 255.897 208.796 256.758 208.314C257.619 207.831 258.606 207.59 259.72 207.59C260.294 207.59 260.839 207.648 261.356 207.762C261.884 207.877 262.337 208.055 262.716 208.296L262.062 209.639C261.752 209.421 261.396 209.272 260.994 209.192C260.604 209.111 260.19 209.071 259.754 209.071C258.526 209.071 257.55 209.456 256.827 210.225C256.103 210.983 255.742 212.113 255.742 213.617C255.742 213.858 255.753 214.145 255.776 214.478C255.799 214.811 255.857 215.138 255.948 215.46L255.363 214.874C255.535 214.346 255.805 213.904 256.172 213.548C256.551 213.181 256.999 212.911 257.516 212.739C258.044 212.555 258.612 212.464 259.22 212.464C260.024 212.464 260.736 212.613 261.356 212.911C261.976 213.21 262.463 213.635 262.819 214.186C263.175 214.725 263.353 215.368 263.353 216.114C263.353 216.883 263.164 217.555 262.785 218.129C262.406 218.703 261.895 219.145 261.252 219.455C260.609 219.765 259.886 219.92 259.083 219.92ZM259.014 218.525C259.542 218.525 260.001 218.428 260.391 218.232C260.793 218.037 261.109 217.767 261.338 217.423C261.568 217.067 261.683 216.654 261.683 216.183C261.683 215.471 261.436 214.909 260.942 214.496C260.449 214.071 259.777 213.858 258.928 213.858C258.377 213.858 257.894 213.962 257.481 214.168C257.068 214.375 256.741 214.656 256.5 215.012C256.27 215.357 256.155 215.753 256.155 216.2C256.155 216.614 256.264 216.998 256.482 217.354C256.7 217.699 257.022 217.98 257.447 218.198C257.871 218.416 258.394 218.525 259.014 218.525Z" fill="#70548E"/>
<path d="M360.712 248.945C360.712 258.707 368.497 266.587 378.06 266.587C387.622 266.587 395.407 258.707 395.407 248.945C395.407 239.183 387.622 231.302 378.06 231.302C368.497 231.302 360.712 239.183 360.712 248.945Z" fill="#DACEE8" stroke="#70548E" stroke-width="2.46004"/>
<path d="M368.876 254.42V253.249L373.784 248.513C374.22 248.1 374.542 247.738 374.749 247.428C374.967 247.107 375.11 246.814 375.179 246.55C375.259 246.274 375.3 246.01 375.3 245.758C375.3 245.138 375.081 244.65 374.645 244.294C374.209 243.938 373.572 243.76 372.734 243.76C372.091 243.76 371.511 243.869 370.994 244.087C370.478 244.294 370.03 244.621 369.651 245.069L368.48 244.053C368.94 243.467 369.554 243.02 370.323 242.71C371.104 242.388 371.959 242.228 372.889 242.228C373.727 242.228 374.456 242.365 375.076 242.641C375.696 242.905 376.172 243.29 376.505 243.795C376.849 244.3 377.022 244.897 377.022 245.586C377.022 245.976 376.97 246.36 376.867 246.739C376.763 247.118 376.568 247.52 376.281 247.945C375.994 248.37 375.581 248.846 375.041 249.374L370.667 253.593L370.254 252.921H377.538V254.42H368.876ZM378.765 254.42V253.249L383.672 248.513C384.109 248.1 384.43 247.738 384.637 247.428C384.855 247.107 384.998 246.814 385.067 246.55C385.148 246.274 385.188 246.01 385.188 245.758C385.188 245.138 384.97 244.65 384.533 244.294C384.097 243.938 383.46 243.76 382.622 243.76C381.979 243.76 381.399 243.869 380.883 244.087C380.366 244.294 379.918 244.621 379.54 245.069L378.369 244.053C378.828 243.467 379.442 243.02 380.211 242.71C380.992 242.388 381.847 242.228 382.777 242.228C383.615 242.228 384.344 242.365 384.964 242.641C385.584 242.905 386.06 243.29 386.393 243.795C386.738 244.3 386.91 244.897 386.91 245.586C386.91 245.976 386.858 246.36 386.755 246.739C386.651 247.118 386.456 247.52 386.169 247.945C385.882 248.37 385.469 248.846 384.929 249.374L380.556 253.593L380.142 252.921H387.426V254.42H378.765Z" fill="#70548E"/>
<path d="M360.713 357.055C360.713 366.817 368.498 374.698 378.06 374.698C387.623 374.698 395.408 366.817 395.408 357.055C395.408 347.293 387.623 339.413 378.06 339.413C368.498 339.413 360.713 347.293 360.713 357.055Z" fill="#DACEE8" stroke="#70548E" stroke-width="2.46004"/>
<path d="M379.203 362.668C378.135 362.668 377.223 362.433 376.465 361.962C375.707 361.491 375.127 360.814 374.726 359.93C374.335 359.034 374.14 357.944 374.14 356.658C374.14 355.292 374.381 354.138 374.863 353.197C375.346 352.255 376.017 351.544 376.878 351.061C377.739 350.579 378.727 350.338 379.84 350.338C380.414 350.338 380.959 350.396 381.476 350.51C382.004 350.625 382.458 350.803 382.836 351.044L382.182 352.387C381.872 352.169 381.516 352.02 381.114 351.94C380.724 351.859 380.311 351.819 379.875 351.819C378.646 351.819 377.67 352.204 376.947 352.973C376.224 353.731 375.862 354.861 375.862 356.365C375.862 356.606 375.874 356.893 375.897 357.226C375.92 357.559 375.977 357.886 376.069 358.208L375.483 357.622C375.656 357.094 375.925 356.652 376.293 356.296C376.672 355.929 377.119 355.659 377.636 355.487C378.164 355.303 378.732 355.212 379.341 355.212C380.144 355.212 380.856 355.361 381.476 355.659C382.096 355.958 382.584 356.383 382.94 356.934C383.296 357.473 383.474 358.116 383.474 358.862C383.474 359.631 383.284 360.303 382.905 360.877C382.526 361.451 382.016 361.893 381.373 362.203C380.73 362.513 380.007 362.668 379.203 362.668ZM379.134 361.273C379.662 361.273 380.121 361.175 380.512 360.98C380.913 360.785 381.229 360.515 381.459 360.171C381.688 359.815 381.803 359.402 381.803 358.931C381.803 358.219 381.556 357.657 381.063 357.244C380.569 356.819 379.898 356.606 379.048 356.606C378.497 356.606 378.015 356.71 377.601 356.916C377.188 357.123 376.861 357.404 376.62 357.76C376.39 358.105 376.276 358.501 376.276 358.948C376.276 359.362 376.385 359.746 376.603 360.102C376.821 360.446 377.142 360.728 377.567 360.946C377.992 361.164 378.514 361.273 379.134 361.273Z" fill="#70548E"/>
<path d="M116.15 357.055C116.15 366.817 123.935 374.698 133.497 374.698C143.06 374.698 150.845 366.817 150.845 357.055C150.845 347.293 143.06 339.413 133.497 339.413C123.935 339.413 116.15 347.293 116.15 357.055Z" fill="#DACEE8" stroke="#70548E" stroke-width="2.46004"/>
<path d="M127.477 362.53V351.165L128.217 351.974H124.756V350.476H129.182V362.53H127.477ZM131.646 359.568V358.363L137.811 350.476H139.671L133.558 358.363L132.679 358.087H142.306V359.568H131.646ZM138.345 362.53V359.568L138.397 358.087V355.47H140.015V362.53H138.345Z" fill="#70548E"/>
<path d="M116.15 248.945C116.15 258.707 123.935 266.587 133.497 266.587C143.06 266.587 150.845 258.707 150.845 248.945C150.845 239.183 143.06 231.302 133.497 231.302C123.935 231.302 116.15 239.183 116.15 248.945Z" fill="#DACEE8" stroke="#70548E" stroke-width="2.46004"/>
<path d="M131.829 254.42L136.944 243.089L137.391 243.864H130.228L131.089 243.02V246.016H129.436V242.365H138.528V243.536L133.654 254.42H131.829Z" fill="#70548E"/>
<path d="M33.2298 214.307C33.2298 224.069 41.0148 231.95 50.5774 231.95C60.1399 231.95 67.9249 224.069 67.9249 214.307C67.9249 204.545 60.1399 196.665 50.5774 196.665C41.0148 196.665 33.2298 204.545 33.2298 214.307Z" fill="#DACEE8" stroke="#70548E" stroke-width="2.46004"/>
<path d="M50.8171 219.782V208.417L51.5575 209.226H48.0963V207.728H52.5219V219.782H50.8171Z" fill="#70548E"/>
<path d="M33.2302 391.693C33.2302 401.455 41.0152 409.335 50.5777 409.335C60.1403 409.335 67.9253 401.455 67.9253 391.693C67.9253 381.931 60.1403 374.05 50.5777 374.05C41.0152 374.05 33.2302 381.931 33.2302 391.693Z" fill="#DACEE8" stroke="#70548E" stroke-width="2.46004"/>
<path d="M45.8732 397.168V385.802L46.6137 386.611H43.1524V385.113H47.578V397.168H45.8732ZM54.1065 397.305C53.257 397.305 52.4304 397.173 51.6268 396.909C50.8347 396.645 50.186 396.289 49.6809 395.842L50.473 394.481C50.8748 394.86 51.3972 395.17 52.0401 395.411C52.683 395.652 53.366 395.773 54.0893 395.773C55.0077 395.773 55.7137 395.578 56.2074 395.187C56.701 394.797 56.9479 394.275 56.9479 393.62C56.9479 393.172 56.8388 392.782 56.6207 392.449C56.4026 392.116 56.0237 391.864 55.4841 391.691C54.9561 391.508 54.2271 391.416 53.2972 391.416H50.5591L51.1963 385.113H57.9983V386.611H51.8334L52.7289 385.768L52.2295 390.744L51.3341 389.918H53.6588C54.8642 389.918 55.8343 390.073 56.569 390.383C57.3038 390.693 57.8376 391.123 58.1705 391.674C58.5034 392.214 58.6699 392.839 58.6699 393.551C58.6699 394.24 58.5034 394.871 58.1705 395.445C57.8376 396.008 57.3325 396.461 56.6551 396.806C55.9893 397.139 55.1397 397.305 54.1065 397.305Z" fill="#70548E"/>
<path d="M441.532 391.693C441.532 401.455 449.317 409.335 458.879 409.335C468.442 409.335 476.227 401.455 476.227 391.693C476.227 381.931 468.442 374.05 458.879 374.05C449.317 374.05 441.532 381.931 441.532 391.693Z" fill="#DACEE8" stroke="#70548E" stroke-width="2.46004"/>
<path d="M449.696 397.167V395.997L454.604 391.261C455.04 390.848 455.361 390.486 455.568 390.176C455.786 389.855 455.929 389.562 455.998 389.298C456.079 389.022 456.119 388.758 456.119 388.506C456.119 387.886 455.901 387.398 455.465 387.042C455.028 386.686 454.391 386.508 453.553 386.508C452.91 386.508 452.33 386.617 451.814 386.835C451.297 387.042 450.849 387.369 450.471 387.817L449.3 386.801C449.759 386.215 450.373 385.768 451.142 385.458C451.923 385.136 452.778 384.976 453.708 384.976C454.546 384.976 455.275 385.113 455.895 385.389C456.515 385.653 456.991 386.037 457.324 386.543C457.669 387.048 457.841 387.645 457.841 388.333C457.841 388.724 457.789 389.108 457.686 389.487C457.583 389.866 457.387 390.268 457.1 390.693C456.813 391.117 456.4 391.594 455.861 392.122L451.487 396.341L451.073 395.669H458.358V397.167H449.696ZM459.584 397.167V395.997L464.492 391.261C464.928 390.848 465.249 390.486 465.456 390.176C465.674 389.855 465.818 389.562 465.887 389.298C465.967 389.022 466.007 388.758 466.007 388.506C466.007 387.886 465.789 387.398 465.353 387.042C464.916 386.686 464.279 386.508 463.441 386.508C462.798 386.508 462.219 386.617 461.702 386.835C461.185 387.042 460.738 387.369 460.359 387.817L459.188 386.801C459.647 386.215 460.261 385.768 461.03 385.458C461.811 385.136 462.666 384.976 463.596 384.976C464.434 384.976 465.163 385.113 465.783 385.389C466.403 385.653 466.88 386.037 467.213 386.543C467.557 387.048 467.729 387.645 467.729 388.333C467.729 388.724 467.677 389.108 467.574 389.487C467.471 389.866 467.276 390.268 466.989 390.693C466.702 391.117 466.288 391.594 465.749 392.122L461.375 396.341L460.962 395.669H468.246V397.167H459.584Z" fill="#70548E"/>
<path d="M441.532 214.307C441.532 224.069 449.317 231.95 458.879 231.95C468.442 231.95 476.227 224.069 476.227 214.307C476.227 204.545 468.442 196.665 458.879 196.665C449.317 196.665 441.532 204.545 441.532 214.307Z" fill="#DACEE8" stroke="#70548E" stroke-width="2.46004"/>
<path d="M458.933 219.92C457.958 219.92 457.114 219.777 456.402 219.49C455.69 219.203 455.139 218.795 454.749 218.267C454.359 217.727 454.163 217.096 454.163 216.373C454.163 215.661 454.347 215.058 454.714 214.565C455.093 214.059 455.639 213.681 456.35 213.428C457.062 213.164 457.923 213.032 458.933 213.032C459.944 213.032 460.805 213.164 461.516 213.428C462.24 213.681 462.791 214.059 463.17 214.565C463.548 215.07 463.738 215.672 463.738 216.373C463.738 217.096 463.543 217.727 463.152 218.267C462.762 218.795 462.205 219.203 461.482 219.49C460.759 219.777 459.909 219.92 458.933 219.92ZM458.933 218.525C459.898 218.525 460.65 218.33 461.189 217.94C461.74 217.538 462.016 216.998 462.016 216.321C462.016 215.655 461.74 215.133 461.189 214.754C460.65 214.364 459.898 214.168 458.933 214.168C457.981 214.168 457.234 214.364 456.695 214.754C456.155 215.133 455.885 215.655 455.885 216.321C455.885 216.998 456.155 217.538 456.695 217.94C457.234 218.33 457.981 218.525 458.933 218.525ZM458.933 213.962C458.015 213.962 457.234 213.841 456.591 213.6C455.949 213.348 455.455 212.992 455.11 212.533C454.766 212.062 454.594 211.505 454.594 210.862C454.594 210.185 454.772 209.605 455.128 209.123C455.495 208.629 456.006 208.25 456.66 207.986C457.315 207.722 458.072 207.59 458.933 207.59C459.806 207.59 460.569 207.722 461.224 207.986C461.878 208.25 462.389 208.629 462.756 209.123C463.124 209.605 463.307 210.185 463.307 210.862C463.307 211.505 463.135 212.062 462.791 212.533C462.446 212.992 461.947 213.348 461.293 213.6C460.638 213.841 459.852 213.962 458.933 213.962ZM458.933 212.86C459.771 212.86 460.426 212.688 460.897 212.343C461.379 211.999 461.62 211.528 461.62 210.931C461.62 210.323 461.373 209.846 460.879 209.502C460.386 209.157 459.737 208.985 458.933 208.985C458.13 208.985 457.487 209.157 457.005 209.502C456.534 209.846 456.299 210.323 456.299 210.931C456.299 211.528 456.528 211.999 456.987 212.343C457.458 212.688 458.107 212.86 458.933 212.86Z" fill="#70548E"/>
</g>
<defs>
<filter id="filter0_d_304_8692" x="0.334545" y="0.206127" width="509.406" height="605.588" filterUnits="userSpaceOnUse" color-interpolation-filters="sRGB">
<feFlood flood-opacity="0" result="BackgroundImageFix"/>
<feColorMatrix in="SourceAlpha" type="matrix" values="0 0 0 0 0 0 0 0 0 0 0 0 0 0 0 0 0 0 127 0" result="hardAlpha"/>
<feOffset/>
<feGaussianBlur stdDeviation="8.39694"/>
<feComposite in2="hardAlpha" operator="out"/>
<feColorMatrix type="matrix" values="0 0 0 0 1 0 0 0 0 1 0 0 0 0 1 0 0 0 0.5 0"/>
<feBlend mode="normal" in2="BackgroundImageFix" result="effect1_dropShadow_304_8692"/>
<feBlend mode="normal" in="SourceGraphic" in2="effect1_dropShadow_304_8692" result="shape"/>
</filter>
</defs>
</svg>
