<svg width="629" height="638" viewBox="0 0 629 638" fill="none" xmlns="http://www.w3.org/2000/svg">
<g filter="url(#filter0_d_304_8764)">
<path d="M314.313 47.7685L47.3193 319L314.313 590.232L581.307 319L314.313 47.7685Z" stroke="#70548E" stroke-width="2.34375" stroke-linecap="round" stroke-linejoin="round"/>
<path d="M125.52 127.21H503.106V510.79H125.52V127.21Z" stroke="#70548E" stroke-width="2.34375" stroke-linecap="round" stroke-linejoin="round"/>
<path d="M314.313 590.232V47.7685" stroke="#70548E" stroke-width="2.34375" stroke-linecap="round" stroke-linejoin="round"/>
<path d="M503.106 510.79L125.52 127.21" stroke="#007AFF" stroke-width="2.34375" stroke-linecap="round" stroke-linejoin="round"/>
<path d="M581.307 319H47.3196" stroke="#5856D6" stroke-width="2.34375" stroke-linecap="round" stroke-linejoin="round"/>
<path d="M503.106 127.21L125.52 510.79" stroke="#AF52DE" stroke-width="2.34375" stroke-linecap="round" stroke-linejoin="round"/>
<path d="M324.698 22.3202C318.048 19.5222 310.577 19.5222 303.927 22.3202L115.149 101.756C108.5 104.554 103.217 109.921 100.463 116.676L22.2686 308.45C19.5138 315.205 19.5138 322.795 22.2686 329.55L100.463 521.325C103.217 528.08 108.5 533.447 115.149 536.245L303.927 615.68C310.577 618.478 318.048 618.478 324.698 615.68L513.476 536.245C520.125 533.447 525.408 528.08 528.162 521.325L606.357 329.55C609.111 322.795 609.111 315.205 606.357 308.45L528.162 116.676C525.408 109.921 520.125 104.554 513.476 101.756L324.698 22.3202Z" stroke="#70548E" stroke-width="2.34375" stroke-linejoin="round"/>
<path d="M274.58 319C274.58 341.32 292.386 359.383 314.313 359.383C336.24 359.383 354.046 341.32 354.046 319C354.046 296.68 336.24 278.618 314.313 278.618C292.386 278.618 274.58 296.68 274.58 319Z" fill="#DACEE8" stroke="#70548E" stroke-width="2.34375"/>
<path d="M20.1729 319C20.1729 334.259 32.3444 346.597 47.32 346.597C62.2955 346.597 74.467 334.259 74.467 319C74.467 303.742 62.2955 291.404 47.32 291.404C32.3444 291.404 20.1729 303.742 20.1729 319Z" fill="#DACEE8" stroke="#70548E" stroke-width="2.34375"/>
<path d="M554.16 319C554.16 334.259 566.331 346.597 581.307 346.597C596.282 346.597 608.454 334.259 608.454 319C608.454 303.742 596.282 291.404 581.307 291.404C566.331 291.404 554.16 303.742 554.16 319Z" fill="#DACEE8" stroke="#70548E" stroke-width="2.34375"/>
<path d="M110.173 319C110.173 327.639 117.061 334.61 125.52 334.61C133.979 334.61 140.868 327.639 140.868 319C140.868 310.362 133.979 303.39 125.52 303.39C117.061 303.39 110.173 310.362 110.173 319Z" fill="#DACEE8" stroke="#70548E" stroke-width="2.34375"/>
<path d="M487.758 319C487.758 327.639 494.647 334.61 503.106 334.61C511.565 334.61 518.453 327.639 518.453 319C518.453 310.362 511.565 303.39 503.106 303.39C494.647 303.39 487.758 310.362 487.758 319Z" fill="#DACEE8" stroke="#70548E" stroke-width="2.34375"/>
<path d="M519.779 319C519.779 328.301 527.196 335.809 536.307 335.809C545.417 335.809 552.834 328.301 552.834 319C552.834 309.7 545.417 302.192 536.307 302.192C527.196 302.192 519.779 309.7 519.779 319Z" fill="#DACEE8" stroke="#70548E" stroke-width="2.34375"/>
<path d="M75.7915 319C75.7915 328.301 83.2084 335.809 92.319 335.809C101.43 335.809 108.846 328.301 108.846 319C108.846 309.7 101.43 302.192 92.319 302.192C83.2084 302.192 75.7915 309.7 75.7915 319Z" fill="#DACEE8" stroke="#70548E" stroke-width="2.34375"/>
<path d="M287.166 47.7686C287.166 63.0272 299.338 75.3652 314.313 75.3652C329.289 75.3652 341.46 63.0272 341.46 47.7686C341.46 32.5099 329.289 20.172 314.313 20.172C299.338 20.172 287.166 32.5099 287.166 47.7686Z" fill="#DACEE8" stroke="#70548E" stroke-width="2.34375"/>
<path d="M298.966 127.21C298.966 135.849 305.855 142.82 314.313 142.82C322.772 142.82 329.661 135.849 329.661 127.21C329.661 118.572 322.772 111.601 314.313 111.601C305.855 111.601 298.966 118.572 298.966 127.21Z" fill="#DACEE8" stroke="#70548E" stroke-width="2.34375"/>
<path d="M297.786 93.4829C297.786 102.783 305.203 110.291 314.313 110.291C323.424 110.291 330.841 102.783 330.841 93.4829C330.841 84.1824 323.424 76.6745 314.313 76.6745C305.203 76.6745 297.786 84.1824 297.786 93.4829Z" fill="#DACEE8" stroke="#70548E" stroke-width="2.34375"/>
<path d="M287.166 590.232C287.166 605.49 299.338 617.828 314.313 617.828C329.289 617.828 341.46 605.49 341.46 590.232C341.46 574.973 329.289 562.635 314.313 562.635C299.338 562.635 287.166 574.973 287.166 590.232Z" fill="#DACEE8" stroke="#70548E" stroke-width="2.34375"/>
<path d="M298.966 510.79C298.966 519.428 305.855 526.4 314.313 526.4C322.772 526.4 329.661 519.428 329.661 510.79C329.661 502.151 322.772 495.18 314.313 495.18C305.855 495.18 298.966 502.151 298.966 510.79Z" fill="#DACEE8" stroke="#70548E" stroke-width="2.34375"/>
<path d="M297.786 544.518C297.786 553.818 305.203 561.326 314.313 561.326C323.424 561.326 330.841 553.818 330.841 544.518C330.841 535.217 323.424 527.709 314.313 527.709C305.203 527.709 297.786 535.217 297.786 544.518Z" fill="#DACEE8" stroke="#70548E" stroke-width="2.34375"/>
<path d="M475.959 510.79C475.959 526.049 488.13 538.387 503.106 538.387C518.081 538.387 530.253 526.049 530.253 510.79C530.253 495.531 518.081 483.193 503.106 483.193C488.13 483.193 475.959 495.531 475.959 510.79Z" fill="#DACEE8" stroke="#70548E" stroke-width="2.34375"/>
<path d="M432.462 454.616C432.462 463.254 439.351 470.226 447.81 470.226C456.269 470.226 463.157 463.254 463.157 454.616C463.157 445.977 456.269 439.006 447.81 439.006C439.351 439.006 432.462 445.977 432.462 454.616Z" fill="#DACEE8" stroke="#70548E" stroke-width="2.34375"/>
<path d="M454.759 478.465C454.759 487.765 462.175 495.273 471.286 495.273C480.397 495.273 487.813 487.765 487.813 478.465C487.813 469.164 480.397 461.657 471.286 461.657C462.175 461.657 454.759 469.164 454.759 478.465Z" fill="#DACEE8" stroke="#70548E" stroke-width="2.34375"/>
<path d="M98.3731 127.211C98.3731 142.469 110.545 154.807 125.52 154.807C140.496 154.807 152.667 142.469 152.667 127.211C152.667 111.952 140.496 99.614 125.52 99.614C110.545 99.614 98.3731 111.952 98.3731 127.211Z" fill="#DACEE8" stroke="#70548E" stroke-width="2.34375"/>
<path d="M165.469 183.384C165.469 192.023 172.357 198.994 180.816 198.994C189.275 198.994 196.164 192.023 196.164 183.384C196.164 174.746 189.275 167.775 180.816 167.775C172.357 167.775 165.469 174.746 165.469 183.384Z" fill="#DACEE8" stroke="#70548E" stroke-width="2.34375"/>
<path d="M140.812 159.536C140.812 168.836 148.229 176.344 157.34 176.344C166.45 176.344 173.867 168.836 173.867 159.536C173.867 150.235 166.45 142.727 157.34 142.727C148.229 142.727 140.812 150.235 140.812 159.536Z" fill="#DACEE8" stroke="#70548E" stroke-width="2.34375"/>
<path d="M98.3731 510.79C98.3731 526.049 110.545 538.387 125.52 538.387C140.496 538.387 152.667 526.049 152.667 510.79C152.667 495.531 140.496 483.193 125.52 483.193C110.545 483.193 98.3731 495.531 98.3731 510.79Z" fill="#DACEE8" stroke="#70548E" stroke-width="2.34375"/>
<path d="M164.289 454.616C164.289 463.917 171.705 471.425 180.816 471.425C189.927 471.425 197.344 463.917 197.344 454.616C197.344 445.316 189.927 437.808 180.816 437.808C171.705 437.808 164.289 445.316 164.289 454.616Z" fill="#DACEE8" stroke="#70548E" stroke-width="2.34375"/>
<path d="M239.313 377.996C239.313 387.297 246.73 394.804 255.84 394.804C264.951 394.804 272.368 387.297 272.368 377.996C272.368 368.696 264.951 361.188 255.84 361.188C246.73 361.188 239.313 368.696 239.313 377.996Z" fill="#DACEE8" stroke="#70548E" stroke-width="2.34375"/>
<path d="M356.5 377.996C356.5 387.297 363.917 394.804 373.027 394.804C382.138 394.804 389.555 387.297 389.555 377.996C389.555 368.696 382.138 361.188 373.027 361.188C363.917 361.188 356.5 368.696 356.5 377.996Z" fill="#DACEE8" stroke="#70548E" stroke-width="2.34375"/>
<path d="M140.812 478.465C140.812 487.765 148.229 495.273 157.34 495.273C166.45 495.273 173.867 487.765 173.867 478.465C173.867 469.164 166.45 461.657 157.34 461.657C148.229 461.657 140.812 469.164 140.812 478.465Z" fill="#DACEE8" stroke="#70548E" stroke-width="2.34375"/>
<path d="M475.959 127.21C475.959 142.469 488.13 154.807 503.106 154.807C518.081 154.807 530.253 142.469 530.253 127.21C530.253 111.952 518.081 99.6138 503.106 99.6138C488.13 99.6138 475.959 111.952 475.959 127.21Z" fill="#DACEE8" stroke="#70548E" stroke-width="2.34375"/>
<path d="M432.462 183.384C432.462 192.023 439.351 198.994 447.81 198.994C456.269 198.994 463.157 192.023 463.157 183.384C463.157 174.746 456.269 167.775 447.81 167.775C439.351 167.775 432.462 174.746 432.462 183.384Z" fill="#DACEE8" stroke="#70548E" stroke-width="2.34375"/>
<path d="M454.759 159.535C454.759 168.836 462.175 176.344 471.286 176.344C480.397 176.344 487.813 168.836 487.813 159.535C487.813 150.235 480.397 142.727 471.286 142.727C462.175 142.727 454.759 150.235 454.759 159.535Z" fill="#DACEE8" stroke="#70548E" stroke-width="2.34375"/>
<path d="M307.843 596.984V584.609L308.65 585.491H304.881V583.859H309.7V596.984H307.843ZM317.933 597.134C316.908 597.134 315.989 596.872 315.177 596.347C314.377 595.822 313.739 595.059 313.264 594.059C312.802 593.059 312.571 591.847 312.571 590.422C312.571 588.997 312.802 587.784 313.264 586.784C313.739 585.784 314.377 585.022 315.177 584.497C315.989 583.972 316.908 583.709 317.933 583.709C318.946 583.709 319.858 583.972 320.671 584.497C321.483 585.022 322.121 585.784 322.583 586.784C323.046 587.784 323.277 588.997 323.277 590.422C323.277 591.847 323.046 593.059 322.583 594.059C322.121 595.059 321.483 595.822 320.671 596.347C319.858 596.872 318.946 597.134 317.933 597.134ZM317.933 595.466C318.621 595.466 319.221 595.278 319.733 594.903C320.258 594.528 320.664 593.966 320.952 593.216C321.252 592.466 321.402 591.534 321.402 590.422C321.402 589.309 321.252 588.378 320.952 587.628C320.664 586.878 320.258 586.316 319.733 585.941C319.221 585.566 318.621 585.378 317.933 585.378C317.246 585.378 316.639 585.566 316.114 585.941C315.589 586.316 315.177 586.878 314.877 587.628C314.589 588.378 314.446 589.309 314.446 590.422C314.446 591.534 314.589 592.466 314.877 593.216C315.177 593.966 315.589 594.528 316.114 594.903C316.639 595.278 317.246 595.466 317.933 595.466Z" fill="#70548E"/>
<path d="M315.05 330.647C313.306 330.647 311.815 330.263 310.578 329.494C309.34 328.725 308.393 327.619 307.737 326.175C307.1 324.713 306.781 322.931 306.781 320.831C306.781 318.6 307.175 316.716 307.962 315.178C308.75 313.641 309.847 312.478 311.253 311.691C312.659 310.903 314.272 310.509 316.09 310.509C317.028 310.509 317.918 310.603 318.762 310.791C319.625 310.978 320.365 311.269 320.984 311.663L319.915 313.856C319.409 313.5 318.828 313.256 318.172 313.125C317.534 312.994 316.859 312.928 316.147 312.928C314.14 312.928 312.547 313.556 311.365 314.813C310.184 316.05 309.593 317.897 309.593 320.353C309.593 320.747 309.612 321.216 309.65 321.759C309.687 322.303 309.781 322.838 309.931 323.363L308.975 322.406C309.256 321.544 309.697 320.822 310.297 320.241C310.915 319.641 311.647 319.2 312.49 318.919C313.353 318.619 314.281 318.469 315.275 318.469C316.587 318.469 317.75 318.713 318.762 319.2C319.775 319.688 320.572 320.381 321.153 321.281C321.734 322.163 322.025 323.213 322.025 324.431C322.025 325.688 321.715 326.784 321.097 327.722C320.478 328.659 319.643 329.381 318.593 329.888C317.543 330.394 316.362 330.647 315.05 330.647ZM314.937 328.369C315.8 328.369 316.55 328.209 317.187 327.891C317.843 327.572 318.359 327.131 318.734 326.569C319.109 325.988 319.297 325.313 319.297 324.544C319.297 323.381 318.893 322.463 318.087 321.788C317.281 321.094 316.184 320.747 314.797 320.747C313.897 320.747 313.109 320.916 312.434 321.253C311.759 321.591 311.225 322.05 310.831 322.631C310.456 323.194 310.268 323.841 310.268 324.572C310.268 325.247 310.447 325.875 310.803 326.456C311.159 327.019 311.684 327.478 312.378 327.834C313.072 328.191 313.925 328.369 314.937 328.369Z" fill="#70548E"/>
<path d="M310.261 546.631V545.483L316.135 537.969H317.907L312.083 545.483L311.246 545.22H320.417V546.631H310.261ZM316.644 549.453V546.631L316.693 545.22V542.727H318.235V549.453H316.644Z" fill="#70548E"/>
<path d="M307.486 516.641V515.525L312.162 511.013C312.577 510.62 312.884 510.275 313.081 509.98C313.288 509.674 313.425 509.395 313.491 509.143C313.567 508.881 313.606 508.629 313.606 508.388C313.606 507.798 313.398 507.333 312.982 506.994C312.566 506.655 311.959 506.485 311.161 506.485C310.549 506.485 309.996 506.589 309.504 506.797C309.012 506.994 308.585 507.306 308.224 507.732L307.109 506.764C307.546 506.206 308.131 505.78 308.864 505.484C309.608 505.178 310.423 505.025 311.309 505.025C312.107 505.025 312.802 505.156 313.392 505.419C313.983 505.67 314.437 506.037 314.754 506.518C315.082 506.999 315.246 507.568 315.246 508.224C315.246 508.596 315.197 508.963 315.099 509.324C315 509.684 314.814 510.067 314.541 510.472C314.267 510.877 313.874 511.331 313.359 511.834L309.192 515.853L308.799 515.213H315.738V516.641H307.486ZM319.023 516.641V505.813L319.729 506.584H316.431V505.156H320.647V516.641H319.023Z" fill="#70548E"/>
<path d="M309.75 132.266V121.438L310.455 122.209H307.158V120.781H311.374V132.266H309.75ZM317.61 120.65C318.65 120.65 319.525 120.874 320.235 121.323C320.957 121.771 321.504 122.422 321.876 123.275C322.248 124.117 322.434 125.151 322.434 126.376C322.434 127.677 322.204 128.777 321.745 129.674C321.285 130.57 320.651 131.249 319.842 131.708C319.032 132.167 318.086 132.397 317.003 132.397C316.467 132.397 315.948 132.342 315.445 132.233C314.953 132.124 314.521 131.954 314.149 131.724L314.772 130.445C315.078 130.642 315.417 130.784 315.789 130.871C316.172 130.948 316.571 130.986 316.987 130.986C318.146 130.986 319.071 130.625 319.76 129.903C320.449 129.17 320.793 128.088 320.793 126.655C320.793 126.425 320.782 126.152 320.76 125.834C320.739 125.517 320.689 125.206 320.613 124.899L321.154 125.457C321.001 125.96 320.744 126.387 320.383 126.737C320.033 127.076 319.607 127.333 319.103 127.508C318.611 127.672 318.07 127.754 317.479 127.754C316.725 127.754 316.052 127.612 315.461 127.327C314.871 127.043 314.406 126.644 314.067 126.13C313.728 125.605 313.558 124.987 313.558 124.276C313.558 123.532 313.733 122.892 314.083 122.356C314.444 121.809 314.931 121.388 315.543 121.093C316.167 120.798 316.856 120.65 317.61 120.65ZM317.676 121.979C317.184 121.979 316.746 122.072 316.364 122.258C315.981 122.444 315.68 122.701 315.461 123.029C315.253 123.357 315.15 123.751 315.15 124.21C315.15 124.888 315.385 125.43 315.855 125.834C316.325 126.228 316.96 126.425 317.758 126.425C318.283 126.425 318.742 126.327 319.136 126.13C319.541 125.933 319.853 125.665 320.071 125.326C320.301 124.987 320.416 124.609 320.416 124.194C320.416 123.789 320.312 123.423 320.104 123.095C319.896 122.767 319.59 122.499 319.185 122.291C318.781 122.083 318.278 121.979 317.676 121.979Z" fill="#70548E"/>
<path d="M442.435 188.516V177.688L443.141 178.459H439.843V177.031H444.059V188.516H442.435ZM451.264 188.647C450.367 188.647 449.563 188.417 448.852 187.958C448.152 187.498 447.594 186.831 447.179 185.956C446.774 185.081 446.572 184.02 446.572 182.773C446.572 181.527 446.774 180.466 447.179 179.591C447.594 178.716 448.152 178.048 448.852 177.589C449.563 177.13 450.367 176.9 451.264 176.9C452.15 176.9 452.948 177.13 453.659 177.589C454.37 178.048 454.928 178.716 455.332 179.591C455.737 180.466 455.94 181.527 455.94 182.773C455.94 184.02 455.737 185.081 455.332 185.956C454.928 186.831 454.37 187.498 453.659 187.958C452.948 188.417 452.15 188.647 451.264 188.647ZM451.264 187.187C451.865 187.187 452.39 187.023 452.839 186.695C453.298 186.366 453.654 185.874 453.905 185.218C454.168 184.562 454.299 183.747 454.299 182.773C454.299 181.8 454.168 180.985 453.905 180.329C453.654 179.673 453.298 179.181 452.839 178.852C452.39 178.524 451.865 178.36 451.264 178.36C450.662 178.36 450.132 178.524 449.672 178.852C449.213 179.181 448.852 179.673 448.59 180.329C448.338 180.985 448.212 181.8 448.212 182.773C448.212 183.747 448.338 184.562 448.59 185.218C448.852 185.874 449.213 186.366 449.672 186.695C450.132 187.023 450.662 187.187 451.264 187.187Z" fill="#70548E"/>
<path d="M466.781 165.078V154.25L467.487 155.021H464.189V153.594H468.405V165.078H466.781ZM475.741 165.21C474.724 165.21 473.854 164.985 473.132 164.537C472.41 164.088 471.858 163.443 471.475 162.601C471.103 161.748 470.917 160.709 470.917 159.484C470.917 158.182 471.147 157.083 471.607 156.186C472.066 155.289 472.706 154.611 473.526 154.152C474.346 153.692 475.287 153.463 476.348 153.463C476.895 153.463 477.414 153.517 477.907 153.627C478.41 153.736 478.842 153.906 479.203 154.135L478.579 155.415C478.284 155.207 477.945 155.065 477.562 154.988C477.19 154.912 476.796 154.874 476.381 154.874C475.21 154.874 474.281 155.24 473.592 155.973C472.903 156.695 472.558 157.772 472.558 159.205C472.558 159.435 472.569 159.708 472.591 160.025C472.613 160.342 472.667 160.654 472.755 160.96L472.197 160.402C472.361 159.899 472.618 159.478 472.968 159.139C473.329 158.789 473.756 158.532 474.248 158.368C474.751 158.193 475.292 158.106 475.872 158.106C476.638 158.106 477.316 158.248 477.907 158.532C478.497 158.817 478.962 159.221 479.301 159.746C479.64 160.26 479.81 160.873 479.81 161.584C479.81 162.317 479.629 162.956 479.268 163.503C478.907 164.05 478.421 164.471 477.808 164.767C477.196 165.062 476.507 165.21 475.741 165.21ZM475.675 163.881C476.178 163.881 476.616 163.788 476.988 163.602C477.371 163.416 477.671 163.159 477.89 162.831C478.109 162.492 478.218 162.098 478.218 161.649C478.218 160.971 477.983 160.435 477.513 160.042C477.042 159.637 476.403 159.435 475.593 159.435C475.068 159.435 474.609 159.533 474.215 159.73C473.821 159.927 473.51 160.195 473.28 160.534C473.061 160.862 472.952 161.239 472.952 161.666C472.952 162.06 473.056 162.426 473.264 162.765C473.471 163.093 473.778 163.361 474.182 163.569C474.587 163.777 475.085 163.881 475.675 163.881Z" fill="#70548E"/>
<path d="M503.246 312.838C504.285 312.838 505.16 313.062 505.871 313.51C506.593 313.959 507.14 314.609 507.512 315.463C507.884 316.305 508.07 317.338 508.07 318.563C508.07 319.865 507.84 320.964 507.38 321.861C506.921 322.758 506.287 323.436 505.477 323.895C504.668 324.355 503.722 324.584 502.639 324.584C502.103 324.584 501.584 324.53 501.08 324.42C500.588 324.311 500.156 324.141 499.784 323.912L500.408 322.632C500.714 322.829 501.053 322.971 501.425 323.059C501.808 323.135 502.207 323.174 502.623 323.174C503.782 323.174 504.706 322.813 505.395 322.091C506.084 321.358 506.429 320.275 506.429 318.842C506.429 318.613 506.418 318.339 506.396 318.022C506.374 317.705 506.325 317.393 506.248 317.087L506.79 317.645C506.637 318.148 506.38 318.574 506.019 318.924C505.669 319.263 505.242 319.52 504.739 319.695C504.247 319.859 503.705 319.941 503.115 319.941C502.36 319.941 501.688 319.799 501.097 319.515C500.506 319.231 500.041 318.831 499.702 318.317C499.363 317.792 499.194 317.174 499.194 316.463C499.194 315.72 499.369 315.08 499.719 314.544C500.08 313.997 500.566 313.576 501.179 313.281C501.802 312.985 502.491 312.838 503.246 312.838ZM503.312 314.166C502.82 314.166 502.382 314.259 501.999 314.445C501.616 314.631 501.316 314.888 501.097 315.216C500.889 315.545 500.785 315.938 500.785 316.398C500.785 317.076 501.02 317.617 501.491 318.022C501.961 318.416 502.595 318.613 503.394 318.613C503.919 318.613 504.378 318.514 504.772 318.317C505.177 318.12 505.488 317.852 505.707 317.513C505.937 317.174 506.052 316.797 506.052 316.381C506.052 315.977 505.948 315.61 505.74 315.282C505.532 314.954 505.226 314.686 504.821 314.478C504.416 314.27 503.913 314.166 503.312 314.166Z" fill="#70548E"/>
<path d="M533.98 324.453L538.853 313.658L539.279 314.396H532.454L533.275 313.592V316.447H531.7V312.969H540.362V314.084L535.719 324.453H533.98Z" fill="#70548E"/>
<path d="M86.1854 324.453V313.625L86.8909 314.396H83.5932V312.969H87.8096V324.453H86.1854ZM95.0139 324.584C94.117 324.584 93.3131 324.355 92.6021 323.895C91.9021 323.436 91.3443 322.769 90.9287 321.894C90.524 321.019 90.3217 319.958 90.3217 318.711C90.3217 317.464 90.524 316.403 90.9287 315.528C91.3443 314.653 91.9021 313.986 92.6021 313.527C93.3131 313.067 94.117 312.838 95.0139 312.838C95.8998 312.838 96.6982 313.067 97.4092 313.527C98.1201 313.986 98.6779 314.653 99.0826 315.528C99.4873 316.403 99.6896 317.464 99.6896 318.711C99.6896 319.958 99.4873 321.019 99.0826 321.894C98.6779 322.769 98.1201 323.436 97.4092 323.895C96.6982 324.355 95.8998 324.584 95.0139 324.584ZM95.0139 323.124C95.6154 323.124 96.1404 322.96 96.5889 322.632C97.0482 322.304 97.4037 321.812 97.6553 321.156C97.9178 320.499 98.049 319.684 98.049 318.711C98.049 317.738 97.9178 316.923 97.6553 316.266C97.4037 315.61 97.0482 315.118 96.5889 314.79C96.1404 314.462 95.6154 314.298 95.0139 314.298C94.4123 314.298 93.8818 314.462 93.4225 314.79C92.9631 315.118 92.6021 315.61 92.3396 316.266C92.0881 316.923 91.9623 317.738 91.9623 318.711C91.9623 319.684 92.0881 320.499 92.3396 321.156C92.6021 321.812 92.9631 322.304 93.4225 322.632C93.8818 322.96 94.4123 323.124 95.0139 323.124Z" fill="#70548E"/>
<path d="M127.002 324.584C125.985 324.584 125.115 324.36 124.393 323.912C123.671 323.463 123.119 322.818 122.736 321.976C122.364 321.123 122.178 320.084 122.178 318.859C122.178 317.557 122.408 316.458 122.867 315.561C123.327 314.664 123.967 313.986 124.787 313.527C125.607 313.067 126.548 312.838 127.609 312.838C128.156 312.838 128.675 312.892 129.167 313.002C129.671 313.111 130.103 313.281 130.464 313.51L129.84 314.79C129.545 314.582 129.206 314.44 128.823 314.363C128.451 314.287 128.057 314.249 127.642 314.249C126.471 314.249 125.542 314.615 124.853 315.348C124.164 316.07 123.819 317.147 123.819 318.58C123.819 318.809 123.83 319.083 123.852 319.4C123.874 319.717 123.928 320.029 124.016 320.335L123.458 319.777C123.622 319.274 123.879 318.853 124.229 318.514C124.59 318.164 125.017 317.907 125.509 317.743C126.012 317.568 126.553 317.481 127.133 317.481C127.899 317.481 128.577 317.623 129.167 317.907C129.758 318.191 130.223 318.596 130.562 319.121C130.901 319.635 131.071 320.248 131.071 320.959C131.071 321.691 130.89 322.331 130.529 322.878C130.168 323.425 129.681 323.846 129.069 324.141C128.456 324.437 127.767 324.584 127.002 324.584ZM126.936 323.256C127.439 323.256 127.877 323.163 128.249 322.977C128.631 322.791 128.932 322.534 129.151 322.206C129.37 321.866 129.479 321.473 129.479 321.024C129.479 320.346 129.244 319.81 128.774 319.416C128.303 319.012 127.664 318.809 126.854 318.809C126.329 318.809 125.87 318.908 125.476 319.105C125.082 319.302 124.771 319.57 124.541 319.909C124.322 320.237 124.213 320.614 124.213 321.041C124.213 321.434 124.317 321.801 124.524 322.14C124.732 322.468 125.039 322.736 125.443 322.944C125.848 323.152 126.346 323.256 126.936 323.256Z" fill="#70548E"/>
<path d="M178.902 188.516L183.774 177.72L184.201 178.459H177.376L178.196 177.655V180.509H176.621V177.031H185.284V178.147L180.641 188.516H178.902Z" fill="#70548E"/>
<path d="M151.81 165.078V154.25L152.516 155.021H149.218V153.594H153.435V165.078H151.81ZM160.639 165.209C159.742 165.209 158.938 164.98 158.227 164.52C157.527 164.061 156.969 163.394 156.554 162.519C156.149 161.644 155.947 160.583 155.947 159.336C155.947 158.089 156.149 157.028 156.554 156.153C156.969 155.278 157.527 154.611 158.227 154.152C158.938 153.692 159.742 153.463 160.639 153.463C161.525 153.463 162.323 153.692 163.034 154.152C163.745 154.611 164.303 155.278 164.708 156.153C165.112 157.028 165.315 158.089 165.315 159.336C165.315 160.583 165.112 161.644 164.708 162.519C164.303 163.394 163.745 164.061 163.034 164.52C162.323 164.98 161.525 165.209 160.639 165.209ZM160.639 163.749C161.24 163.749 161.765 163.585 162.214 163.257C162.673 162.929 163.029 162.437 163.28 161.781C163.543 161.124 163.674 160.309 163.674 159.336C163.674 158.363 163.543 157.548 163.28 156.892C163.029 156.235 162.673 155.743 162.214 155.415C161.765 155.087 161.24 154.923 160.639 154.923C160.037 154.923 159.507 155.087 159.047 155.415C158.588 155.743 158.227 156.235 157.965 156.892C157.713 157.548 157.587 158.363 157.587 159.336C157.587 160.309 157.713 161.124 157.965 161.781C158.227 162.437 158.588 162.929 159.047 163.257C159.507 163.585 160.037 163.749 160.639 163.749Z" fill="#70548E"/>
<path d="M314.574 87.8377C315.613 87.8377 316.488 88.0619 317.199 88.5103C317.921 88.9588 318.468 89.6095 318.84 90.4627C319.212 91.3049 319.398 92.3384 319.398 93.5634C319.398 94.865 319.168 95.9642 318.709 96.8611C318.249 97.758 317.615 98.4361 316.806 98.8955C315.996 99.3549 315.05 99.5845 313.967 99.5845C313.431 99.5845 312.912 99.5299 312.409 99.4205C311.917 99.3111 311.484 99.1416 311.113 98.9119L311.736 97.6322C312.042 97.8291 312.381 97.9713 312.753 98.0588C313.136 98.1353 313.535 98.1736 313.951 98.1736C315.11 98.1736 316.034 97.8127 316.724 97.0908C317.413 96.358 317.757 95.2752 317.757 93.8424C317.757 93.6127 317.746 93.3392 317.724 93.022C317.702 92.7049 317.653 92.3931 317.577 92.0869L318.118 92.6447C317.965 93.1478 317.708 93.5744 317.347 93.9244C316.997 94.2634 316.57 94.5205 316.067 94.6955C315.575 94.8595 315.034 94.9416 314.443 94.9416C313.688 94.9416 313.016 94.7994 312.425 94.515C311.834 94.2306 311.37 93.8314 311.031 93.3174C310.692 92.7924 310.522 92.1744 310.522 91.4634C310.522 90.7197 310.697 90.0799 311.047 89.5439C311.408 88.997 311.895 88.5759 312.507 88.2806C313.131 87.9853 313.82 87.8377 314.574 87.8377ZM314.64 89.1666C314.148 89.1666 313.71 89.2595 313.327 89.4455C312.945 89.6314 312.644 89.8884 312.425 90.2166C312.217 90.5447 312.113 90.9384 312.113 91.3978C312.113 92.0759 312.349 92.6174 312.819 93.022C313.289 93.4158 313.924 93.6127 314.722 93.6127C315.247 93.6127 315.706 93.5142 316.1 93.3174C316.505 93.1205 316.817 92.8525 317.035 92.5134C317.265 92.1744 317.38 91.797 317.38 91.3814C317.38 90.9767 317.276 90.6103 317.068 90.2822C316.86 89.9541 316.554 89.6861 316.149 89.4783C315.745 89.2705 315.242 89.1666 314.64 89.1666Z" fill="#70548E"/>
<path d="M151.794 483.828V473L152.5 473.771H149.202V472.344H153.419V483.828H151.794ZM155.767 481.006V479.858L161.64 472.344H163.412L157.588 479.858L156.751 479.595H165.922V481.006H155.767ZM162.149 483.828V481.006L162.198 479.595V477.102H163.74V483.828H162.149Z" fill="#70548E"/>
<path d="M468.808 483.828V473L469.513 473.771H466.216V472.344H470.432V483.828H468.808ZM474.88 483.828V473L475.586 473.771H472.288V472.344H476.504V483.828H474.88Z" fill="#70548E"/>
<path d="M180.98 448.775C182.019 448.775 182.894 448.999 183.605 449.448C184.327 449.896 184.874 450.547 185.246 451.4C185.618 452.242 185.804 453.276 185.804 454.501C185.804 455.802 185.574 456.902 185.115 457.799C184.655 458.695 184.021 459.374 183.212 459.833C182.402 460.292 181.456 460.522 180.373 460.522C179.837 460.522 179.318 460.467 178.815 460.358C178.323 460.249 177.891 460.079 177.519 459.849L178.142 458.57C178.448 458.767 178.787 458.909 179.159 458.996C179.542 459.073 179.941 459.111 180.357 459.111C181.516 459.111 182.441 458.75 183.13 458.028C183.819 457.295 184.163 456.213 184.163 454.78C184.163 454.55 184.152 454.277 184.13 453.96C184.108 453.642 184.059 453.331 183.983 453.024L184.524 453.582C184.371 454.085 184.114 454.512 183.753 454.862C183.403 455.201 182.976 455.458 182.473 455.633C181.981 455.797 181.44 455.879 180.849 455.879C180.094 455.879 179.422 455.737 178.831 455.452C178.241 455.168 177.776 454.769 177.437 454.255C177.098 453.73 176.928 453.112 176.928 452.401C176.928 451.657 177.103 451.017 177.453 450.481C177.814 449.935 178.301 449.513 178.913 449.218C179.537 448.923 180.226 448.775 180.98 448.775ZM181.046 450.104C180.554 450.104 180.116 450.197 179.733 450.383C179.351 450.569 179.05 450.826 178.831 451.154C178.623 451.482 178.519 451.876 178.519 452.335C178.519 453.013 178.755 453.555 179.225 453.96C179.695 454.353 180.33 454.55 181.128 454.55C181.653 454.55 182.112 454.452 182.506 454.255C182.911 454.058 183.223 453.79 183.441 453.451C183.671 453.112 183.786 452.735 183.786 452.319C183.786 451.914 183.682 451.548 183.474 451.22C183.266 450.892 182.96 450.624 182.555 450.416C182.151 450.208 181.648 450.104 181.046 450.104Z" fill="#70548E"/>
<path d="M221.734 511.59C221.734 520.89 229.151 528.398 238.262 528.398C247.372 528.398 254.789 520.89 254.789 511.59C254.789 502.289 247.372 494.781 238.262 494.781C229.151 494.781 221.734 502.289 221.734 511.59Z" fill="#DACEE8" stroke="#70548E" stroke-width="2.34375"/>
<path d="M236.348 517.364L241.22 506.569L241.647 507.307H234.822L235.642 506.503V509.358H234.067V505.88H242.73V506.996L238.087 517.364H236.348Z" fill="#70548E"/>
<path d="M375.25 511.59C375.25 520.89 382.667 528.398 391.778 528.398C400.888 528.398 408.305 520.89 408.305 511.59C408.305 502.289 400.888 494.781 391.778 494.781C382.667 494.781 375.25 502.289 375.25 511.59Z" fill="#DACEE8" stroke="#70548E" stroke-width="2.34375"/>
<path d="M386.902 517.364V506.536L387.607 507.307H384.309V505.88H388.526V517.364H386.902ZM395.517 517.496C394.587 517.496 393.783 517.359 393.105 517.085C392.427 516.812 391.902 516.424 391.53 515.921C391.158 515.406 390.972 514.805 390.972 514.116C390.972 513.438 391.147 512.863 391.497 512.393C391.858 511.912 392.378 511.551 393.056 511.31C393.734 511.059 394.554 510.933 395.517 510.933C396.479 510.933 397.3 511.059 397.978 511.31C398.667 511.551 399.192 511.912 399.553 512.393C399.914 512.874 400.094 513.449 400.094 514.116C400.094 514.805 399.908 515.406 399.536 515.921C399.164 516.424 398.634 516.812 397.945 517.085C397.256 517.359 396.446 517.496 395.517 517.496ZM395.517 516.167C396.436 516.167 397.152 515.981 397.666 515.609C398.191 515.226 398.453 514.712 398.453 514.067C398.453 513.432 398.191 512.935 397.666 512.574C397.152 512.202 396.436 512.016 395.517 512.016C394.609 512.016 393.898 512.202 393.384 512.574C392.87 512.935 392.613 513.432 392.613 514.067C392.613 514.712 392.87 515.226 393.384 515.609C393.898 515.981 394.609 516.167 395.517 516.167ZM395.517 511.819C394.642 511.819 393.898 511.704 393.286 511.474C392.673 511.234 392.203 510.895 391.875 510.457C391.546 510.009 391.382 509.478 391.382 508.866C391.382 508.221 391.552 507.668 391.891 507.209C392.241 506.738 392.728 506.378 393.351 506.126C393.975 505.874 394.696 505.749 395.517 505.749C396.348 505.749 397.075 505.874 397.699 506.126C398.322 506.378 398.809 506.738 399.159 507.209C399.509 507.668 399.684 508.221 399.684 508.866C399.684 509.478 399.52 510.009 399.192 510.457C398.864 510.895 398.388 511.234 397.764 511.474C397.141 511.704 396.392 511.819 395.517 511.819ZM395.517 510.769C396.315 510.769 396.939 510.605 397.387 510.277C397.846 509.949 398.076 509.5 398.076 508.931C398.076 508.352 397.841 507.898 397.371 507.57C396.9 507.242 396.282 507.078 395.517 507.078C394.751 507.078 394.139 507.242 393.679 507.57C393.231 507.898 393.007 508.352 393.007 508.931C393.007 509.5 393.225 509.949 393.663 510.277C394.111 510.605 394.729 510.769 395.517 510.769Z" fill="#70548E"/>
<path d="M221.734 127.215C221.734 136.515 229.151 144.023 238.262 144.023C247.372 144.023 254.789 136.515 254.789 127.215C254.789 117.914 247.372 110.406 238.262 110.406C229.151 110.406 221.734 117.914 221.734 127.215Z" fill="#DACEE8" stroke="#70548E" stroke-width="2.34375"/>
<path d="M235.629 132.989V122.161L236.334 122.932H233.037V121.505H237.253V132.989H235.629ZM241.701 132.989V122.161L242.406 122.932H239.109V121.505H243.325V132.989H241.701Z" fill="#70548E"/>
<path d="M375.25 127.215C375.25 136.515 382.667 144.023 391.778 144.023C400.888 144.023 408.305 136.515 408.305 127.215C408.305 117.914 400.888 110.406 391.778 110.406C382.667 110.406 375.25 117.914 375.25 127.215Z" fill="#DACEE8" stroke="#70548E" stroke-width="2.34375"/>
<path d="M386.193 132.989V122.161L386.899 122.932H383.601V121.505H387.818V132.989H386.193ZM390.166 130.167V129.019L396.039 121.505H397.811L391.987 129.019L391.15 128.756H400.321V130.167H390.166ZM396.548 132.989V130.167L396.597 128.756V126.263H398.139V132.989H396.548Z" fill="#70548E"/>
<path d="M486.578 236.199C486.578 245.5 493.995 253.008 503.106 253.008C512.216 253.008 519.633 245.5 519.633 236.199C519.633 226.899 512.216 219.391 503.106 219.391C493.995 219.391 486.578 226.899 486.578 236.199Z" fill="#DACEE8" stroke="#70548E" stroke-width="2.34375"/>
<path d="M495.008 241.974V240.858L499.684 236.346C500.099 235.953 500.406 235.608 500.602 235.313C500.81 235.007 500.947 234.728 501.013 234.476C501.089 234.214 501.127 233.962 501.127 233.721C501.127 233.131 500.92 232.666 500.504 232.327C500.088 231.988 499.481 231.818 498.683 231.818C498.07 231.818 497.518 231.922 497.026 232.13C496.534 232.327 496.107 232.639 495.746 233.065L494.631 232.097C495.068 231.539 495.653 231.113 496.386 230.817C497.13 230.511 497.945 230.358 498.831 230.358C499.629 230.358 500.324 230.489 500.914 230.752C501.505 231.003 501.959 231.37 502.276 231.851C502.604 232.332 502.768 232.901 502.768 233.557C502.768 233.929 502.719 234.296 502.62 234.657C502.522 235.017 502.336 235.4 502.063 235.805C501.789 236.21 501.395 236.664 500.881 237.167L496.714 241.186L496.32 240.546H503.26V241.974H495.008ZM504.429 241.974V240.858L509.104 236.346C509.52 235.953 509.826 235.608 510.023 235.313C510.231 235.007 510.368 234.728 510.433 234.476C510.51 234.214 510.548 233.962 510.548 233.721C510.548 233.131 510.34 232.666 509.925 232.327C509.509 231.988 508.902 231.818 508.104 231.818C507.491 231.818 506.939 231.922 506.447 232.13C505.954 232.327 505.528 232.639 505.167 233.065L504.051 232.097C504.489 231.539 505.074 231.113 505.807 230.817C506.551 230.511 507.365 230.358 508.251 230.358C509.05 230.358 509.744 230.489 510.335 230.752C510.926 231.003 511.379 231.37 511.697 231.851C512.025 232.332 512.189 232.901 512.189 233.557C512.189 233.929 512.14 234.296 512.041 234.657C511.943 235.017 511.757 235.4 511.483 235.805C511.21 236.21 510.816 236.664 510.302 237.167L506.135 241.186L505.741 240.546H512.681V241.974H504.429Z" fill="#70548E"/>
<path d="M486.578 401.434C486.578 410.734 493.995 418.242 503.106 418.242C512.216 418.242 519.633 410.734 519.633 401.434C519.633 392.133 512.216 384.625 503.106 384.625C493.995 384.625 486.578 392.133 486.578 401.434Z" fill="#DACEE8" stroke="#70548E" stroke-width="2.34375"/>
<path d="M504.37 407.339C503.353 407.339 502.483 407.115 501.761 406.667C501.039 406.218 500.487 405.573 500.104 404.731C499.732 403.878 499.546 402.839 499.546 401.614C499.546 400.312 499.776 399.213 500.235 398.316C500.695 397.419 501.335 396.741 502.155 396.282C502.975 395.822 503.916 395.592 504.977 395.592C505.524 395.592 506.043 395.647 506.535 395.757C507.038 395.866 507.471 396.035 507.831 396.265L507.208 397.545C506.913 397.337 506.574 397.195 506.191 397.118C505.819 397.042 505.425 397.003 505.01 397.003C503.839 397.003 502.91 397.37 502.221 398.103C501.531 398.824 501.187 399.902 501.187 401.335C501.187 401.564 501.198 401.838 501.22 402.155C501.242 402.472 501.296 402.784 501.384 403.09L500.826 402.532C500.99 402.029 501.247 401.608 501.597 401.269C501.958 400.919 502.385 400.662 502.877 400.498C503.38 400.323 503.921 400.235 504.501 400.235C505.267 400.235 505.945 400.378 506.535 400.662C507.126 400.946 507.591 401.351 507.93 401.876C508.269 402.39 508.438 403.003 508.438 403.714C508.438 404.446 508.258 405.086 507.897 405.633C507.536 406.18 507.049 406.601 506.437 406.896C505.824 407.192 505.135 407.339 504.37 407.339ZM504.304 406.01C504.807 406.01 505.245 405.917 505.617 405.732C505.999 405.546 506.3 405.289 506.519 404.96C506.738 404.621 506.847 404.228 506.847 403.779C506.847 403.101 506.612 402.565 506.142 402.171C505.671 401.767 505.031 401.564 504.222 401.564C503.697 401.564 503.238 401.663 502.844 401.86C502.45 402.057 502.138 402.324 501.909 402.664C501.69 402.992 501.581 403.369 501.581 403.796C501.581 404.189 501.685 404.556 501.892 404.895C502.1 405.223 502.406 405.491 502.811 405.699C503.216 405.907 503.713 406.01 504.304 406.01Z" fill="#70548E"/>
<path d="M109.235 236.199C109.235 245.5 116.652 253.008 125.762 253.008C134.873 253.008 142.29 245.5 142.29 236.199C142.29 226.899 134.873 219.391 125.762 219.391C116.652 219.391 109.235 226.899 109.235 236.199Z" fill="#DACEE8" stroke="#70548E" stroke-width="2.34375"/>
<path d="M123.848 241.974L128.72 231.178L129.147 231.917H122.322L123.142 231.113V233.967H121.567V230.489H130.23V231.605L125.587 241.974H123.848Z" fill="#70548E"/>
<path d="M109.235 401.434C109.235 410.734 116.652 418.242 125.762 418.242C134.873 418.242 142.29 410.734 142.29 401.434C142.29 392.133 134.873 384.625 125.762 384.625C116.652 384.625 109.235 392.133 109.235 401.434Z" fill="#DACEE8" stroke="#70548E" stroke-width="2.34375"/>
<path d="M123.848 407.208L128.72 396.413L129.147 397.151H122.322L123.142 396.347V399.202H121.567V395.724H130.23V396.839L125.587 407.208H123.848Z" fill="#70548E"/>
<path d="M447.823 460.522C447.014 460.522 446.227 460.396 445.461 460.145C444.706 459.893 444.088 459.554 443.607 459.127L444.362 457.831C444.745 458.192 445.242 458.488 445.855 458.717C446.467 458.947 447.123 459.062 447.823 459.062C448.677 459.062 449.338 458.881 449.809 458.52C450.29 458.149 450.53 457.651 450.53 457.027C450.53 456.426 450.301 455.945 449.841 455.584C449.393 455.212 448.677 455.026 447.692 455.026H446.773V453.877L450.186 449.677L450.416 450.334H444.132V448.906H451.712V450.022L448.316 454.206L447.462 453.697H448.004C449.393 453.697 450.432 454.009 451.121 454.632C451.821 455.256 452.171 456.049 452.171 457.011C452.171 457.656 452.012 458.247 451.695 458.783C451.378 459.319 450.897 459.745 450.252 460.063C449.617 460.369 448.808 460.522 447.823 460.522Z" fill="#70548E"/>
<path d="M370.37 383.047V372.219L371.076 372.99H367.778V371.563H371.995V383.047H370.37ZM376.443 383.047V372.219L377.148 372.99H373.85V371.563H378.067V383.047H376.443Z" fill="#70548E"/>
<path d="M247.718 383.047V381.931L252.394 377.42C252.81 377.026 253.116 376.681 253.313 376.386C253.521 376.08 253.657 375.801 253.723 375.549C253.799 375.287 253.838 375.035 253.838 374.795C253.838 374.204 253.63 373.739 253.214 373.4C252.799 373.061 252.192 372.892 251.393 372.892C250.781 372.892 250.228 372.995 249.736 373.203C249.244 373.4 248.817 373.712 248.457 374.138L247.341 373.17C247.778 372.613 248.364 372.186 249.096 371.891C249.84 371.584 250.655 371.431 251.541 371.431C252.339 371.431 253.034 371.563 253.624 371.825C254.215 372.077 254.669 372.443 254.986 372.924C255.314 373.406 255.478 373.974 255.478 374.631C255.478 375.002 255.429 375.369 255.331 375.73C255.232 376.091 255.046 376.474 254.773 376.878C254.499 377.283 254.106 377.737 253.592 378.24L249.424 382.259L249.031 381.62H255.971V383.047H247.718ZM257.139 383.047V381.931L261.815 377.42C262.23 377.026 262.537 376.681 262.734 376.386C262.941 376.08 263.078 375.801 263.144 375.549C263.22 375.287 263.259 375.035 263.259 374.795C263.259 374.204 263.051 373.739 262.635 373.4C262.219 373.061 261.612 372.892 260.814 372.892C260.202 372.892 259.649 372.995 259.157 373.203C258.665 373.4 258.238 373.712 257.877 374.138L256.762 373.17C257.199 372.613 257.784 372.186 258.517 371.891C259.261 371.584 260.076 371.431 260.962 371.431C261.76 371.431 262.455 371.563 263.045 371.825C263.636 372.077 264.09 372.443 264.407 372.924C264.735 373.406 264.899 373.974 264.899 374.631C264.899 375.002 264.85 375.369 264.752 375.73C264.653 376.091 264.467 376.474 264.194 376.878C263.92 377.283 263.527 377.737 263.012 378.24L258.845 382.259L258.452 381.62H265.391V383.047H257.139Z" fill="#70548E"/>
<path d="M503.611 518.619C502.549 518.619 501.63 518.463 500.855 518.15C500.08 517.838 499.48 517.394 499.055 516.819C498.63 516.231 498.417 515.544 498.417 514.756C498.417 513.981 498.617 513.325 499.017 512.788C499.43 512.238 500.024 511.825 500.799 511.55C501.574 511.263 502.511 511.119 503.611 511.119C504.711 511.119 505.649 511.263 506.424 511.55C507.211 511.825 507.811 512.238 508.224 512.788C508.636 513.338 508.842 513.994 508.842 514.756C508.842 515.544 508.63 516.231 508.205 516.819C507.78 517.394 507.174 517.838 506.386 518.15C505.599 518.463 504.674 518.619 503.611 518.619ZM503.611 517.1C504.661 517.1 505.48 516.888 506.067 516.463C506.667 516.025 506.967 515.438 506.967 514.7C506.967 513.975 506.667 513.406 506.067 512.994C505.48 512.569 504.661 512.356 503.611 512.356C502.574 512.356 501.761 512.569 501.174 512.994C500.586 513.406 500.292 513.975 500.292 514.7C500.292 515.438 500.586 516.025 501.174 516.463C501.761 516.888 502.574 517.1 503.611 517.1ZM503.611 512.131C502.611 512.131 501.761 512 501.061 511.738C500.361 511.463 499.824 511.075 499.449 510.575C499.074 510.063 498.886 509.456 498.886 508.756C498.886 508.019 499.08 507.388 499.467 506.863C499.867 506.325 500.424 505.913 501.136 505.625C501.849 505.338 502.674 505.194 503.611 505.194C504.561 505.194 505.392 505.338 506.105 505.625C506.817 505.913 507.374 506.325 507.774 506.863C508.174 507.388 508.374 508.019 508.374 508.756C508.374 509.456 508.186 510.063 507.811 510.575C507.436 511.075 506.892 511.463 506.18 511.738C505.467 512 504.611 512.131 503.611 512.131ZM503.611 510.931C504.524 510.931 505.236 510.744 505.749 510.369C506.274 509.994 506.536 509.481 506.536 508.831C506.536 508.169 506.267 507.65 505.73 507.275C505.192 506.9 504.486 506.713 503.611 506.713C502.736 506.713 502.036 506.9 501.511 507.275C500.999 507.65 500.742 508.169 500.742 508.831C500.742 509.481 500.992 509.994 501.492 510.369C502.005 510.744 502.711 510.931 503.611 510.931Z" fill="#70548E"/>
<path d="M575.998 326.281V313.906L576.804 314.788H573.035V313.156H577.854V326.281H575.998ZM586.237 326.431C585.075 326.431 584.081 326.175 583.256 325.663C582.431 325.15 581.8 324.413 581.362 323.45C580.937 322.475 580.725 321.288 580.725 319.888C580.725 318.4 580.987 317.144 581.512 316.119C582.037 315.094 582.769 314.319 583.706 313.794C584.644 313.269 585.719 313.006 586.931 313.006C587.556 313.006 588.15 313.069 588.712 313.194C589.287 313.319 589.781 313.513 590.194 313.775L589.481 315.238C589.144 315 588.756 314.838 588.319 314.75C587.894 314.663 587.444 314.619 586.969 314.619C585.631 314.619 584.569 315.038 583.781 315.875C582.994 316.7 582.6 317.931 582.6 319.569C582.6 319.831 582.612 320.144 582.637 320.506C582.662 320.869 582.725 321.225 582.825 321.575L582.187 320.938C582.375 320.363 582.669 319.881 583.069 319.494C583.481 319.094 583.969 318.8 584.531 318.613C585.106 318.413 585.725 318.313 586.387 318.313C587.262 318.313 588.037 318.475 588.712 318.8C589.387 319.125 589.919 319.588 590.306 320.188C590.694 320.775 590.887 321.475 590.887 322.288C590.887 323.125 590.681 323.856 590.269 324.481C589.856 325.106 589.3 325.588 588.6 325.925C587.9 326.263 587.112 326.431 586.237 326.431ZM586.162 324.913C586.737 324.913 587.237 324.806 587.662 324.594C588.1 324.381 588.444 324.088 588.694 323.713C588.944 323.325 589.069 322.875 589.069 322.363C589.069 321.588 588.8 320.975 588.262 320.525C587.725 320.063 586.994 319.831 586.069 319.831C585.469 319.831 584.944 319.944 584.494 320.169C584.044 320.394 583.687 320.7 583.425 321.088C583.175 321.463 583.05 321.894 583.05 322.381C583.05 322.831 583.169 323.25 583.406 323.638C583.644 324.013 583.994 324.319 584.456 324.556C584.919 324.794 585.487 324.913 586.162 324.913Z" fill="#70548E"/>
<path d="M314.939 55.7283C313.877 55.7283 312.958 55.572 312.183 55.2595C311.408 54.947 310.808 54.5033 310.383 53.9283C309.958 53.3408 309.746 52.6533 309.746 51.8658C309.746 51.0908 309.946 50.4345 310.346 49.897C310.758 49.347 311.352 48.9345 312.127 48.6595C312.902 48.372 313.839 48.2283 314.939 48.2283C316.039 48.2283 316.977 48.372 317.752 48.6595C318.539 48.9345 319.139 49.347 319.552 49.897C319.964 50.447 320.171 51.1033 320.171 51.8658C320.171 52.6533 319.958 53.3408 319.533 53.9283C319.108 54.5033 318.502 54.947 317.714 55.2595C316.927 55.572 316.002 55.7283 314.939 55.7283ZM314.939 54.2095C315.989 54.2095 316.808 53.997 317.396 53.572C317.996 53.1345 318.296 52.547 318.296 51.8095C318.296 51.0845 317.996 50.5158 317.396 50.1033C316.808 49.6783 315.989 49.4658 314.939 49.4658C313.902 49.4658 313.089 49.6783 312.502 50.1033C311.914 50.5158 311.621 51.0845 311.621 51.8095C311.621 52.547 311.914 53.1345 312.502 53.572C313.089 53.997 313.902 54.2095 314.939 54.2095ZM314.939 49.2408C313.939 49.2408 313.089 49.1095 312.389 48.847C311.689 48.572 311.152 48.1845 310.777 47.6845C310.402 47.172 310.214 46.5658 310.214 45.8658C310.214 45.1283 310.408 44.497 310.796 43.972C311.196 43.4345 311.752 43.022 312.464 42.7345C313.177 42.447 314.002 42.3033 314.939 42.3033C315.889 42.3033 316.721 42.447 317.433 42.7345C318.146 43.022 318.702 43.4345 319.102 43.972C319.502 44.497 319.702 45.1283 319.702 45.8658C319.702 46.5658 319.514 47.172 319.139 47.6845C318.764 48.1845 318.221 48.572 317.508 48.847C316.796 49.1095 315.939 49.2408 314.939 49.2408ZM314.939 48.0408C315.852 48.0408 316.564 47.8533 317.077 47.4783C317.602 47.1033 317.864 46.5908 317.864 45.9408C317.864 45.2783 317.596 44.7595 317.058 44.3845C316.521 44.0095 315.814 43.822 314.939 43.822C314.064 43.822 313.364 44.0095 312.839 44.3845C312.327 44.7595 312.071 45.2783 312.071 45.9408C312.071 46.5908 312.321 47.1033 312.821 47.4783C313.333 47.8533 314.039 48.0408 314.939 48.0408Z" fill="#70548E"/>
<path d="M503.752 134.244C502.589 134.244 501.596 133.988 500.771 133.475C499.946 132.963 499.314 132.225 498.877 131.263C498.452 130.288 498.239 129.1 498.239 127.7C498.239 126.213 498.502 124.956 499.027 123.931C499.552 122.906 500.283 122.131 501.221 121.606C502.158 121.081 503.233 120.819 504.446 120.819C505.071 120.819 505.664 120.881 506.227 121.006C506.802 121.131 507.296 121.325 507.708 121.588L506.996 123.05C506.658 122.813 506.271 122.65 505.833 122.563C505.408 122.475 504.958 122.431 504.483 122.431C503.146 122.431 502.083 122.85 501.296 123.688C500.508 124.513 500.114 125.744 500.114 127.381C500.114 127.644 500.127 127.956 500.152 128.319C500.177 128.681 500.239 129.038 500.339 129.388L499.702 128.75C499.889 128.175 500.183 127.694 500.583 127.306C500.996 126.906 501.483 126.613 502.046 126.425C502.621 126.225 503.239 126.125 503.902 126.125C504.777 126.125 505.552 126.288 506.227 126.613C506.902 126.938 507.433 127.4 507.821 128C508.208 128.588 508.402 129.288 508.402 130.1C508.402 130.938 508.196 131.669 507.783 132.294C507.371 132.919 506.814 133.4 506.114 133.738C505.414 134.075 504.627 134.244 503.752 134.244ZM503.677 132.725C504.252 132.725 504.752 132.619 505.177 132.406C505.614 132.194 505.958 131.9 506.208 131.525C506.458 131.138 506.583 130.688 506.583 130.175C506.583 129.4 506.314 128.788 505.777 128.338C505.239 127.875 504.508 127.644 503.583 127.644C502.983 127.644 502.458 127.756 502.008 127.981C501.558 128.206 501.202 128.513 500.939 128.9C500.689 129.275 500.564 129.706 500.564 130.194C500.564 130.644 500.683 131.063 500.921 131.45C501.158 131.825 501.508 132.131 501.971 132.369C502.433 132.606 503.002 132.725 503.677 132.725Z" fill="#70548E"/>
<path d="M125.829 134.244C124.904 134.244 124.004 134.1 123.129 133.813C122.267 133.525 121.56 133.138 121.01 132.65L121.873 131.169C122.31 131.581 122.879 131.919 123.579 132.181C124.279 132.444 125.029 132.575 125.829 132.575C126.804 132.575 127.56 132.369 128.098 131.956C128.648 131.531 128.923 130.963 128.923 130.25C128.923 129.563 128.66 129.013 128.135 128.6C127.623 128.175 126.804 127.963 125.679 127.963H124.629V126.65L128.529 121.85L128.792 122.6H121.61V120.969H130.273V122.244L126.392 127.025L125.417 126.444H126.035C127.623 126.444 128.81 126.8 129.598 127.513C130.398 128.225 130.798 129.131 130.798 130.231C130.798 130.969 130.617 131.644 130.254 132.256C129.892 132.869 129.342 133.356 128.604 133.719C127.879 134.069 126.954 134.244 125.829 134.244Z" fill="#70548E"/>
<path d="M37.1931 326.281V325.006L42.5369 319.85C43.0119 319.4 43.3619 319.006 43.5869 318.669C43.8244 318.319 43.9806 318 44.0556 317.713C44.1431 317.413 44.1869 317.125 44.1869 316.85C44.1869 316.175 43.9494 315.644 43.4744 315.256C42.9994 314.869 42.3056 314.675 41.3931 314.675C40.6931 314.675 40.0619 314.794 39.4994 315.031C38.9369 315.256 38.4494 315.613 38.0369 316.1L36.7619 314.994C37.2619 314.356 37.9306 313.869 38.7681 313.531C39.6181 313.181 40.5494 313.006 41.5619 313.006C42.4744 313.006 43.2681 313.156 43.9431 313.456C44.6181 313.744 45.1369 314.163 45.4994 314.713C45.8744 315.263 46.0619 315.913 46.0619 316.663C46.0619 317.088 46.0056 317.506 45.8931 317.919C45.7806 318.331 45.5681 318.769 45.2556 319.231C44.9431 319.694 44.4931 320.213 43.9056 320.788L39.1431 325.381L38.6931 324.65H46.6244V326.281H37.1931ZM47.9597 326.281V325.006L53.3035 319.85C53.7785 319.4 54.1285 319.006 54.3535 318.669C54.591 318.319 54.7472 318 54.8222 317.713C54.9097 317.413 54.9535 317.125 54.9535 316.85C54.9535 316.175 54.716 315.644 54.241 315.256C53.766 314.869 53.0722 314.675 52.1597 314.675C51.4597 314.675 50.8285 314.794 50.266 315.031C49.7035 315.256 49.216 315.613 48.8035 316.1L47.5285 314.994C48.0285 314.356 48.6972 313.869 49.5347 313.531C50.3847 313.181 51.316 313.006 52.3285 313.006C53.241 313.006 54.0347 313.156 54.7097 313.456C55.3847 313.744 55.9035 314.163 56.266 314.713C56.641 315.263 56.8285 315.913 56.8285 316.663C56.8285 317.088 56.7722 317.506 56.6597 317.919C56.5472 318.331 56.3347 318.769 56.0222 319.231C55.7097 319.694 55.2597 320.213 54.6722 320.788L49.9097 325.381L49.4597 324.65H57.391V326.281H47.9597Z" fill="#70548E"/>
<path d="M126.036 518.619C125.111 518.619 124.211 518.475 123.336 518.188C122.473 517.9 121.767 517.513 121.217 517.025L122.08 515.544C122.517 515.956 123.086 516.294 123.786 516.556C124.486 516.819 125.23 516.95 126.017 516.95C127.017 516.95 127.786 516.738 128.323 516.313C128.861 515.888 129.13 515.319 129.13 514.606C129.13 514.119 129.011 513.694 128.773 513.331C128.536 512.969 128.123 512.694 127.536 512.506C126.961 512.306 126.167 512.206 125.155 512.206H122.173L122.867 505.344H130.273V506.975H123.561L124.536 506.056L123.992 511.475L123.017 510.575H125.548C126.861 510.575 127.917 510.744 128.717 511.081C129.517 511.419 130.098 511.888 130.461 512.488C130.823 513.075 131.005 513.756 131.005 514.531C131.005 515.281 130.823 515.969 130.461 516.594C130.098 517.206 129.548 517.7 128.811 518.075C128.086 518.438 127.161 518.619 126.036 518.619Z" fill="#70548E"/>
</g>
<defs>
<filter id="filter0_d_304_8764" x="0.25" y="0.25" width="628.126" height="637.5" filterUnits="userSpaceOnUse" color-interpolation-filters="sRGB">
<feFlood flood-opacity="0" result="BackgroundImageFix"/>
<feColorMatrix in="SourceAlpha" type="matrix" values="0 0 0 0 0 0 0 0 0 0 0 0 0 0 0 0 0 0 127 0" result="hardAlpha"/>
<feOffset/>
<feGaussianBlur stdDeviation="9.375"/>
<feComposite in2="hardAlpha" operator="out"/>
<feColorMatrix type="matrix" values="0 0 0 0 1 0 0 0 0 1 0 0 0 0 1 0 0 0 0.5 0"/>
<feBlend mode="normal" in2="BackgroundImageFix" result="effect1_dropShadow_304_8764"/>
<feBlend mode="normal" in="SourceGraphic" in2="effect1_dropShadow_304_8764" result="shape"/>
</filter>
</defs>
</svg>
