<svg width="629" height="638" viewBox="0 0 629 638" fill="none" xmlns="http://www.w3.org/2000/svg">
<g filter="url(#filter0_d_304_9130)">
<path d="M314.313 47.7685L47.3193 319L314.313 590.232L581.307 319L314.313 47.7685Z" stroke="#70548E" stroke-width="2.34375" stroke-linecap="round" stroke-linejoin="round"/>
<path d="M125.52 127.21H503.106V510.79H125.52V127.21Z" stroke="#70548E" stroke-width="2.34375" stroke-linecap="round" stroke-linejoin="round"/>
<path d="M314.313 590.232V47.7685" stroke="#70548E" stroke-width="2.34375" stroke-linecap="round" stroke-linejoin="round"/>
<path d="M503.106 510.79L125.52 127.21" stroke="#70548E" stroke-width="2.34375" stroke-linecap="round" stroke-linejoin="round"/>
<path d="M581.307 319H47.3195" stroke="#70548E" stroke-width="2.34375" stroke-linecap="round" stroke-linejoin="round"/>
<path d="M503.106 127.21L125.52 510.79" stroke="#70548E" stroke-width="2.34375" stroke-linecap="round" stroke-linejoin="round"/>
<path d="M315 511L504 319" stroke="#70548E" stroke-width="2.39959" stroke-linecap="round" stroke-linejoin="round"/>
<g filter="url(#filter1_d_304_9130)">
<path d="M409.625 415L503.625 319" stroke="white" stroke-width="3" stroke-linecap="round" stroke-linejoin="round" shape-rendering="crispEdges"/>
</g>
<g filter="url(#filter2_d_304_9130)">
<path d="M503.625 401L502.625 319" stroke="white" stroke-width="3" stroke-linecap="round" stroke-linejoin="round" shape-rendering="crispEdges"/>
</g>
<g filter="url(#filter3_d_304_9130)">
<path d="M503.625 401L409.625 415" stroke="white" stroke-width="3" stroke-linecap="round" stroke-linejoin="round" shape-rendering="crispEdges"/>
</g>
<path d="M324.698 22.3202C318.048 19.5222 310.577 19.5222 303.927 22.3202L115.149 101.756C108.5 104.554 103.217 109.921 100.463 116.676L22.2686 308.45C19.5138 315.205 19.5138 322.795 22.2686 329.55L100.463 521.325C103.217 528.08 108.5 533.447 115.149 536.245L303.927 615.68C310.577 618.478 318.048 618.478 324.698 615.68L513.476 536.245C520.125 533.447 525.408 528.08 528.162 521.325L606.357 329.55C609.111 322.795 609.111 315.205 606.357 308.45L528.162 116.676C525.408 109.921 520.125 104.554 513.476 101.756L324.698 22.3202Z" stroke="#70548E" stroke-width="2.34375" stroke-linejoin="round"/>
<path d="M274.58 319C274.58 341.32 292.386 359.383 314.313 359.383C336.24 359.383 354.046 341.32 354.046 319C354.046 296.68 336.24 278.618 314.313 278.618C292.386 278.618 274.58 296.68 274.58 319Z" fill="#DACEE8" stroke="#70548E" stroke-width="2.34375"/>
<path d="M20.173 319C20.173 334.259 32.3445 346.597 47.3201 346.597C62.2957 346.597 74.4672 334.259 74.4672 319C74.4672 303.742 62.2957 291.404 47.3201 291.404C32.3445 291.404 20.173 303.742 20.173 319Z" fill="#DACEE8" stroke="#70548E" stroke-width="2.34375"/>
<path d="M554.16 319C554.16 334.259 566.331 346.597 581.307 346.597C596.282 346.597 608.454 334.259 608.454 319C608.454 303.742 596.282 291.404 581.307 291.404C566.331 291.404 554.16 303.742 554.16 319Z" fill="#DACEE8" stroke="#70548E" stroke-width="2.34375"/>
<path d="M487.758 319C487.758 327.639 494.647 334.61 503.106 334.61C511.565 334.61 518.453 327.639 518.453 319C518.453 310.362 511.565 303.39 503.106 303.39C494.647 303.39 487.758 310.362 487.758 319Z" fill="#DACEE8" stroke="#70548E" stroke-width="2.34375"/>
<path d="M519.779 319C519.779 328.301 527.196 335.809 536.307 335.809C545.417 335.809 552.834 328.301 552.834 319C552.834 309.7 545.417 302.192 536.307 302.192C527.196 302.192 519.779 309.7 519.779 319Z" fill="#DACEE8" stroke="#70548E" stroke-width="2.34375"/>
<path d="M75.7915 319C75.7915 328.301 83.2084 335.809 92.319 335.809C101.43 335.809 108.846 328.301 108.846 319C108.846 309.7 101.43 302.192 92.319 302.192C83.2084 302.192 75.7915 309.7 75.7915 319Z" fill="#DACEE8" stroke="#70548E" stroke-width="2.34375"/>
<path d="M287.166 47.7686C287.166 63.0272 299.338 75.3652 314.313 75.3652C329.289 75.3652 341.46 63.0272 341.46 47.7686C341.46 32.5099 329.289 20.172 314.313 20.172C299.338 20.172 287.166 32.5099 287.166 47.7686Z" fill="#DACEE8" stroke="#70548E" stroke-width="2.34375"/>
<path d="M298.966 127.21C298.966 135.849 305.855 142.82 314.313 142.82C322.772 142.82 329.661 135.849 329.661 127.21C329.661 118.572 322.772 111.601 314.313 111.601C305.855 111.601 298.966 118.572 298.966 127.21Z" fill="#DACEE8" stroke="#70548E" stroke-width="2.34375"/>
<path d="M297.786 93.4829C297.786 102.783 305.203 110.291 314.313 110.291C323.424 110.291 330.841 102.783 330.841 93.4829C330.841 84.1824 323.424 76.6745 314.313 76.6745C305.203 76.6745 297.786 84.1824 297.786 93.4829Z" fill="#DACEE8" stroke="#70548E" stroke-width="2.34375"/>
<path d="M287.166 590.232C287.166 605.49 299.338 617.828 314.313 617.828C329.289 617.828 341.46 605.49 341.46 590.232C341.46 574.973 329.289 562.635 314.313 562.635C299.338 562.635 287.166 574.973 287.166 590.232Z" fill="#DACEE8" stroke="#70548E" stroke-width="2.34375"/>
<path d="M298.966 510.79C298.966 519.428 305.855 526.4 314.313 526.4C322.772 526.4 329.661 519.428 329.661 510.79C329.661 502.151 322.772 495.18 314.313 495.18C305.855 495.18 298.966 502.151 298.966 510.79Z" fill="#DACEE8" stroke="#70548E" stroke-width="2.34375"/>
<path d="M297.786 544.518C297.786 553.818 305.203 561.326 314.313 561.326C323.424 561.326 330.841 553.818 330.841 544.518C330.841 535.217 323.424 527.709 314.313 527.709C305.203 527.709 297.786 535.217 297.786 544.518Z" fill="#DACEE8" stroke="#70548E" stroke-width="2.34375"/>
<path d="M475.959 510.79C475.959 526.049 488.13 538.387 503.106 538.387C518.081 538.387 530.253 526.049 530.253 510.79C530.253 495.531 518.081 483.193 503.106 483.193C488.13 483.193 475.959 495.531 475.959 510.79Z" fill="#DACEE8" stroke="#70548E" stroke-width="2.34375"/>
<path d="M98.3731 127.211C98.3731 142.469 110.545 154.807 125.52 154.807C140.496 154.807 152.667 142.469 152.667 127.211C152.667 111.952 140.496 99.614 125.52 99.614C110.545 99.614 98.3731 111.952 98.3731 127.211Z" fill="#DACEE8" stroke="#70548E" stroke-width="2.34375"/>
<path d="M98.3731 510.79C98.3731 526.049 110.545 538.387 125.52 538.387C140.496 538.387 152.667 526.049 152.667 510.79C152.667 495.531 140.496 483.193 125.52 483.193C110.545 483.193 98.3731 495.531 98.3731 510.79Z" fill="#DACEE8" stroke="#70548E" stroke-width="2.34375"/>
<path d="M475.959 127.21C475.959 142.469 488.13 154.807 503.106 154.807C518.081 154.807 530.253 142.469 530.253 127.21C530.253 111.952 518.081 99.6138 503.106 99.6138C488.13 99.6138 475.959 111.952 475.959 127.21Z" fill="#DACEE8" stroke="#70548E" stroke-width="2.34375"/>
<path d="M312.02 596.984L317.588 584.647L318.076 585.491H310.276L311.213 584.572V587.834H309.413V583.859H319.313V585.134L314.007 596.984H312.02Z" fill="#70548E"/>
<path d="M310.959 330.422L319.312 311.916L320.043 313.181H308.343L309.749 311.803V316.697H307.049V310.734H321.899V312.647L313.94 330.422H310.959Z" fill="#70548E"/>
<path d="M312.495 549.453L317.368 538.658L317.795 539.396H310.97L311.79 538.592V541.447H310.215V537.969H318.878V539.084L314.235 549.453H312.495Z" fill="#70548E"/>
<path d="M312.495 516.641L317.368 505.845L317.795 506.584H310.97L311.79 505.78V508.634H310.215V505.156H318.878V506.272L314.235 516.641H312.495Z" fill="#70548E"/>
<path d="M312.495 132.266L317.368 121.47L317.795 122.209H310.97L311.79 121.405V124.259H310.215V120.781H318.878V121.897L314.235 132.266H312.495Z" fill="#70548E"/>
<path d="M298.966 218.782C298.966 227.42 305.855 234.391 314.313 234.391C322.772 234.391 329.661 227.42 329.661 218.782C329.661 210.143 322.772 203.172 314.313 203.172C305.855 203.172 298.966 210.143 298.966 218.782Z" fill="#DACEE8" stroke="#70548E" stroke-width="2.34375"/>
<path d="M312.495 223.837L317.368 213.042L317.795 213.78H310.97L311.79 212.976V215.831H310.215V212.352H318.878V213.468L314.235 223.837H312.495Z" fill="#70548E"/>
<path d="M501.167 324.453L506.04 313.658L506.466 314.396H499.641L500.462 313.592V316.447H498.887V312.969H507.549V314.084L502.906 324.453H501.167Z" fill="#70548E"/>
<path d="M533.98 324.453L538.853 313.658L539.279 314.396H532.454L533.275 313.592V316.447H531.7V312.969H540.362V314.084L535.719 324.453H533.98Z" fill="#70548E"/>
<path d="M89.8394 324.453L94.7121 313.658L95.1386 314.396H88.3136L89.134 313.592V316.447H87.559V312.969H96.2215V314.084L91.5785 324.453H89.8394Z" fill="#70548E"/>
<path d="M110.173 319C110.173 327.639 117.061 334.61 125.52 334.61C133.979 334.61 140.868 327.639 140.868 319C140.868 310.362 133.979 303.39 125.52 303.39C117.061 303.39 110.173 310.362 110.173 319Z" fill="#DACEE8" stroke="#70548E" stroke-width="2.34375"/>
<path d="M123.87 324L128.743 313.205L129.169 313.943H122.344L123.165 313.139V315.994H121.59V312.516H130.252V313.631L125.609 324H123.87Z" fill="#70548E"/>
<path d="M186.172 319C186.172 327.639 193.061 334.61 201.519 334.61C209.978 334.61 216.867 327.639 216.867 319C216.867 310.362 209.978 303.39 201.519 303.39C193.061 303.39 186.172 310.362 186.172 319Z" fill="#DACEE8" stroke="#70548E" stroke-width="2.34375"/>
<path d="M199.869 324L204.742 313.205L205.169 313.943H198.344L199.164 313.139V315.994H197.589V312.516H206.251V313.631L201.608 324H199.869Z" fill="#70548E"/>
<path d="M312.495 99.4533L317.368 88.658L317.795 89.3963H310.97L311.79 88.5924V91.447H310.215V87.9689H318.878V89.0845L314.235 99.4533H312.495Z" fill="#70548E"/>
<path d="M375.25 511.59C375.25 520.89 382.667 528.398 391.778 528.398C400.888 528.398 408.305 520.89 408.305 511.59C408.305 502.289 400.888 494.781 391.778 494.781C382.667 494.781 375.25 502.289 375.25 511.59Z" fill="#DACEE8" stroke="#70548E" stroke-width="2.34375"/>
<path d="M389.863 517.364L394.736 506.569L395.163 507.307H388.338L389.158 506.503V509.358H387.583V505.88H396.245V506.996L391.602 517.364H389.863Z" fill="#70548E"/>
<path d="M486.578 401.434C486.578 410.734 493.995 418.242 503.106 418.242C512.216 418.242 519.633 410.734 519.633 401.434C519.633 392.133 512.216 384.625 503.106 384.625C493.995 384.625 486.578 392.133 486.578 401.434Z" fill="#DACEE8" stroke="#70548E" stroke-width="2.34375"/>
<path d="M501.192 407.208L506.064 396.413L506.491 397.151H499.666L500.486 396.347V399.202H498.911V395.724H507.574V396.839L502.931 407.208H501.192Z" fill="#70548E"/>
<path d="M392.797 414.98C392.797 424.281 400.214 431.789 409.325 431.789C418.435 431.789 425.852 424.281 425.852 414.98C425.852 405.68 418.435 398.172 409.325 398.172C400.214 398.172 392.797 405.68 392.797 414.98Z" fill="#DACEE8" stroke="#70548E" stroke-width="2.34375"/>
<path d="M407.386 420.031L412.259 409.236L412.685 409.974H405.86L406.681 409.17V412.025H405.106V408.547H413.768V409.662L409.125 420.031H407.386Z" fill="#70548E"/>
<path d="M500.691 518.469L506.26 506.131L506.748 506.975H498.948L499.885 506.056V509.319H498.085V505.344H507.985V506.619L502.679 518.469H500.691Z" fill="#70548E"/>
<path d="M579.207 326.281L584.776 313.944L585.263 314.788H577.463L578.401 313.869V317.131H576.601V313.156H586.501V314.431L581.194 326.281H579.207Z" fill="#70548E"/>
<path d="M312.02 55.5783L317.588 43.2408L318.076 44.0845H310.276L311.213 43.1658V46.4283H309.413V42.4533H319.313V43.7283L314.007 55.5783H312.02Z" fill="#70548E"/>
<path d="M500.691 134.094L506.26 121.756L506.748 122.6H498.948L499.885 121.681V124.944H498.085V120.969H507.985V122.244L502.679 134.094H500.691Z" fill="#70548E"/>
<path d="M123.347 134.094L128.916 121.756L129.404 122.6H121.604L122.541 121.681V124.944H120.741V120.969H130.641V122.244L125.335 134.094H123.347Z" fill="#70548E"/>
<path d="M44.8317 326.281L50.4005 313.944L50.888 314.788H43.088L44.0255 313.869V317.131H42.2255V313.156H52.1255V314.431L46.8192 326.281H44.8317Z" fill="#70548E"/>
<path d="M123.347 518.469L128.916 506.131L129.404 506.975H121.604L122.541 506.056V509.319H120.741V505.344H130.641V506.619L125.335 518.469H123.347Z" fill="#70548E"/>
<path d="M579.207 326.281L584.776 313.944L585.263 314.788H577.463L578.401 313.869V317.131H576.601V313.156H586.501V314.431L581.194 326.281H579.207Z" fill="#70548E"/>
</g>
<defs>
<filter id="filter0_d_304_9130" x="0.25" y="0.25" width="628.126" height="637.5" filterUnits="userSpaceOnUse" color-interpolation-filters="sRGB">
<feFlood flood-opacity="0" result="BackgroundImageFix"/>
<feColorMatrix in="SourceAlpha" type="matrix" values="0 0 0 0 0 0 0 0 0 0 0 0 0 0 0 0 0 0 127 0" result="hardAlpha"/>
<feOffset/>
<feGaussianBlur stdDeviation="9.375"/>
<feComposite in2="hardAlpha" operator="out"/>
<feColorMatrix type="matrix" values="0 0 0 0 1 0 0 0 0 1 0 0 0 0 1 0 0 0 0.5 0"/>
<feBlend mode="normal" in2="BackgroundImageFix" result="effect1_dropShadow_304_9130"/>
<feBlend mode="normal" in="SourceGraphic" in2="effect1_dropShadow_304_9130" result="shape"/>
</filter>
<filter id="filter1_d_304_9130" x="392.125" y="301.5" width="129" height="131" filterUnits="userSpaceOnUse" color-interpolation-filters="sRGB">
<feFlood flood-opacity="0" result="BackgroundImageFix"/>
<feColorMatrix in="SourceAlpha" type="matrix" values="0 0 0 0 0 0 0 0 0 0 0 0 0 0 0 0 0 0 127 0" result="hardAlpha"/>
<feOffset/>
<feGaussianBlur stdDeviation="8"/>
<feComposite in2="hardAlpha" operator="out"/>
<feColorMatrix type="matrix" values="0 0 0 0 1 0 0 0 0 1 0 0 0 0 1 0 0 0 1 0"/>
<feBlend mode="normal" in2="BackgroundImageFix" result="effect1_dropShadow_304_9130"/>
<feBlend mode="normal" in="SourceGraphic" in2="effect1_dropShadow_304_9130" result="shape"/>
</filter>
<filter id="filter2_d_304_9130" x="493.125" y="309.5" width="20" height="101" filterUnits="userSpaceOnUse" color-interpolation-filters="sRGB">
<feFlood flood-opacity="0" result="BackgroundImageFix"/>
<feColorMatrix in="SourceAlpha" type="matrix" values="0 0 0 0 0 0 0 0 0 0 0 0 0 0 0 0 0 0 127 0" result="hardAlpha"/>
<feOffset/>
<feGaussianBlur stdDeviation="4"/>
<feComposite in2="hardAlpha" operator="out"/>
<feColorMatrix type="matrix" values="0 0 0 0 1 0 0 0 0 1 0 0 0 0 1 0 0 0 1 0"/>
<feBlend mode="normal" in2="BackgroundImageFix" result="effect1_dropShadow_304_9130"/>
<feBlend mode="normal" in="SourceGraphic" in2="effect1_dropShadow_304_9130" result="shape"/>
</filter>
<filter id="filter3_d_304_9130" x="392.125" y="383.5" width="129" height="49.0004" filterUnits="userSpaceOnUse" color-interpolation-filters="sRGB">
<feFlood flood-opacity="0" result="BackgroundImageFix"/>
<feColorMatrix in="SourceAlpha" type="matrix" values="0 0 0 0 0 0 0 0 0 0 0 0 0 0 0 0 0 0 127 0" result="hardAlpha"/>
<feOffset/>
<feGaussianBlur stdDeviation="8"/>
<feComposite in2="hardAlpha" operator="out"/>
<feColorMatrix type="matrix" values="0 0 0 0 1 0 0 0 0 1 0 0 0 0 1 0 0 0 1 0"/>
<feBlend mode="normal" in2="BackgroundImageFix" result="effect1_dropShadow_304_9130"/>
<feBlend mode="normal" in="SourceGraphic" in2="effect1_dropShadow_304_9130" result="shape"/>
</filter>
</defs>
</svg>
