<svg width="629" height="639" viewBox="0 0 629 639" fill="none" xmlns="http://www.w3.org/2000/svg">
<g filter="url(#filter0_d_384_2539)">
<path d="M314.687 48.2686L47.6939 319.5L314.687 590.732L581.681 319.5L314.687 48.2686Z" stroke="#70548E" stroke-width="2.34375" stroke-linecap="round" stroke-linejoin="round"/>
<path d="M125.894 127.71H503.48V511.29H125.894V127.71Z" stroke="#70548E" stroke-width="2.34375" stroke-linecap="round" stroke-linejoin="round"/>
<path d="M314.687 590.732V48.2686" stroke="#70548E" stroke-width="2.34375" stroke-linecap="round" stroke-linejoin="round"/>
<path d="M503.48 511.29L125.894 127.71" stroke="#70548E" stroke-width="2.34375" stroke-linecap="round" stroke-linejoin="round"/>
<path d="M581.681 319.5H47.6939" stroke="#70548E" stroke-width="2.34375" stroke-linecap="round" stroke-linejoin="round"/>
<path d="M503.48 127.71L125.894 511.29" stroke="#70548E" stroke-width="2.34375" stroke-linecap="round" stroke-linejoin="round"/>
<path d="M315.375 511.5L504.375 319.5" stroke="#70548E" stroke-width="2.39959" stroke-linecap="round" stroke-linejoin="round"/>
<g filter="url(#filter1_d_384_2539)">
<path d="M410 415.5L504 319.5" stroke="#FFCC00" stroke-width="3" stroke-linecap="round" stroke-linejoin="round" shape-rendering="crispEdges"/>
</g>
<g filter="url(#filter2_d_384_2539)">
<path d="M504 401.5L503 319.5" stroke="#FFCC00" stroke-width="3" stroke-linecap="round" stroke-linejoin="round" shape-rendering="crispEdges"/>
</g>
<g filter="url(#filter3_d_384_2539)">
<path d="M504 401.5L410 415.5" stroke="#FFCC00" stroke-width="3" stroke-linecap="round" stroke-linejoin="round" shape-rendering="crispEdges"/>
</g>
<path d="M325.072 22.8202C318.423 20.0222 310.951 20.0222 304.302 22.8202L115.524 102.256C108.874 105.054 103.591 110.421 100.837 117.176L22.6433 308.95C19.8885 315.705 19.8885 323.295 22.6433 330.05L100.837 521.825C103.591 528.58 108.874 533.947 115.524 536.744L304.302 616.18C310.951 618.978 318.423 618.978 325.072 616.18L513.851 536.744C520.5 533.947 525.783 528.58 528.537 521.825L606.732 330.05C609.486 323.295 609.486 315.705 606.732 308.95L528.537 117.176C525.783 110.421 520.5 105.054 513.851 102.256L325.072 22.8202Z" stroke="#70548E" stroke-width="2.34375" stroke-linejoin="round"/>
<path d="M274.954 319.5C274.954 341.82 292.761 359.883 314.688 359.883C336.614 359.883 354.421 341.82 354.421 319.5C354.421 297.18 336.614 279.118 314.688 279.118C292.761 279.118 274.954 297.18 274.954 319.5Z" fill="#DACEE8" stroke="#70548E" stroke-width="2.34375"/>
<path d="M20.5476 319.5C20.5476 334.759 32.7191 347.097 47.6947 347.097C62.6703 347.097 74.8418 334.759 74.8418 319.5C74.8418 304.242 62.6703 291.904 47.6947 291.904C32.7191 291.904 20.5476 304.242 20.5476 319.5Z" fill="#DACEE8" stroke="#70548E" stroke-width="2.34375"/>
<path d="M554.534 319.5C554.534 334.759 566.706 347.097 581.682 347.097C596.657 347.097 608.829 334.759 608.829 319.5C608.829 304.242 596.657 291.904 581.682 291.904C566.706 291.904 554.534 304.242 554.534 319.5Z" fill="#DACEE8" stroke="#70548E" stroke-width="2.34375"/>
<path d="M488.133 319.5C488.133 328.139 495.022 335.11 503.481 335.11C511.939 335.11 518.828 328.139 518.828 319.5C518.828 310.862 511.939 303.89 503.481 303.89C495.022 303.89 488.133 310.862 488.133 319.5Z" fill="#DACEE8" stroke="#70548E" stroke-width="2.34375"/>
<path d="M520.154 319.5C520.154 328.801 527.571 336.309 536.682 336.309C545.792 336.309 553.209 328.801 553.209 319.5C553.209 310.2 545.792 302.692 536.682 302.692C527.571 302.692 520.154 310.2 520.154 319.5Z" fill="#DACEE8" stroke="#70548E" stroke-width="2.34375"/>
<path d="M76.1662 319.5C76.1662 328.801 83.5832 336.309 92.6937 336.309C101.804 336.309 109.221 328.801 109.221 319.5C109.221 310.2 101.804 302.692 92.6937 302.692C83.5832 302.692 76.1662 310.2 76.1662 319.5Z" fill="#DACEE8" stroke="#70548E" stroke-width="2.34375"/>
<path d="M287.541 48.2686C287.541 63.5272 299.712 75.8652 314.688 75.8652C329.663 75.8652 341.835 63.5272 341.835 48.2686C341.835 33.0099 329.663 20.672 314.688 20.672C299.712 20.672 287.541 33.0099 287.541 48.2686Z" fill="#DACEE8" stroke="#70548E" stroke-width="2.34375"/>
<path d="M299.341 127.71C299.341 136.349 306.229 143.32 314.688 143.32C323.147 143.32 330.036 136.349 330.036 127.71C330.036 119.072 323.147 112.101 314.688 112.101C306.229 112.101 299.341 119.072 299.341 127.71Z" fill="#DACEE8" stroke="#70548E" stroke-width="2.34375"/>
<path d="M298.16 93.9829C298.16 103.283 305.577 110.791 314.688 110.791C323.798 110.791 331.215 103.283 331.215 93.9829C331.215 84.6824 323.798 77.1745 314.688 77.1745C305.577 77.1745 298.16 84.6824 298.16 93.9829Z" fill="#DACEE8" stroke="#70548E" stroke-width="2.34375"/>
<path d="M287.541 590.732C287.541 605.99 299.712 618.328 314.688 618.328C329.663 618.328 341.835 605.99 341.835 590.732C341.835 575.473 329.663 563.135 314.688 563.135C299.712 563.135 287.541 575.473 287.541 590.732Z" fill="#DACEE8" stroke="#70548E" stroke-width="2.34375"/>
<path d="M299.341 511.29C299.341 519.928 306.229 526.9 314.688 526.9C323.147 526.9 330.036 519.928 330.036 511.29C330.036 502.651 323.147 495.68 314.688 495.68C306.229 495.68 299.341 502.651 299.341 511.29Z" fill="#DACEE8" stroke="#70548E" stroke-width="2.34375"/>
<path d="M298.16 545.018C298.16 554.318 305.577 561.826 314.688 561.826C323.798 561.826 331.215 554.318 331.215 545.018C331.215 535.717 323.798 528.209 314.688 528.209C305.577 528.209 298.16 535.717 298.16 545.018Z" fill="#DACEE8" stroke="#70548E" stroke-width="2.34375"/>
<path d="M476.333 511.29C476.333 526.549 488.505 538.887 503.48 538.887C518.456 538.887 530.627 526.549 530.627 511.29C530.627 496.031 518.456 483.693 503.48 483.693C488.505 483.693 476.333 496.031 476.333 511.29Z" fill="#DACEE8" stroke="#70548E" stroke-width="2.34375"/>
<path d="M98.7478 127.711C98.7478 142.969 110.919 155.307 125.895 155.307C140.87 155.307 153.042 142.969 153.042 127.711C153.042 112.452 140.87 100.114 125.895 100.114C110.919 100.114 98.7478 112.452 98.7478 127.711Z" fill="#DACEE8" stroke="#70548E" stroke-width="2.34375"/>
<path d="M98.7478 511.29C98.7478 526.549 110.919 538.887 125.895 538.887C140.87 538.887 153.042 526.549 153.042 511.29C153.042 496.031 140.87 483.693 125.895 483.693C110.919 483.693 98.7478 496.031 98.7478 511.29Z" fill="#DACEE8" stroke="#70548E" stroke-width="2.34375"/>
<path d="M476.333 127.71C476.333 142.969 488.505 155.307 503.48 155.307C518.456 155.307 530.627 142.969 530.627 127.71C530.627 112.452 518.456 100.114 503.48 100.114C488.505 100.114 476.333 112.452 476.333 127.71Z" fill="#DACEE8" stroke="#70548E" stroke-width="2.34375"/>
<path d="M308.218 597.484V585.109L309.024 585.991H305.256V584.359H310.074V597.484H308.218ZM318.308 597.634C317.283 597.634 316.364 597.372 315.552 596.847C314.752 596.322 314.114 595.559 313.639 594.559C313.177 593.559 312.945 592.347 312.945 590.922C312.945 589.497 313.177 588.284 313.639 587.284C314.114 586.284 314.752 585.522 315.552 584.997C316.364 584.472 317.283 584.209 318.308 584.209C319.32 584.209 320.233 584.472 321.045 584.997C321.858 585.522 322.495 586.284 322.958 587.284C323.42 588.284 323.652 589.497 323.652 590.922C323.652 592.347 323.42 593.559 322.958 594.559C322.495 595.559 321.858 596.322 321.045 596.847C320.233 597.372 319.32 597.634 318.308 597.634ZM318.308 595.966C318.995 595.966 319.595 595.778 320.108 595.403C320.633 595.028 321.039 594.466 321.327 593.716C321.627 592.966 321.777 592.034 321.777 590.922C321.777 589.809 321.627 588.878 321.327 588.128C321.039 587.378 320.633 586.816 320.108 586.441C319.595 586.066 318.995 585.878 318.308 585.878C317.62 585.878 317.014 586.066 316.489 586.441C315.964 586.816 315.552 587.378 315.252 588.128C314.964 588.878 314.82 589.809 314.82 590.922C314.82 592.034 314.964 592.966 315.252 593.716C315.552 594.466 315.964 595.028 316.489 595.403C317.014 595.778 317.62 595.966 318.308 595.966Z" fill="#70548E"/>
<path d="M315.424 331.147C313.681 331.147 312.19 330.763 310.953 329.994C309.715 329.225 308.768 328.119 308.112 326.675C307.474 325.213 307.156 323.431 307.156 321.331C307.156 319.1 307.549 317.216 308.337 315.678C309.124 314.141 310.221 312.978 311.628 312.191C313.034 311.403 314.646 311.009 316.465 311.009C317.403 311.009 318.293 311.103 319.137 311.291C319.999 311.478 320.74 311.769 321.359 312.163L320.29 314.356C319.784 314 319.203 313.756 318.546 313.625C317.909 313.494 317.234 313.428 316.521 313.428C314.515 313.428 312.921 314.056 311.74 315.313C310.559 316.55 309.968 318.397 309.968 320.853C309.968 321.247 309.987 321.716 310.024 322.259C310.062 322.803 310.156 323.338 310.306 323.863L309.349 322.906C309.631 322.044 310.071 321.322 310.671 320.741C311.29 320.141 312.021 319.7 312.865 319.419C313.728 319.119 314.656 318.969 315.649 318.969C316.962 318.969 318.124 319.213 319.137 319.7C320.149 320.188 320.946 320.881 321.528 321.781C322.109 322.663 322.399 323.713 322.399 324.931C322.399 326.188 322.09 327.284 321.471 328.222C320.853 329.159 320.018 329.881 318.968 330.388C317.918 330.894 316.737 331.147 315.424 331.147ZM315.312 328.869C316.174 328.869 316.924 328.709 317.562 328.391C318.218 328.072 318.734 327.631 319.109 327.069C319.484 326.488 319.671 325.813 319.671 325.044C319.671 323.881 319.268 322.963 318.462 322.288C317.656 321.594 316.559 321.247 315.171 321.247C314.271 321.247 313.484 321.416 312.809 321.753C312.134 322.091 311.599 322.55 311.206 323.131C310.831 323.694 310.643 324.341 310.643 325.072C310.643 325.747 310.821 326.375 311.178 326.956C311.534 327.519 312.059 327.978 312.753 328.334C313.446 328.691 314.299 328.869 315.312 328.869Z" fill="#70548E"/>
<path d="M310.636 547.131V545.983L316.509 538.469H318.281L312.457 545.983L311.62 545.72H320.791V547.131H310.636ZM317.018 549.953V547.131L317.067 545.72V543.227H318.609V549.953H317.018Z" fill="#70548E"/>
<path d="M307.861 517.141V516.025L312.536 511.513C312.952 511.12 313.258 510.775 313.455 510.48C313.663 510.174 313.8 509.895 313.865 509.643C313.942 509.381 313.98 509.129 313.98 508.888C313.98 508.298 313.772 507.833 313.357 507.494C312.941 507.155 312.334 506.985 311.536 506.985C310.923 506.985 310.371 507.089 309.878 507.297C309.386 507.494 308.96 507.806 308.599 508.232L307.483 507.264C307.921 506.706 308.506 506.28 309.239 505.984C309.982 505.678 310.797 505.525 311.683 505.525C312.482 505.525 313.176 505.656 313.767 505.919C314.357 506.17 314.811 506.537 315.128 507.018C315.457 507.499 315.621 508.068 315.621 508.724C315.621 509.096 315.571 509.463 315.473 509.824C315.375 510.184 315.189 510.567 314.915 510.972C314.642 511.377 314.248 511.831 313.734 512.334L309.567 516.353L309.173 515.713H316.113V517.141H307.861ZM319.398 517.141V506.313L320.103 507.084H316.806V505.656H321.022V517.141H319.398Z" fill="#70548E"/>
<path d="M310.124 132.766V121.938L310.83 122.709H307.532V121.281H311.749V132.766H310.124ZM317.985 121.15C319.024 121.15 319.899 121.374 320.61 121.823C321.332 122.271 321.879 122.922 322.251 123.775C322.622 124.617 322.808 125.651 322.808 126.876C322.808 128.177 322.579 129.277 322.119 130.174C321.66 131.07 321.026 131.749 320.216 132.208C319.407 132.667 318.461 132.897 317.378 132.897C316.842 132.897 316.322 132.842 315.819 132.733C315.327 132.624 314.895 132.454 314.523 132.224L315.147 130.945C315.453 131.141 315.792 131.284 316.164 131.371C316.547 131.448 316.946 131.486 317.362 131.486C318.521 131.486 319.445 131.125 320.134 130.403C320.823 129.67 321.168 128.588 321.168 127.155C321.168 126.925 321.157 126.652 321.135 126.334C321.113 126.017 321.064 125.706 320.987 125.399L321.529 125.957C321.376 126.46 321.119 126.887 320.758 127.237C320.408 127.576 319.981 127.833 319.478 128.008C318.986 128.172 318.444 128.254 317.854 128.254C317.099 128.254 316.426 128.112 315.836 127.827C315.245 127.543 314.78 127.144 314.441 126.63C314.102 126.105 313.933 125.487 313.933 124.776C313.933 124.032 314.108 123.392 314.458 122.856C314.819 122.309 315.305 121.888 315.918 121.593C316.541 121.298 317.23 121.15 317.985 121.15ZM318.051 122.479C317.558 122.479 317.121 122.572 316.738 122.758C316.355 122.944 316.055 123.201 315.836 123.529C315.628 123.857 315.524 124.251 315.524 124.71C315.524 125.388 315.759 125.93 316.23 126.334C316.7 126.728 317.334 126.925 318.133 126.925C318.658 126.925 319.117 126.827 319.511 126.63C319.915 126.433 320.227 126.165 320.446 125.826C320.676 125.487 320.79 125.109 320.79 124.694C320.79 124.289 320.687 123.923 320.479 123.595C320.271 123.266 319.965 122.999 319.56 122.791C319.155 122.583 318.652 122.479 318.051 122.479Z" fill="#70548E"/>
<path d="M299.341 219.282C299.341 227.92 306.229 234.891 314.688 234.891C323.147 234.891 330.036 227.92 330.036 219.282C330.036 210.643 323.147 203.672 314.688 203.672C306.229 203.672 299.341 210.643 299.341 219.282Z" fill="#DACEE8" stroke="#70548E" stroke-width="2.34375"/>
<path d="M312.151 224.337V213.509L312.857 214.28H309.559V212.852H313.775V224.337H312.151ZM318.223 224.337V213.509L318.929 214.28H315.631V212.852H319.848V224.337H318.223Z" fill="#70548E"/>
<path d="M504.72 325.084C503.703 325.084 502.833 324.86 502.111 324.412C501.389 323.963 500.837 323.318 500.454 322.476C500.082 321.623 499.897 320.584 499.897 319.359C499.897 318.057 500.126 316.958 500.586 316.061C501.045 315.164 501.685 314.486 502.505 314.027C503.325 313.567 504.266 313.338 505.327 313.338C505.874 313.338 506.393 313.392 506.886 313.502C507.389 313.611 507.821 313.781 508.182 314.01L507.558 315.29C507.263 315.082 506.924 314.94 506.541 314.863C506.169 314.787 505.775 314.749 505.36 314.749C504.189 314.749 503.26 315.115 502.571 315.848C501.882 316.57 501.537 317.647 501.537 319.08C501.537 319.309 501.548 319.583 501.57 319.9C501.592 320.217 501.647 320.529 501.734 320.835L501.176 320.277C501.34 319.774 501.597 319.353 501.947 319.014C502.308 318.664 502.735 318.407 503.227 318.243C503.73 318.068 504.272 317.981 504.851 317.981C505.617 317.981 506.295 318.123 506.886 318.407C507.476 318.692 507.941 319.096 508.28 319.621C508.619 320.135 508.789 320.748 508.789 321.459C508.789 322.192 508.608 322.831 508.247 323.378C507.886 323.925 507.4 324.346 506.787 324.642C506.175 324.937 505.486 325.084 504.72 325.084ZM504.654 323.756C505.157 323.756 505.595 323.663 505.967 323.477C506.35 323.291 506.65 323.034 506.869 322.706C507.088 322.367 507.197 321.973 507.197 321.524C507.197 320.846 506.962 320.31 506.492 319.917C506.022 319.512 505.382 319.309 504.572 319.309C504.047 319.309 503.588 319.408 503.194 319.605C502.8 319.802 502.489 320.07 502.259 320.409C502.04 320.737 501.931 321.114 501.931 321.541C501.931 321.934 502.035 322.301 502.243 322.64C502.45 322.968 502.757 323.236 503.161 323.444C503.566 323.652 504.064 323.756 504.654 323.756Z" fill="#70548E"/>
<path d="M530.701 324.953V314.125L531.406 314.896H528.109V313.469H532.325V324.953H530.701ZM539.529 325.084C538.632 325.084 537.828 324.855 537.118 324.395C536.418 323.936 535.86 323.269 535.444 322.394C535.039 321.519 534.837 320.458 534.837 319.211C534.837 317.964 535.039 316.903 535.444 316.028C535.86 315.153 536.418 314.486 537.118 314.027C537.828 313.567 538.632 313.338 539.529 313.338C540.415 313.338 541.214 313.567 541.925 314.027C542.635 314.486 543.193 315.153 543.598 316.028C544.003 316.903 544.205 317.964 544.205 319.211C544.205 320.458 544.003 321.519 543.598 322.394C543.193 323.269 542.635 323.936 541.925 324.395C541.214 324.855 540.415 325.084 539.529 325.084ZM539.529 323.624C540.131 323.624 540.656 323.46 541.104 323.132C541.564 322.804 541.919 322.312 542.171 321.656C542.433 320.999 542.564 320.184 542.564 319.211C542.564 318.238 542.433 317.423 542.171 316.767C541.919 316.11 541.564 315.618 541.104 315.29C540.656 314.962 540.131 314.798 539.529 314.798C538.928 314.798 538.397 314.962 537.938 315.29C537.478 315.618 537.118 316.11 536.855 316.767C536.603 317.423 536.478 318.238 536.478 319.211C536.478 320.184 536.603 320.999 536.855 321.656C537.118 322.312 537.478 322.804 537.938 323.132C538.397 323.46 538.928 323.624 539.529 323.624Z" fill="#70548E"/>
<path d="M90.2142 324.953L95.0869 314.158L95.5135 314.896H88.6885L89.5088 314.092V316.947H87.9338V313.469H96.5963V314.584L91.9533 324.953H90.2142Z" fill="#70548E"/>
<path d="M110.547 319.5C110.547 328.139 117.436 335.11 125.895 335.11C134.354 335.11 141.242 328.139 141.242 319.5C141.242 310.862 134.354 303.89 125.895 303.89C117.436 303.89 110.547 310.862 110.547 319.5Z" fill="#DACEE8" stroke="#70548E" stroke-width="2.34375"/>
<path d="M126.323 312.884C127.362 312.884 128.237 313.109 128.948 313.557C129.67 314.005 130.217 314.656 130.589 315.509C130.961 316.352 131.147 317.385 131.147 318.61C131.147 319.912 130.917 321.011 130.458 321.908C129.998 322.805 129.364 323.483 128.555 323.942C127.745 324.402 126.799 324.631 125.716 324.631C125.18 324.631 124.661 324.577 124.158 324.467C123.666 324.358 123.234 324.188 122.862 323.959L123.485 322.679C123.791 322.876 124.13 323.018 124.502 323.105C124.885 323.182 125.284 323.22 125.7 323.22C126.859 323.22 127.784 322.859 128.473 322.137C129.162 321.405 129.506 320.322 129.506 318.889C129.506 318.659 129.495 318.386 129.473 318.069C129.451 317.752 129.402 317.44 129.326 317.134L129.867 317.691C129.714 318.195 129.457 318.621 129.096 318.971C128.746 319.31 128.319 319.567 127.816 319.742C127.324 319.906 126.783 319.988 126.192 319.988C125.437 319.988 124.765 319.846 124.174 319.562C123.584 319.277 123.119 318.878 122.78 318.364C122.441 317.839 122.271 317.221 122.271 316.51C122.271 315.766 122.446 315.127 122.796 314.591C123.157 314.044 123.644 313.623 124.256 313.327C124.88 313.032 125.569 312.884 126.323 312.884ZM126.389 314.213C125.897 314.213 125.459 314.306 125.076 314.492C124.694 314.678 124.393 314.935 124.174 315.263C123.966 315.591 123.862 315.985 123.862 316.445C123.862 317.123 124.098 317.664 124.568 318.069C125.038 318.462 125.673 318.659 126.471 318.659C126.996 318.659 127.455 318.561 127.849 318.364C128.254 318.167 128.566 317.899 128.784 317.56C129.014 317.221 129.129 316.844 129.129 316.428C129.129 316.023 129.025 315.657 128.817 315.329C128.609 315.001 128.303 314.733 127.898 314.525C127.494 314.317 126.991 314.213 126.389 314.213Z" fill="#70548E"/>
<path d="M186.547 319.5C186.547 328.139 193.435 335.11 201.894 335.11C210.353 335.11 217.242 328.139 217.242 319.5C217.242 310.862 210.353 303.89 201.894 303.89C193.435 303.89 186.547 310.862 186.547 319.5Z" fill="#DACEE8" stroke="#70548E" stroke-width="2.34375"/>
<path d="M194.06 324.5V323.384L198.736 318.873C199.152 318.479 199.458 318.134 199.655 317.839C199.863 317.533 199.999 317.254 200.065 317.002C200.142 316.74 200.18 316.488 200.18 316.248C200.18 315.657 199.972 315.192 199.556 314.853C199.141 314.514 198.534 314.345 197.735 314.345C197.123 314.345 196.57 314.448 196.078 314.656C195.586 314.853 195.159 315.165 194.799 315.591L193.683 314.623C194.12 314.066 194.706 313.639 195.438 313.344C196.182 313.037 196.997 312.884 197.883 312.884C198.681 312.884 199.376 313.016 199.967 313.278C200.557 313.53 201.011 313.896 201.328 314.377C201.656 314.859 201.82 315.427 201.82 316.084C201.82 316.455 201.771 316.822 201.673 317.183C201.574 317.544 201.388 317.927 201.115 318.331C200.842 318.736 200.448 319.19 199.934 319.693L195.767 323.712L195.373 323.073H202.313V324.5H194.06ZM203.481 324.5V323.384L208.157 318.873C208.572 318.479 208.879 318.134 209.076 317.839C209.283 317.533 209.42 317.254 209.486 317.002C209.562 316.74 209.601 316.488 209.601 316.248C209.601 315.657 209.393 315.192 208.977 314.853C208.562 314.514 207.954 314.345 207.156 314.345C206.544 314.345 205.991 314.448 205.499 314.656C205.007 314.853 204.58 315.165 204.219 315.591L203.104 314.623C203.541 314.066 204.126 313.639 204.859 313.344C205.603 313.037 206.418 312.884 207.304 312.884C208.102 312.884 208.797 313.016 209.387 313.278C209.978 313.53 210.432 313.896 210.749 314.377C211.077 314.859 211.241 315.427 211.241 316.084C211.241 316.455 211.192 316.822 211.094 317.183C210.995 317.544 210.809 317.927 210.536 318.331C210.262 318.736 209.869 319.19 209.354 319.693L205.187 323.712L204.794 323.073H211.733V324.5H203.481Z" fill="#70548E"/>
<path d="M314.949 88.3377C315.988 88.3377 316.863 88.5619 317.574 89.0103C318.296 89.4588 318.843 90.1096 319.214 90.9627C319.586 91.8049 319.772 92.8385 319.772 94.0635C319.772 95.365 319.543 96.4642 319.083 97.3611C318.624 98.258 317.989 98.9361 317.18 99.3955C316.371 99.8549 315.425 100.085 314.342 100.085C313.806 100.085 313.286 100.03 312.783 99.9205C312.291 99.8111 311.859 99.6416 311.487 99.4119L312.111 98.1322C312.417 98.3291 312.756 98.4713 313.128 98.5588C313.511 98.6353 313.91 98.6736 314.325 98.6736C315.485 98.6736 316.409 98.3127 317.098 97.5908C317.787 96.858 318.132 95.7752 318.132 94.3424C318.132 94.1127 318.121 93.8392 318.099 93.5221C318.077 93.2049 318.028 92.8932 317.951 92.5869L318.493 93.1447C318.339 93.6478 318.082 94.0744 317.722 94.4244C317.372 94.7635 316.945 95.0205 316.442 95.1955C315.95 95.3596 315.408 95.4416 314.818 95.4416C314.063 95.4416 313.39 95.2994 312.8 95.015C312.209 94.7307 311.744 94.3314 311.405 93.8174C311.066 93.2924 310.897 92.6744 310.897 91.9635C310.897 91.2197 311.072 90.5799 311.422 90.0439C311.782 89.4971 312.269 89.076 312.882 88.7807C313.505 88.4853 314.194 88.3377 314.949 88.3377ZM315.014 89.6666C314.522 89.6666 314.085 89.7596 313.702 89.9455C313.319 90.1314 313.018 90.3885 312.8 90.7166C312.592 91.0447 312.488 91.4385 312.488 91.8978C312.488 92.576 312.723 93.1174 313.193 93.5221C313.664 93.9158 314.298 94.1127 315.097 94.1127C315.622 94.1127 316.081 94.0142 316.475 93.8174C316.879 93.6205 317.191 93.3525 317.41 93.0135C317.639 92.6744 317.754 92.2971 317.754 91.8814C317.754 91.4767 317.65 91.1103 317.443 90.7822C317.235 90.4541 316.929 90.1861 316.524 89.9783C316.119 89.7705 315.616 89.6666 315.014 89.6666Z" fill="#70548E"/>
<path d="M486.953 401.934C486.953 411.234 494.37 418.742 503.48 418.742C512.591 418.742 520.008 411.234 520.008 401.934C520.008 392.633 512.591 385.125 503.48 385.125C494.37 385.125 486.953 392.633 486.953 401.934Z" fill="#DACEE8" stroke="#FFCC00" stroke-width="2.34375"/>
<path d="M498.673 407.708V396.88L499.379 397.651H496.081V396.224H500.297V407.708H498.673ZM506.517 407.839C505.708 407.839 504.92 407.714 504.155 407.462C503.4 407.21 502.782 406.871 502.301 406.445L503.056 405.149C503.438 405.51 503.936 405.805 504.549 406.035C505.161 406.264 505.812 406.379 506.501 406.379C507.376 406.379 508.049 406.193 508.519 405.821C508.989 405.449 509.224 404.952 509.224 404.328C509.224 403.902 509.12 403.53 508.913 403.213C508.705 402.896 508.344 402.655 507.83 402.491C507.327 402.316 506.632 402.228 505.746 402.228H503.138L503.745 396.224H510.225V397.651H504.352L505.205 396.847L504.729 401.589L503.876 400.801H506.091C507.239 400.801 508.163 400.949 508.863 401.244C509.563 401.539 510.072 401.949 510.389 402.474C510.706 402.989 510.865 403.585 510.865 404.263C510.865 404.919 510.706 405.521 510.389 406.067C510.072 406.603 509.591 407.035 508.945 407.364C508.311 407.681 507.502 407.839 506.517 407.839Z" fill="#70548E"/>
<path d="M393.172 415.48C393.172 424.781 400.589 432.289 409.7 432.289C418.81 432.289 426.227 424.781 426.227 415.48C426.227 406.18 418.81 398.672 409.7 398.672C400.589 398.672 393.172 406.18 393.172 415.48Z" fill="#DACEE8" stroke="#70548E" stroke-width="2.34375"/>
<path d="M409.84 408.916C410.879 408.916 411.754 409.14 412.465 409.588C413.187 410.037 413.734 410.687 414.106 411.541C414.477 412.383 414.663 413.416 414.663 414.641C414.663 415.943 414.434 417.042 413.974 417.939C413.515 418.836 412.881 419.514 412.071 419.973C411.262 420.433 410.316 420.663 409.233 420.663C408.697 420.663 408.177 420.608 407.674 420.498C407.182 420.389 406.75 420.22 406.378 419.99L407.002 418.71C407.308 418.907 407.647 419.049 408.019 419.137C408.402 419.213 408.801 419.252 409.217 419.252C410.376 419.252 411.3 418.891 411.989 418.169C412.678 417.436 413.023 416.353 413.023 414.92C413.023 414.691 413.012 414.417 412.99 414.1C412.968 413.783 412.919 413.471 412.842 413.165L413.384 413.723C413.231 414.226 412.974 414.652 412.613 415.002C412.263 415.341 411.836 415.598 411.333 415.773C410.841 415.937 410.299 416.02 409.709 416.02C408.954 416.02 408.281 415.877 407.691 415.593C407.1 415.309 406.635 414.909 406.296 414.395C405.957 413.87 405.788 413.252 405.788 412.541C405.788 411.798 405.963 411.158 406.313 410.622C406.674 410.075 407.16 409.654 407.773 409.359C408.396 409.063 409.085 408.916 409.84 408.916ZM409.906 410.245C409.413 410.245 408.976 410.337 408.593 410.523C408.21 410.709 407.909 410.966 407.691 411.295C407.483 411.623 407.379 412.016 407.379 412.476C407.379 413.154 407.614 413.695 408.084 414.1C408.555 414.494 409.189 414.691 409.988 414.691C410.513 414.691 410.972 414.592 411.366 414.395C411.77 414.198 412.082 413.93 412.301 413.591C412.531 413.252 412.645 412.875 412.645 412.459C412.645 412.055 412.542 411.688 412.334 411.36C412.126 411.032 411.82 410.764 411.415 410.556C411.01 410.348 410.507 410.245 409.906 410.245Z" fill="#70548E"/>
<path d="M503.755 519.119C502.83 519.119 501.93 518.975 501.055 518.688C500.192 518.4 499.486 518.013 498.936 517.525L499.798 516.044C500.236 516.456 500.805 516.794 501.505 517.056C502.205 517.319 502.948 517.45 503.736 517.45C504.736 517.45 505.505 517.238 506.042 516.813C506.58 516.388 506.848 515.819 506.848 515.106C506.848 514.619 506.73 514.194 506.492 513.831C506.255 513.469 505.842 513.194 505.255 513.006C504.68 512.806 503.886 512.706 502.873 512.706H499.892L500.586 505.844H507.992V507.475H501.28L502.255 506.556L501.711 511.975L500.736 511.075H503.267C504.58 511.075 505.636 511.244 506.436 511.581C507.236 511.919 507.817 512.388 508.18 512.988C508.542 513.575 508.723 514.256 508.723 515.031C508.723 515.781 508.542 516.469 508.18 517.094C507.817 517.706 507.267 518.2 506.53 518.575C505.805 518.938 504.88 519.119 503.755 519.119Z" fill="#70548E"/>
<path d="M571.943 326.781V325.506L577.287 320.35C577.762 319.9 578.112 319.506 578.337 319.169C578.575 318.819 578.731 318.5 578.806 318.213C578.893 317.913 578.937 317.625 578.937 317.35C578.937 316.675 578.7 316.144 578.225 315.756C577.75 315.369 577.056 315.175 576.143 315.175C575.443 315.175 574.812 315.294 574.25 315.531C573.687 315.756 573.2 316.113 572.787 316.6L571.512 315.494C572.012 314.856 572.681 314.369 573.518 314.031C574.368 313.681 575.3 313.506 576.312 313.506C577.225 313.506 578.018 313.656 578.693 313.956C579.368 314.244 579.887 314.663 580.25 315.213C580.625 315.763 580.812 316.413 580.812 317.163C580.812 317.588 580.756 318.006 580.643 318.419C580.531 318.831 580.318 319.269 580.006 319.731C579.693 320.194 579.243 320.713 578.656 321.288L573.893 325.881L573.443 325.15H581.375V326.781H571.943ZM582.71 326.781V325.506L588.054 320.35C588.529 319.9 588.879 319.506 589.104 319.169C589.341 318.819 589.497 318.5 589.572 318.213C589.66 317.913 589.704 317.625 589.704 317.35C589.704 316.675 589.466 316.144 588.991 315.756C588.516 315.369 587.822 315.175 586.91 315.175C586.21 315.175 585.579 315.294 585.016 315.531C584.454 315.756 583.966 316.113 583.554 316.6L582.279 315.494C582.779 314.856 583.447 314.369 584.285 314.031C585.135 313.681 586.066 313.506 587.079 313.506C587.991 313.506 588.785 313.656 589.46 313.956C590.135 314.244 590.654 314.663 591.016 315.213C591.391 315.763 591.579 316.413 591.579 317.163C591.579 317.588 591.522 318.006 591.41 318.419C591.297 318.831 591.085 319.269 590.772 319.731C590.46 320.194 590.01 320.713 589.422 321.288L584.66 325.881L584.21 325.15H592.141V326.781H582.71Z" fill="#70548E"/>
<path d="M315.314 56.2282C314.252 56.2282 313.333 56.072 312.558 55.7595C311.783 55.447 311.183 55.0032 310.758 54.4282C310.333 53.8407 310.12 53.1532 310.12 52.3657C310.12 51.5907 310.32 50.9345 310.72 50.397C311.133 49.847 311.727 49.4345 312.502 49.1595C313.277 48.872 314.214 48.7282 315.314 48.7282C316.414 48.7282 317.352 48.872 318.127 49.1595C318.914 49.4345 319.514 49.847 319.927 50.397C320.339 50.947 320.545 51.6032 320.545 52.3657C320.545 53.1532 320.333 53.8407 319.908 54.4282C319.483 55.0032 318.877 55.447 318.089 55.7595C317.302 56.072 316.377 56.2282 315.314 56.2282ZM315.314 54.7095C316.364 54.7095 317.183 54.497 317.77 54.072C318.37 53.6345 318.67 53.047 318.67 52.3095C318.67 51.5845 318.37 51.0157 317.77 50.6032C317.183 50.1782 316.364 49.9657 315.314 49.9657C314.277 49.9657 313.464 50.1782 312.877 50.6032C312.289 51.0157 311.995 51.5845 311.995 52.3095C311.995 53.047 312.289 53.6345 312.877 54.072C313.464 54.497 314.277 54.7095 315.314 54.7095ZM315.314 49.7407C314.314 49.7407 313.464 49.6095 312.764 49.347C312.064 49.072 311.527 48.6845 311.152 48.1845C310.777 47.672 310.589 47.0657 310.589 46.3657C310.589 45.6282 310.783 44.997 311.17 44.472C311.57 43.9345 312.127 43.522 312.839 43.2345C313.552 42.947 314.377 42.8032 315.314 42.8032C316.264 42.8032 317.095 42.947 317.808 43.2345C318.52 43.522 319.077 43.9345 319.477 44.472C319.877 44.997 320.077 45.6282 320.077 46.3657C320.077 47.0657 319.889 47.672 319.514 48.1845C319.139 48.6845 318.595 49.072 317.883 49.347C317.17 49.6095 316.314 49.7407 315.314 49.7407ZM315.314 48.5407C316.227 48.5407 316.939 48.3532 317.452 47.9782C317.977 47.6032 318.239 47.0907 318.239 46.4407C318.239 45.7782 317.97 45.2595 317.433 44.8845C316.895 44.5095 316.189 44.322 315.314 44.322C314.439 44.322 313.739 44.5095 313.214 44.8845C312.702 45.2595 312.445 45.7782 312.445 46.4407C312.445 47.0907 312.695 47.6032 313.195 47.9782C313.708 48.3532 314.414 48.5407 315.314 48.5407Z" fill="#70548E"/>
<path d="M503.548 134.744C502.623 134.744 501.723 134.6 500.848 134.313C499.985 134.025 499.279 133.638 498.729 133.15L499.592 131.669C500.029 132.081 500.598 132.419 501.298 132.681C501.998 132.944 502.748 133.075 503.548 133.075C504.523 133.075 505.279 132.869 505.817 132.456C506.367 132.031 506.642 131.463 506.642 130.75C506.642 130.063 506.379 129.513 505.854 129.1C505.342 128.675 504.523 128.463 503.398 128.463H502.348V127.15L506.248 122.35L506.51 123.1H499.329V121.469H507.992V122.744L504.11 127.525L503.135 126.944H503.754C505.342 126.944 506.529 127.3 507.317 128.013C508.117 128.725 508.517 129.631 508.517 130.731C508.517 131.469 508.335 132.144 507.973 132.756C507.61 133.369 507.06 133.856 506.323 134.219C505.598 134.569 504.673 134.744 503.548 134.744Z" fill="#70548E"/>
<path d="M126.783 134.744C125.62 134.744 124.626 134.488 123.801 133.975C122.976 133.463 122.345 132.725 121.908 131.763C121.483 130.788 121.27 129.6 121.27 128.2C121.27 126.713 121.533 125.456 122.058 124.431C122.583 123.406 123.314 122.631 124.251 122.106C125.189 121.581 126.264 121.319 127.476 121.319C128.101 121.319 128.695 121.381 129.258 121.506C129.833 121.631 130.326 121.825 130.739 122.088L130.026 123.55C129.689 123.313 129.301 123.15 128.864 123.063C128.439 122.975 127.989 122.931 127.514 122.931C126.176 122.931 125.114 123.35 124.326 124.188C123.539 125.013 123.145 126.244 123.145 127.881C123.145 128.144 123.158 128.456 123.183 128.819C123.208 129.181 123.27 129.538 123.37 129.888L122.733 129.25C122.92 128.675 123.214 128.194 123.614 127.806C124.026 127.406 124.514 127.113 125.076 126.925C125.651 126.725 126.27 126.625 126.933 126.625C127.808 126.625 128.583 126.788 129.258 127.113C129.933 127.438 130.464 127.9 130.851 128.5C131.239 129.088 131.433 129.788 131.433 130.6C131.433 131.438 131.226 132.169 130.814 132.794C130.401 133.419 129.845 133.9 129.145 134.238C128.445 134.575 127.658 134.744 126.783 134.744ZM126.708 133.225C127.283 133.225 127.783 133.119 128.208 132.906C128.645 132.694 128.989 132.4 129.239 132.025C129.489 131.638 129.614 131.188 129.614 130.675C129.614 129.9 129.345 129.288 128.808 128.838C128.27 128.375 127.539 128.144 126.614 128.144C126.014 128.144 125.489 128.256 125.039 128.481C124.589 128.706 124.233 129.013 123.97 129.4C123.72 129.775 123.595 130.206 123.595 130.694C123.595 131.144 123.714 131.563 123.951 131.95C124.189 132.325 124.539 132.631 125.001 132.869C125.464 133.106 126.033 133.225 126.708 133.225Z" fill="#70548E"/>
<path d="M41.9971 326.781V314.406L42.8034 315.288H39.0346V313.656H43.8534V326.781H41.9971ZM52.2368 326.931C51.0743 326.931 50.0806 326.675 49.2556 326.163C48.4306 325.65 47.7993 324.913 47.3618 323.95C46.9368 322.975 46.7243 321.788 46.7243 320.388C46.7243 318.9 46.9868 317.644 47.5118 316.619C48.0368 315.594 48.7681 314.819 49.7056 314.294C50.6431 313.769 51.7181 313.506 52.9306 313.506C53.5556 313.506 54.1493 313.569 54.7118 313.694C55.2868 313.819 55.7806 314.013 56.1931 314.275L55.4806 315.738C55.1431 315.5 54.7556 315.338 54.3181 315.25C53.8931 315.163 53.4431 315.119 52.9681 315.119C51.6306 315.119 50.5681 315.538 49.7806 316.375C48.9931 317.2 48.5993 318.431 48.5993 320.069C48.5993 320.331 48.6118 320.644 48.6368 321.006C48.6618 321.369 48.7243 321.725 48.8243 322.075L48.1868 321.438C48.3743 320.863 48.6681 320.381 49.0681 319.994C49.4806 319.594 49.9681 319.3 50.5306 319.113C51.1056 318.913 51.7243 318.813 52.3868 318.813C53.2618 318.813 54.0368 318.975 54.7118 319.3C55.3868 319.625 55.9181 320.088 56.3056 320.688C56.6931 321.275 56.8868 321.975 56.8868 322.788C56.8868 323.625 56.6806 324.356 56.2681 324.981C55.8556 325.606 55.2993 326.088 54.5993 326.425C53.8993 326.763 53.1118 326.931 52.2368 326.931ZM52.1618 325.413C52.7368 325.413 53.2368 325.306 53.6618 325.094C54.0993 324.881 54.4431 324.588 54.6931 324.213C54.9431 323.825 55.0681 323.375 55.0681 322.863C55.0681 322.088 54.7993 321.475 54.2618 321.025C53.7243 320.563 52.9931 320.331 52.0681 320.331C51.4681 320.331 50.9431 320.444 50.4931 320.669C50.0431 320.894 49.6868 321.2 49.4243 321.588C49.1743 321.963 49.0493 322.394 49.0493 322.881C49.0493 323.331 49.1681 323.75 49.4056 324.138C49.6431 324.513 49.9931 324.819 50.4556 325.056C50.9181 325.294 51.4868 325.413 52.1618 325.413Z" fill="#70548E"/>
<path d="M126.642 519.119C125.579 519.119 124.66 518.963 123.885 518.65C123.11 518.338 122.51 517.894 122.085 517.319C121.66 516.731 121.448 516.044 121.448 515.256C121.448 514.481 121.648 513.825 122.048 513.288C122.46 512.738 123.054 512.325 123.829 512.05C124.604 511.763 125.542 511.619 126.642 511.619C127.742 511.619 128.679 511.763 129.454 512.05C130.242 512.325 130.842 512.738 131.254 513.288C131.667 513.838 131.873 514.494 131.873 515.256C131.873 516.044 131.66 516.731 131.235 517.319C130.81 517.894 130.204 518.338 129.417 518.65C128.629 518.963 127.704 519.119 126.642 519.119ZM126.642 517.6C127.692 517.6 128.51 517.388 129.098 516.963C129.698 516.525 129.998 515.938 129.998 515.2C129.998 514.475 129.698 513.906 129.098 513.494C128.51 513.069 127.692 512.856 126.642 512.856C125.604 512.856 124.792 513.069 124.204 513.494C123.617 513.906 123.323 514.475 123.323 515.2C123.323 515.938 123.617 516.525 124.204 516.963C124.792 517.388 125.604 517.6 126.642 517.6ZM126.642 512.631C125.642 512.631 124.792 512.5 124.092 512.238C123.392 511.963 122.854 511.575 122.479 511.075C122.104 510.563 121.917 509.956 121.917 509.256C121.917 508.519 122.11 507.888 122.498 507.363C122.898 506.825 123.454 506.413 124.167 506.125C124.879 505.838 125.704 505.694 126.642 505.694C127.592 505.694 128.423 505.838 129.135 506.125C129.848 506.413 130.404 506.825 130.804 507.363C131.204 507.888 131.404 508.519 131.404 509.256C131.404 509.956 131.217 510.563 130.842 511.075C130.467 511.575 129.923 511.963 129.21 512.238C128.498 512.5 127.642 512.631 126.642 512.631ZM126.642 511.431C127.554 511.431 128.267 511.244 128.779 510.869C129.304 510.494 129.567 509.981 129.567 509.331C129.567 508.669 129.298 508.15 128.76 507.775C128.223 507.4 127.517 507.213 126.642 507.213C125.767 507.213 125.067 507.4 124.542 507.775C124.029 508.15 123.773 508.669 123.773 509.331C123.773 509.981 124.023 510.494 124.523 510.869C125.035 511.244 125.742 511.431 126.642 511.431Z" fill="#70548E"/>
</g>
<defs>
<filter id="filter0_d_384_2539" x="0.625" y="0.75" width="628.125" height="637.5" filterUnits="userSpaceOnUse" color-interpolation-filters="sRGB">
<feFlood flood-opacity="0" result="BackgroundImageFix"/>
<feColorMatrix in="SourceAlpha" type="matrix" values="0 0 0 0 0 0 0 0 0 0 0 0 0 0 0 0 0 0 127 0" result="hardAlpha"/>
<feOffset/>
<feGaussianBlur stdDeviation="9.375"/>
<feComposite in2="hardAlpha" operator="out"/>
<feColorMatrix type="matrix" values="0 0 0 0 1 0 0 0 0 1 0 0 0 0 1 0 0 0 0.5 0"/>
<feBlend mode="normal" in2="BackgroundImageFix" result="effect1_dropShadow_384_2539"/>
<feBlend mode="normal" in="SourceGraphic" in2="effect1_dropShadow_384_2539" result="shape"/>
</filter>
<filter id="filter1_d_384_2539" x="392.5" y="302" width="129" height="131" filterUnits="userSpaceOnUse" color-interpolation-filters="sRGB">
<feFlood flood-opacity="0" result="BackgroundImageFix"/>
<feColorMatrix in="SourceAlpha" type="matrix" values="0 0 0 0 0 0 0 0 0 0 0 0 0 0 0 0 0 0 127 0" result="hardAlpha"/>
<feOffset/>
<feGaussianBlur stdDeviation="8"/>
<feComposite in2="hardAlpha" operator="out"/>
<feColorMatrix type="matrix" values="0 0 0 0 1 0 0 0 0 1 0 0 0 0 1 0 0 0 1 0"/>
<feBlend mode="normal" in2="BackgroundImageFix" result="effect1_dropShadow_384_2539"/>
<feBlend mode="normal" in="SourceGraphic" in2="effect1_dropShadow_384_2539" result="shape"/>
</filter>
<filter id="filter2_d_384_2539" x="493.5" y="310" width="20" height="101" filterUnits="userSpaceOnUse" color-interpolation-filters="sRGB">
<feFlood flood-opacity="0" result="BackgroundImageFix"/>
<feColorMatrix in="SourceAlpha" type="matrix" values="0 0 0 0 0 0 0 0 0 0 0 0 0 0 0 0 0 0 127 0" result="hardAlpha"/>
<feOffset/>
<feGaussianBlur stdDeviation="4"/>
<feComposite in2="hardAlpha" operator="out"/>
<feColorMatrix type="matrix" values="0 0 0 0 1 0 0 0 0 1 0 0 0 0 1 0 0 0 1 0"/>
<feBlend mode="normal" in2="BackgroundImageFix" result="effect1_dropShadow_384_2539"/>
<feBlend mode="normal" in="SourceGraphic" in2="effect1_dropShadow_384_2539" result="shape"/>
</filter>
<filter id="filter3_d_384_2539" x="392.5" y="384" width="129" height="49.0004" filterUnits="userSpaceOnUse" color-interpolation-filters="sRGB">
<feFlood flood-opacity="0" result="BackgroundImageFix"/>
<feColorMatrix in="SourceAlpha" type="matrix" values="0 0 0 0 0 0 0 0 0 0 0 0 0 0 0 0 0 0 127 0" result="hardAlpha"/>
<feOffset/>
<feGaussianBlur stdDeviation="8"/>
<feComposite in2="hardAlpha" operator="out"/>
<feColorMatrix type="matrix" values="0 0 0 0 1 0 0 0 0 1 0 0 0 0 1 0 0 0 1 0"/>
<feBlend mode="normal" in2="BackgroundImageFix" result="effect1_dropShadow_384_2539"/>
<feBlend mode="normal" in="SourceGraphic" in2="effect1_dropShadow_384_2539" result="shape"/>
</filter>
</defs>
</svg>
