<svg width="296" height="296" viewBox="0 0 296 296" fill="none" xmlns="http://www.w3.org/2000/svg">
<g clip-path="url(#clip0_263_4102)">
<mask id="path-3-inside-1_263_4102" fill="white">
<path d="M1 1H99V99H1V1Z"/>
</mask>
<path d="M1 1H99V99H1V1Z" fill="#DACEE8"/>
<path d="M99 98H1V100H99V98Z" fill="#3D274C" mask="url(#path-3-inside-1_263_4102)"/>
<path d="M29.62 39.85V39.03H33.37V39.85H29.62ZM30.52 35.92C31.0267 35.92 31.4933 36.01 31.92 36.19C32.3467 36.3633 32.7167 36.6133 33.03 36.94C33.35 37.26 33.5967 37.6367 33.77 38.07C33.95 38.5033 34.04 38.98 34.04 39.5C34.04 40.02 33.95 40.4967 33.77 40.93C33.5967 41.3633 33.35 41.7433 33.03 42.07C32.7167 42.39 32.3467 42.64 31.92 42.82C31.4933 42.9933 31.0267 43.08 30.52 43.08C29.96 43.08 29.4433 42.9867 28.97 42.8C28.5033 42.6133 28.11 42.34 27.79 41.98L28.42 41.35C28.7 41.6367 29.01 41.8467 29.35 41.98C29.6967 42.1133 30.07 42.18 30.47 42.18C30.8367 42.18 31.1767 42.1133 31.49 41.98C31.8033 41.8467 32.0733 41.6633 32.3 41.43C32.5333 41.19 32.7133 40.9067 32.84 40.58C32.9667 40.2467 33.03 39.8867 33.03 39.5C33.03 39.1133 32.9667 38.7567 32.84 38.43C32.7133 38.0967 32.5333 37.8133 32.3 37.58C32.0733 37.34 31.8033 37.1533 31.49 37.02C31.1767 36.8867 30.8367 36.82 30.47 36.82C30.07 36.82 29.6967 36.8867 29.35 37.02C29.01 37.1533 28.7 37.3633 28.42 37.65L27.79 37.02C28.11 36.66 28.5033 36.3867 28.97 36.2C29.4433 36.0133 29.96 35.92 30.52 35.92ZM35.5003 43V37.7H36.4603V39.95H39.4803V37.7H40.4403V43H39.4803V40.78H36.4603V43H35.5003ZM44.667 43.06C44.1003 43.06 43.6003 42.9433 43.167 42.71C42.7403 42.4767 42.407 42.1567 42.167 41.75C41.9336 41.3433 41.817 40.8767 41.817 40.35C41.817 39.8233 41.9303 39.3567 42.157 38.95C42.3903 38.5433 42.707 38.2267 43.107 38C43.5136 37.7667 43.9703 37.65 44.477 37.65C44.9903 37.65 45.4436 37.7633 45.837 37.99C46.2303 38.2167 46.537 38.5367 46.757 38.95C46.9836 39.3567 47.097 39.8333 47.097 40.38C47.097 40.42 47.0936 40.4667 47.087 40.52C47.087 40.5733 47.0836 40.6233 47.077 40.67H42.567V39.98H46.577L46.187 40.22C46.1936 39.88 46.1236 39.5767 45.977 39.31C45.8303 39.0433 45.627 38.8367 45.367 38.69C45.1136 38.5367 44.817 38.46 44.477 38.46C44.1436 38.46 43.847 38.5367 43.587 38.69C43.327 38.8367 43.1236 39.0467 42.977 39.32C42.8303 39.5867 42.757 39.8933 42.757 40.24V40.4C42.757 40.7533 42.837 41.07 42.997 41.35C43.1636 41.6233 43.3936 41.8367 43.687 41.99C43.9803 42.1433 44.317 42.22 44.697 42.22C45.0103 42.22 45.2936 42.1667 45.547 42.06C45.807 41.9533 46.0336 41.7933 46.227 41.58L46.757 42.2C46.517 42.48 46.217 42.6933 45.857 42.84C45.5036 42.9867 45.107 43.06 44.667 43.06ZM51.3963 43.06C50.9563 43.06 50.5529 42.96 50.1863 42.76C49.8263 42.5533 49.5363 42.25 49.3163 41.85C49.1029 41.45 48.9963 40.95 48.9963 40.35C48.9963 39.75 49.0996 39.25 49.3063 38.85C49.5196 38.45 49.8063 38.15 50.1663 37.95C50.5329 37.75 50.9429 37.65 51.3963 37.65C51.9163 37.65 52.3763 37.7633 52.7763 37.99C53.1763 38.2167 53.4929 38.5333 53.7263 38.94C53.9596 39.34 54.0763 39.81 54.0763 40.35C54.0763 40.89 53.9596 41.3633 53.7263 41.77C53.4929 42.1767 53.1763 42.4933 52.7763 42.72C52.3763 42.9467 51.9163 43.06 51.3963 43.06ZM48.5863 44.94V37.7H49.5063V39.13L49.4463 40.36L49.5463 41.59V44.94H48.5863ZM51.3163 42.22C51.6563 42.22 51.9596 42.1433 52.2263 41.99C52.4996 41.8367 52.7129 41.62 52.8663 41.34C53.0263 41.0533 53.1063 40.7233 53.1063 40.35C53.1063 39.97 53.0263 39.6433 52.8663 39.37C52.7129 39.09 52.4996 38.8733 52.2263 38.72C51.9596 38.5667 51.6563 38.49 51.3163 38.49C50.9829 38.49 50.6796 38.5667 50.4063 38.72C50.1396 38.8733 49.9263 39.09 49.7663 39.37C49.6129 39.6433 49.5363 39.97 49.5363 40.35C49.5363 40.7233 49.6129 41.0533 49.7663 41.34C49.9263 41.62 50.1396 41.8367 50.4063 41.99C50.6796 42.1433 50.9829 42.22 51.3163 42.22ZM55.471 43V37.7H59.371V38.54H56.201L56.431 38.32V43H55.471ZM60.3538 43V37.7H61.3138V41.56L64.5638 37.7H65.4338V43H64.4738V39.14L61.2338 43H60.3538ZM70.6872 43V41.14L70.8372 41.32H69.1472C68.4405 41.32 67.8872 41.17 67.4872 40.87C67.0939 40.57 66.8972 40.1333 66.8972 39.56C66.8972 38.9467 67.1072 38.4833 67.5272 38.17C67.9539 37.8567 68.5205 37.7 69.2272 37.7H71.5472V43H70.6872ZM66.8472 43L68.2872 40.97H69.2772L67.8772 43H66.8472ZM70.6872 40.84V38.27L70.8372 38.54H69.2572C68.8172 38.54 68.4772 38.6233 68.2372 38.79C67.9972 38.95 67.8772 39.2167 67.8772 39.59C67.8772 40.2833 68.3239 40.63 69.2172 40.63H70.8372L70.6872 40.84Z" fill="#3D274C"/>
<path d="M43.66 64V57.4L44.09 57.87H42.08V57H44.65V64H43.66ZM46.0712 64V63.32L48.9212 60.57C49.1745 60.33 49.3612 60.12 49.4812 59.94C49.6078 59.7533 49.6912 59.5833 49.7312 59.43C49.7778 59.27 49.8012 59.1167 49.8012 58.97C49.8012 58.61 49.6745 58.3267 49.4212 58.12C49.1678 57.9133 48.7978 57.81 48.3112 57.81C47.9378 57.81 47.6012 57.8733 47.3012 58C47.0012 58.12 46.7412 58.31 46.5212 58.57L45.8412 57.98C46.1078 57.64 46.4645 57.38 46.9112 57.2C47.3645 57.0133 47.8612 56.92 48.4012 56.92C48.8878 56.92 49.3112 57 49.6712 57.16C50.0312 57.3133 50.3078 57.5367 50.5012 57.83C50.7012 58.1233 50.8012 58.47 50.8012 58.87C50.8012 59.0967 50.7712 59.32 50.7112 59.54C50.6512 59.76 50.5378 59.9933 50.3712 60.24C50.2045 60.4867 49.9645 60.7633 49.6512 61.07L47.1112 63.52L46.8712 63.13H51.1012V64H46.0712ZM51.8134 64V63.32L54.6634 60.57C54.9167 60.33 55.1034 60.12 55.2234 59.94C55.35 59.7533 55.4334 59.5833 55.4734 59.43C55.52 59.27 55.5434 59.1167 55.5434 58.97C55.5434 58.61 55.4167 58.3267 55.1634 58.12C54.91 57.9133 54.54 57.81 54.0534 57.81C53.68 57.81 53.3434 57.8733 53.0434 58C52.7434 58.12 52.4834 58.31 52.2634 58.57L51.5834 57.98C51.85 57.64 52.2067 57.38 52.6534 57.2C53.1067 57.0133 53.6034 56.92 54.1434 56.92C54.63 56.92 55.0534 57 55.4134 57.16C55.7734 57.3133 56.05 57.5367 56.2434 57.83C56.4434 58.1233 56.5434 58.47 56.5434 58.87C56.5434 59.0967 56.5134 59.32 56.4534 59.54C56.3934 59.76 56.28 59.9933 56.1134 60.24C55.9467 60.4867 55.7067 60.7633 55.3934 61.07L52.8534 63.52L52.6134 63.13H56.8434V64H51.8134Z" fill="#3D274C"/>
<mask id="path-7-inside-2_263_4102" fill="white">
<path d="M99 1H197V99H99V1Z"/>
</mask>
<path d="M99 1H197V99H99V1Z" fill="#DACEE8"/>
<path d="M197 99V100H198V99H197ZM99 99H98V100H99V99ZM196 1V99H198V1H196ZM197 98H99V100H197V98ZM100 99V1H98V99H100Z" fill="#3D274C" mask="url(#path-7-inside-2_263_4102)"/>
<path d="M129.76 43.08C129.66 43.08 129.56 43.0733 129.46 43.06C129.36 43.0467 129.25 43.0267 129.13 43L129.2 42.11C129.307 42.1367 129.413 42.15 129.52 42.15C129.813 42.15 130.047 42.0333 130.22 41.8C130.393 41.5667 130.52 41.2133 130.6 40.74C130.687 40.2667 130.743 39.67 130.77 38.95L130.88 36H135.81V43H134.83V36.61L135.07 36.87H131.52L131.74 36.6L131.66 38.92C131.64 39.6133 131.593 40.22 131.52 40.74C131.447 41.26 131.337 41.6933 131.19 42.04C131.043 42.3867 130.853 42.6467 130.62 42.82C130.393 42.9933 130.107 43.08 129.76 43.08ZM140.1 43.06C139.567 43.06 139.094 42.9433 138.68 42.71C138.267 42.4767 137.94 42.1567 137.7 41.75C137.46 41.3367 137.34 40.87 137.34 40.35C137.34 39.8233 137.46 39.3567 137.7 38.95C137.94 38.5433 138.267 38.2267 138.68 38C139.094 37.7667 139.567 37.65 140.1 37.65C140.627 37.65 141.097 37.7667 141.51 38C141.93 38.2267 142.257 38.5433 142.49 38.95C142.73 39.35 142.85 39.8167 142.85 40.35C142.85 40.8767 142.73 41.3433 142.49 41.75C142.257 42.1567 141.93 42.4767 141.51 42.71C141.097 42.9433 140.627 43.06 140.1 43.06ZM140.1 42.22C140.44 42.22 140.744 42.1433 141.01 41.99C141.284 41.8367 141.497 41.62 141.65 41.34C141.804 41.0533 141.88 40.7233 141.88 40.35C141.88 39.97 141.804 39.6433 141.65 39.37C141.497 39.09 141.284 38.8733 141.01 38.72C140.744 38.5667 140.44 38.49 140.1 38.49C139.76 38.49 139.457 38.5667 139.19 38.72C138.924 38.8733 138.71 39.09 138.55 39.37C138.39 39.6433 138.31 39.97 138.31 40.35C138.31 40.7233 138.39 41.0533 138.55 41.34C138.71 41.62 138.924 41.8367 139.19 41.99C139.457 42.1433 139.76 42.22 140.1 42.22ZM144.237 43V37.7H148.137V38.54H144.967L145.197 38.32V43H144.237ZM149.119 43V37.7H150.079V41.56L153.329 37.7H154.199V43H153.239V39.14L149.999 43H149.119ZM159.903 43L157.853 40.42L158.643 39.94L161.033 43H159.903ZM156.063 43V37.7H157.023V43H156.063ZM156.733 40.76V39.94H158.483V40.76H156.733ZM158.723 40.46L157.833 40.34L159.863 37.7H160.893L158.723 40.46ZM165.192 43V41.88L165.142 41.67V39.76C165.142 39.3533 165.022 39.04 164.782 38.82C164.548 38.5933 164.195 38.48 163.722 38.48C163.408 38.48 163.102 38.5333 162.802 38.64C162.502 38.74 162.248 38.8767 162.042 39.05L161.642 38.33C161.915 38.11 162.242 37.9433 162.622 37.83C163.008 37.71 163.412 37.65 163.832 37.65C164.558 37.65 165.118 37.8267 165.512 38.18C165.905 38.5333 166.102 39.0733 166.102 39.8V43H165.192ZM163.452 43.06C163.058 43.06 162.712 42.9933 162.412 42.86C162.118 42.7267 161.892 42.5433 161.732 42.31C161.572 42.07 161.492 41.8 161.492 41.5C161.492 41.2133 161.558 40.9533 161.692 40.72C161.832 40.4867 162.055 40.3 162.362 40.16C162.675 40.02 163.095 39.95 163.622 39.95H165.302V40.64H163.662C163.182 40.64 162.858 40.72 162.692 40.88C162.525 41.04 162.442 41.2333 162.442 41.46C162.442 41.72 162.545 41.93 162.752 42.09C162.958 42.2433 163.245 42.32 163.612 42.32C163.972 42.32 164.285 42.24 164.552 42.08C164.825 41.92 165.022 41.6867 165.142 41.38L165.332 42.04C165.205 42.3533 164.982 42.6033 164.662 42.79C164.342 42.97 163.938 43.06 163.452 43.06Z" fill="#3D274C"/>
<path d="M141.66 64V57.4L142.09 57.87H140.08V57H142.65V64H141.66ZM144.071 64V63.32L146.921 60.57C147.175 60.33 147.361 60.12 147.481 59.94C147.608 59.7533 147.691 59.5833 147.731 59.43C147.778 59.27 147.801 59.1167 147.801 58.97C147.801 58.61 147.675 58.3267 147.421 58.12C147.168 57.9133 146.798 57.81 146.311 57.81C145.938 57.81 145.601 57.8733 145.301 58C145.001 58.12 144.741 58.31 144.521 58.57L143.841 57.98C144.108 57.64 144.465 57.38 144.911 57.2C145.365 57.0133 145.861 56.92 146.401 56.92C146.888 56.92 147.311 57 147.671 57.16C148.031 57.3133 148.308 57.5367 148.501 57.83C148.701 58.1233 148.801 58.47 148.801 58.87C148.801 59.0967 148.771 59.32 148.711 59.54C148.651 59.76 148.538 59.9933 148.371 60.24C148.205 60.4867 147.965 60.7633 147.651 61.07L145.111 63.52L144.871 63.13H149.101V64H144.071ZM149.813 64V63.32L152.663 60.57C152.917 60.33 153.103 60.12 153.223 59.94C153.35 59.7533 153.433 59.5833 153.473 59.43C153.52 59.27 153.543 59.1167 153.543 58.97C153.543 58.61 153.417 58.3267 153.163 58.12C152.91 57.9133 152.54 57.81 152.053 57.81C151.68 57.81 151.343 57.8733 151.043 58C150.743 58.12 150.483 58.31 150.263 58.57L149.583 57.98C149.85 57.64 150.207 57.38 150.653 57.2C151.107 57.0133 151.603 56.92 152.143 56.92C152.63 56.92 153.053 57 153.413 57.16C153.773 57.3133 154.05 57.5367 154.243 57.83C154.443 58.1233 154.543 58.47 154.543 58.87C154.543 59.0967 154.513 59.32 154.453 59.54C154.393 59.76 154.28 59.9933 154.113 60.24C153.947 60.4867 153.707 60.7633 153.393 61.07L150.853 63.52L150.613 63.13H154.843V64H149.813Z" fill="#3D274C"/>
<mask id="path-11-inside-3_263_4102" fill="white">
<path d="M197 1H295V99H197V1Z"/>
</mask>
<path d="M197 1H295V99H197V1Z" fill="#DACEE8"/>
<path d="M295 98H197V100H295V98Z" fill="#3D274C" mask="url(#path-11-inside-3_263_4102)"/>
<path d="M238.74 42.53V36.87H235.67L235.62 38.34C235.6 38.8333 235.567 39.3067 235.52 39.76C235.48 40.2133 235.42 40.6233 235.34 40.99C235.26 41.35 235.147 41.6467 235 41.88C234.86 42.1133 234.68 42.2567 234.46 42.31L233.38 42.13C233.64 42.15 233.853 42.0633 234.02 41.87C234.193 41.67 234.327 41.3933 234.42 41.04C234.52 40.68 234.593 40.2633 234.64 39.79C234.687 39.31 234.72 38.7967 234.74 38.25L234.81 36H239.73V42.53H238.74ZM233.13 44.53L233.14 42.13H240.76V44.53H239.83V43H234.07L234.06 44.53H233.13ZM244.12 43.06C243.587 43.06 243.113 42.9433 242.7 42.71C242.287 42.4767 241.96 42.1567 241.72 41.75C241.48 41.3367 241.36 40.87 241.36 40.35C241.36 39.8233 241.48 39.3567 241.72 38.95C241.96 38.5433 242.287 38.2267 242.7 38C243.113 37.7667 243.587 37.65 244.12 37.65C244.647 37.65 245.117 37.7667 245.53 38C245.95 38.2267 246.277 38.5433 246.51 38.95C246.75 39.35 246.87 39.8167 246.87 40.35C246.87 40.8767 246.75 41.3433 246.51 41.75C246.277 42.1567 245.95 42.4767 245.53 42.71C245.117 42.9433 244.647 43.06 244.12 43.06ZM244.12 42.22C244.46 42.22 244.763 42.1433 245.03 41.99C245.303 41.8367 245.517 41.62 245.67 41.34C245.823 41.0533 245.9 40.7233 245.9 40.35C245.9 39.97 245.823 39.6433 245.67 39.37C245.517 39.09 245.303 38.8733 245.03 38.72C244.763 38.5667 244.46 38.49 244.12 38.49C243.78 38.49 243.477 38.5667 243.21 38.72C242.943 38.8733 242.73 39.09 242.57 39.37C242.41 39.6433 242.33 39.97 242.33 40.35C242.33 40.7233 242.41 41.0533 242.57 41.34C242.73 41.62 242.943 41.8367 243.21 41.99C243.477 42.1433 243.78 42.22 244.12 42.22ZM247.337 42.99L247.397 42.18C247.444 42.1867 247.487 42.1933 247.527 42.2C247.567 42.2067 247.604 42.21 247.637 42.21C247.85 42.21 248.017 42.1367 248.137 41.99C248.264 41.8433 248.357 41.65 248.417 41.41C248.477 41.1633 248.52 40.8867 248.547 40.58C248.574 40.2733 248.594 39.9667 248.607 39.66L248.697 37.7H252.767V43H251.807V38.26L252.037 38.54H249.317L249.537 38.25L249.467 39.72C249.447 40.1867 249.41 40.6233 249.357 41.03C249.304 41.4367 249.22 41.7933 249.107 42.1C249 42.4067 248.85 42.6467 248.657 42.82C248.47 42.9933 248.227 43.08 247.927 43.08C247.84 43.08 247.747 43.07 247.647 43.05C247.554 43.0367 247.45 43.0167 247.337 42.99ZM254.623 43V37.7H258.523V38.54H255.353L255.583 38.32V43H254.623Z" fill="#3D274C"/>
<path d="M239.66 64V57.4L240.09 57.87H238.08V57H240.65V64H239.66ZM242.071 64V63.32L244.921 60.57C245.175 60.33 245.361 60.12 245.481 59.94C245.608 59.7533 245.691 59.5833 245.731 59.43C245.778 59.27 245.801 59.1167 245.801 58.97C245.801 58.61 245.675 58.3267 245.421 58.12C245.168 57.9133 244.798 57.81 244.311 57.81C243.938 57.81 243.601 57.8733 243.301 58C243.001 58.12 242.741 58.31 242.521 58.57L241.841 57.98C242.108 57.64 242.465 57.38 242.911 57.2C243.365 57.0133 243.861 56.92 244.401 56.92C244.888 56.92 245.311 57 245.671 57.16C246.031 57.3133 246.308 57.5367 246.501 57.83C246.701 58.1233 246.801 58.47 246.801 58.87C246.801 59.0967 246.771 59.32 246.711 59.54C246.651 59.76 246.538 59.9933 246.371 60.24C246.205 60.4867 245.965 60.7633 245.651 61.07L243.111 63.52L242.871 63.13H247.101V64H242.071ZM247.813 64V63.32L250.663 60.57C250.917 60.33 251.103 60.12 251.223 59.94C251.35 59.7533 251.433 59.5833 251.473 59.43C251.52 59.27 251.543 59.1167 251.543 58.97C251.543 58.61 251.417 58.3267 251.163 58.12C250.91 57.9133 250.54 57.81 250.053 57.81C249.68 57.81 249.343 57.8733 249.043 58C248.743 58.12 248.483 58.31 248.263 58.57L247.583 57.98C247.85 57.64 248.207 57.38 248.653 57.2C249.107 57.0133 249.603 56.92 250.143 56.92C250.63 56.92 251.053 57 251.413 57.16C251.773 57.3133 252.05 57.5367 252.243 57.83C252.443 58.1233 252.543 58.47 252.543 58.87C252.543 59.0967 252.513 59.32 252.453 59.54C252.393 59.76 252.28 59.9933 252.113 60.24C251.947 60.4867 251.707 60.7633 251.393 61.07L248.853 63.52L248.613 63.13H252.843V64H247.813Z" fill="#3D274C"/>
<mask id="path-15-inside-4_263_4102" fill="white">
<path d="M1 99H99V197H1V99Z"/>
</mask>
<path d="M1 99H99V197H1V99Z" fill="#DACEE8"/>
<path d="M99 196H1V198H99V196Z" fill="#3D274C" mask="url(#path-15-inside-4_263_4102)"/>
<path d="M28.59 141V134H29.58V139.4L33.72 134H34.64V141H33.66V135.61L29.51 141H28.59ZM36.6624 141V135.7H37.6224V137.95H40.6424V135.7H41.6024V141H40.6424V138.78H37.6224V141H36.6624ZM44.5191 141V136.29L44.7591 136.54H42.5791V135.7H47.4191V136.54H45.2491L45.4791 136.29V141H44.5191ZM50.5263 141.06C49.9597 141.06 49.4597 140.943 49.0263 140.71C48.5997 140.477 48.2663 140.157 48.0263 139.75C47.793 139.343 47.6763 138.877 47.6763 138.35C47.6763 137.823 47.7897 137.357 48.0163 136.95C48.2497 136.543 48.5663 136.227 48.9663 136C49.373 135.767 49.8297 135.65 50.3363 135.65C50.8497 135.65 51.303 135.763 51.6963 135.99C52.0897 136.217 52.3963 136.537 52.6163 136.95C52.843 137.357 52.9563 137.833 52.9563 138.38C52.9563 138.42 52.953 138.467 52.9463 138.52C52.9463 138.573 52.943 138.623 52.9363 138.67H48.4263V137.98H52.4363L52.0463 138.22C52.053 137.88 51.983 137.577 51.8363 137.31C51.6897 137.043 51.4863 136.837 51.2263 136.69C50.973 136.537 50.6763 136.46 50.3363 136.46C50.003 136.46 49.7063 136.537 49.4463 136.69C49.1863 136.837 48.983 137.047 48.8363 137.32C48.6897 137.587 48.6163 137.893 48.6163 138.24V138.4C48.6163 138.753 48.6963 139.07 48.8563 139.35C49.023 139.623 49.253 139.837 49.5463 139.99C49.8397 140.143 50.1763 140.22 50.5563 140.22C50.8697 140.22 51.153 140.167 51.4063 140.06C51.6663 139.953 51.893 139.793 52.0863 139.58L52.6163 140.2C52.3763 140.48 52.0763 140.693 51.7163 140.84C51.363 140.987 50.9663 141.06 50.5263 141.06ZM57.2556 141.06C56.8156 141.06 56.4123 140.96 56.0456 140.76C55.6856 140.553 55.3956 140.25 55.1756 139.85C54.9623 139.45 54.8556 138.95 54.8556 138.35C54.8556 137.75 54.959 137.25 55.1656 136.85C55.379 136.45 55.6656 136.15 56.0256 135.95C56.3923 135.75 56.8023 135.65 57.2556 135.65C57.7756 135.65 58.2356 135.763 58.6356 135.99C59.0356 136.217 59.3523 136.533 59.5856 136.94C59.819 137.34 59.9356 137.81 59.9356 138.35C59.9356 138.89 59.819 139.363 59.5856 139.77C59.3523 140.177 59.0356 140.493 58.6356 140.72C58.2356 140.947 57.7756 141.06 57.2556 141.06ZM54.4456 142.94V135.7H55.3656V137.13L55.3056 138.36L55.4056 139.59V142.94H54.4456ZM57.1756 140.22C57.5156 140.22 57.819 140.143 58.0856 139.99C58.359 139.837 58.5723 139.62 58.7256 139.34C58.8856 139.053 58.9656 138.723 58.9656 138.35C58.9656 137.97 58.8856 137.643 58.7256 137.37C58.5723 137.09 58.359 136.873 58.0856 136.72C57.819 136.567 57.5156 136.49 57.1756 136.49C56.8423 136.49 56.539 136.567 56.2656 136.72C55.999 136.873 55.7856 137.09 55.6256 137.37C55.4723 137.643 55.3956 137.97 55.3956 138.35C55.3956 138.723 55.4723 139.053 55.6256 139.34C55.7856 139.62 55.999 139.837 56.2656 139.99C56.539 140.143 56.8423 140.22 57.1756 140.22ZM63.6904 141.06C63.1237 141.06 62.6237 140.943 62.1904 140.71C61.7637 140.477 61.4304 140.157 61.1904 139.75C60.9571 139.343 60.8404 138.877 60.8404 138.35C60.8404 137.823 60.9537 137.357 61.1804 136.95C61.4137 136.543 61.7304 136.227 62.1304 136C62.5371 135.767 62.9937 135.65 63.5004 135.65C64.0137 135.65 64.4671 135.763 64.8604 135.99C65.2537 136.217 65.5604 136.537 65.7804 136.95C66.0071 137.357 66.1204 137.833 66.1204 138.38C66.1204 138.42 66.1171 138.467 66.1104 138.52C66.1104 138.573 66.1071 138.623 66.1004 138.67H61.5904V137.98H65.6004L65.2104 138.22C65.2171 137.88 65.1471 137.577 65.0004 137.31C64.8537 137.043 64.6504 136.837 64.3904 136.69C64.1371 136.537 63.8404 136.46 63.5004 136.46C63.1671 136.46 62.8704 136.537 62.6104 136.69C62.3504 136.837 62.1471 137.047 62.0004 137.32C61.8537 137.587 61.7804 137.893 61.7804 138.24V138.4C61.7804 138.753 61.8604 139.07 62.0204 139.35C62.1871 139.623 62.4171 139.837 62.7104 139.99C63.0037 140.143 63.3404 140.22 63.7204 140.22C64.0337 140.22 64.3171 140.167 64.5704 140.06C64.8304 139.953 65.0571 139.793 65.2504 139.58L65.7804 140.2C65.5404 140.48 65.2404 140.693 64.8804 140.84C64.5271 140.987 64.1304 141.06 63.6904 141.06ZM69.9197 141.06C69.3797 141.06 68.8964 140.943 68.4697 140.71C68.0497 140.477 67.7197 140.157 67.4797 139.75C67.2397 139.343 67.1197 138.877 67.1197 138.35C67.1197 137.823 67.2397 137.357 67.4797 136.95C67.7197 136.543 68.0497 136.227 68.4697 136C68.8964 135.767 69.3797 135.65 69.9197 135.65C70.3997 135.65 70.8264 135.747 71.1997 135.94C71.5797 136.127 71.873 136.407 72.0797 136.78L71.3497 137.25C71.1764 136.99 70.963 136.8 70.7097 136.68C70.463 136.553 70.1964 136.49 69.9097 136.49C69.563 136.49 69.253 136.567 68.9797 136.72C68.7064 136.873 68.4897 137.09 68.3297 137.37C68.1697 137.643 68.0897 137.97 68.0897 138.35C68.0897 138.73 68.1697 139.06 68.3297 139.34C68.4897 139.62 68.7064 139.837 68.9797 139.99C69.253 140.143 69.563 140.22 69.9097 140.22C70.1964 140.22 70.463 140.16 70.7097 140.04C70.963 139.913 71.1764 139.72 71.3497 139.46L72.0797 139.92C71.873 140.287 71.5797 140.57 71.1997 140.77C70.8264 140.963 70.3997 141.06 69.9197 141.06Z" fill="#3D274C"/>
<path d="M43.66 162V155.4L44.09 155.87H42.08V155H44.65V162H43.66ZM46.0712 162V161.32L48.9212 158.57C49.1745 158.33 49.3612 158.12 49.4812 157.94C49.6078 157.753 49.6912 157.583 49.7312 157.43C49.7778 157.27 49.8012 157.117 49.8012 156.97C49.8012 156.61 49.6745 156.327 49.4212 156.12C49.1678 155.913 48.7978 155.81 48.3112 155.81C47.9378 155.81 47.6012 155.873 47.3012 156C47.0012 156.12 46.7412 156.31 46.5212 156.57L45.8412 155.98C46.1078 155.64 46.4645 155.38 46.9112 155.2C47.3645 155.013 47.8612 154.92 48.4012 154.92C48.8878 154.92 49.3112 155 49.6712 155.16C50.0312 155.313 50.3078 155.537 50.5012 155.83C50.7012 156.123 50.8012 156.47 50.8012 156.87C50.8012 157.097 50.7712 157.32 50.7112 157.54C50.6512 157.76 50.5378 157.993 50.3712 158.24C50.2045 158.487 49.9645 158.763 49.6512 159.07L47.1112 161.52L46.8712 161.13H51.1012V162H46.0712ZM51.8134 162V161.32L54.6634 158.57C54.9167 158.33 55.1034 158.12 55.2234 157.94C55.35 157.753 55.4334 157.583 55.4734 157.43C55.52 157.27 55.5434 157.117 55.5434 156.97C55.5434 156.61 55.4167 156.327 55.1634 156.12C54.91 155.913 54.54 155.81 54.0534 155.81C53.68 155.81 53.3434 155.873 53.0434 156C52.7434 156.12 52.4834 156.31 52.2634 156.57L51.5834 155.98C51.85 155.64 52.2067 155.38 52.6534 155.2C53.1067 155.013 53.6034 154.92 54.1434 154.92C54.63 154.92 55.0534 155 55.4134 155.16C55.7734 155.313 56.05 155.537 56.2434 155.83C56.4434 156.123 56.5434 156.47 56.5434 156.87C56.5434 157.097 56.5134 157.32 56.4534 157.54C56.3934 157.76 56.28 157.993 56.1134 158.24C55.9467 158.487 55.7067 158.763 55.3934 159.07L52.8534 161.52L52.6134 161.13H56.8434V162H51.8134Z" fill="#3D274C"/>
<mask id="path-19-inside-5_263_4102" fill="white">
<path d="M99 99H197V197H99V99Z"/>
</mask>
<path d="M99 99H197V197H99V99Z" fill="#DACEE8"/>
<path d="M197 197V198H198V197H197ZM99 197H98V198H99V197ZM196 99V197H198V99H196ZM197 196H99V198H197V196ZM100 197V99H98V197H100Z" fill="#3D274C" mask="url(#path-19-inside-5_263_4102)"/>
<path d="M138.02 141V134.61L138.27 134.87H135.63V134H141.4V134.87H138.76L139 134.61V141H138.02ZM145.138 141.06C144.698 141.06 144.295 140.96 143.928 140.76C143.568 140.553 143.278 140.25 143.058 139.85C142.845 139.45 142.738 138.95 142.738 138.35C142.738 137.75 142.842 137.25 143.048 136.85C143.262 136.45 143.548 136.15 143.908 135.95C144.275 135.75 144.685 135.65 145.138 135.65C145.658 135.65 146.118 135.763 146.518 135.99C146.918 136.217 147.235 136.533 147.468 136.94C147.702 137.34 147.818 137.81 147.818 138.35C147.818 138.89 147.702 139.363 147.468 139.77C147.235 140.177 146.918 140.493 146.518 140.72C146.118 140.947 145.658 141.06 145.138 141.06ZM142.328 142.94V135.7H143.248V137.13L143.188 138.36L143.288 139.59V142.94H142.328ZM145.058 140.22C145.398 140.22 145.702 140.143 145.968 139.99C146.242 139.837 146.455 139.62 146.608 139.34C146.768 139.053 146.848 138.723 146.848 138.35C146.848 137.97 146.768 137.643 146.608 137.37C146.455 137.09 146.242 136.873 145.968 136.72C145.702 136.567 145.398 136.49 145.058 136.49C144.725 136.49 144.422 136.567 144.148 136.72C143.882 136.873 143.668 137.09 143.508 137.37C143.355 137.643 143.278 137.97 143.278 138.35C143.278 138.723 143.355 139.053 143.508 139.34C143.668 139.62 143.882 139.837 144.148 139.99C144.422 140.143 144.725 140.22 145.058 140.22ZM149.337 143C149.083 143 148.837 142.957 148.597 142.87C148.357 142.79 148.15 142.67 147.977 142.51L148.387 141.79C148.52 141.917 148.667 142.013 148.827 142.08C148.987 142.147 149.157 142.18 149.337 142.18C149.57 142.18 149.763 142.12 149.917 142C150.07 141.88 150.213 141.667 150.347 141.36L150.677 140.63L150.777 140.51L152.857 135.7H153.797L151.227 141.53C151.073 141.903 150.9 142.197 150.707 142.41C150.52 142.623 150.313 142.773 150.087 142.86C149.86 142.953 149.61 143 149.337 143ZM150.597 141.17L148.177 135.7H149.177L151.237 140.42L150.597 141.17ZM158.126 140.55V136.54H155.826L155.776 137.56C155.763 137.893 155.74 138.217 155.706 138.53C155.68 138.837 155.633 139.12 155.566 139.38C155.506 139.64 155.416 139.853 155.296 140.02C155.176 140.187 155.016 140.29 154.816 140.33L153.866 140.16C154.073 140.167 154.24 140.1 154.366 139.96C154.493 139.813 154.59 139.613 154.656 139.36C154.73 139.107 154.783 138.82 154.816 138.5C154.85 138.173 154.876 137.837 154.896 137.49L154.976 135.7H159.086V140.55H158.126ZM153.656 142.23V140.16H159.896V142.23H158.996V141H154.566V142.23H153.656Z" fill="#3D274C"/>
<path d="M141.66 162V155.4L142.09 155.87H140.08V155H142.65V162H141.66ZM144.071 162V161.32L146.921 158.57C147.175 158.33 147.361 158.12 147.481 157.94C147.608 157.753 147.691 157.583 147.731 157.43C147.778 157.27 147.801 157.117 147.801 156.97C147.801 156.61 147.675 156.327 147.421 156.12C147.168 155.913 146.798 155.81 146.311 155.81C145.938 155.81 145.601 155.873 145.301 156C145.001 156.12 144.741 156.31 144.521 156.57L143.841 155.98C144.108 155.64 144.465 155.38 144.911 155.2C145.365 155.013 145.861 154.92 146.401 154.92C146.888 154.92 147.311 155 147.671 155.16C148.031 155.313 148.308 155.537 148.501 155.83C148.701 156.123 148.801 156.47 148.801 156.87C148.801 157.097 148.771 157.32 148.711 157.54C148.651 157.76 148.538 157.993 148.371 158.24C148.205 158.487 147.965 158.763 147.651 159.07L145.111 161.52L144.871 161.13H149.101V162H144.071ZM149.813 162V161.32L152.663 158.57C152.917 158.33 153.103 158.12 153.223 157.94C153.35 157.753 153.433 157.583 153.473 157.43C153.52 157.27 153.543 157.117 153.543 156.97C153.543 156.61 153.417 156.327 153.163 156.12C152.91 155.913 152.54 155.81 152.053 155.81C151.68 155.81 151.343 155.873 151.043 156C150.743 156.12 150.483 156.31 150.263 156.57L149.583 155.98C149.85 155.64 150.207 155.38 150.653 155.2C151.107 155.013 151.603 154.92 152.143 154.92C152.63 154.92 153.053 155 153.413 155.16C153.773 155.313 154.05 155.537 154.243 155.83C154.443 156.123 154.543 156.47 154.543 156.87C154.543 157.097 154.513 157.32 154.453 157.54C154.393 157.76 154.28 157.993 154.113 158.24C153.947 158.487 153.707 158.763 153.393 159.07L150.853 161.52L150.613 161.13H154.843V162H149.813Z" fill="#3D274C"/>
<mask id="path-23-inside-6_263_4102" fill="white">
<path d="M197 99H295V197H197V99Z"/>
</mask>
<path d="M197 99H295V197H197V99Z" fill="#DACEE8"/>
<path d="M295 196H197V198H295V196Z" fill="#3D274C" mask="url(#path-23-inside-6_263_4102)"/>
<path d="M227.59 141V134H233.62V141H232.64V134.61L232.88 134.87H228.33L228.58 134.61V141H227.59ZM238.893 141V139.88L238.843 139.67V137.76C238.843 137.353 238.723 137.04 238.483 136.82C238.25 136.593 237.896 136.48 237.423 136.48C237.11 136.48 236.803 136.533 236.503 136.64C236.203 136.74 235.95 136.877 235.743 137.05L235.343 136.33C235.616 136.11 235.943 135.943 236.323 135.83C236.71 135.71 237.113 135.65 237.533 135.65C238.26 135.65 238.82 135.827 239.213 136.18C239.606 136.533 239.803 137.073 239.803 137.8V141H238.893ZM237.153 141.06C236.76 141.06 236.413 140.993 236.113 140.86C235.82 140.727 235.593 140.543 235.433 140.31C235.273 140.07 235.193 139.8 235.193 139.5C235.193 139.213 235.26 138.953 235.393 138.72C235.533 138.487 235.756 138.3 236.063 138.16C236.376 138.02 236.796 137.95 237.323 137.95H239.003V138.64H237.363C236.883 138.64 236.56 138.72 236.393 138.88C236.226 139.04 236.143 139.233 236.143 139.46C236.143 139.72 236.246 139.93 236.453 140.09C236.66 140.243 236.946 140.32 237.313 140.32C237.673 140.32 237.986 140.24 238.253 140.08C238.526 139.92 238.723 139.687 238.843 139.38L239.033 140.04C238.906 140.353 238.683 140.603 238.363 140.79C238.043 140.97 237.64 141.06 237.153 141.06ZM241.532 141V135.7H242.522L244.802 139.62H244.402L246.742 135.7H247.642V141H246.772V136.78L246.932 136.87L244.792 140.4H244.372L242.222 136.8L242.412 136.76V141H241.532ZM252.9 141V139.14L253.05 139.32H251.36C250.653 139.32 250.1 139.17 249.7 138.87C249.307 138.57 249.11 138.133 249.11 137.56C249.11 136.947 249.32 136.483 249.74 136.17C250.167 135.857 250.733 135.7 251.44 135.7H253.76V141H252.9ZM249.06 141L250.5 138.97H251.49L250.09 141H249.06ZM252.9 138.84V136.27L253.05 136.54H251.47C251.03 136.54 250.69 136.623 250.45 136.79C250.21 136.95 250.09 137.217 250.09 137.59C250.09 138.283 250.537 138.63 251.43 138.63H253.05L252.9 138.84ZM256.683 141V136.29L256.923 136.54H254.743V135.7H259.583V136.54H257.413L257.643 136.29V141H256.683ZM263.015 137.5C263.688 137.507 264.201 137.66 264.555 137.96C264.908 138.26 265.085 138.683 265.085 139.23C265.085 139.803 264.891 140.247 264.505 140.56C264.118 140.867 263.571 141.017 262.865 141.01L260.565 141V135.7H261.525V137.49L263.015 137.5ZM262.785 140.28C263.218 140.287 263.545 140.2 263.765 140.02C263.991 139.84 264.105 139.573 264.105 139.22C264.105 138.873 263.995 138.62 263.775 138.46C263.555 138.3 263.225 138.217 262.785 138.21L261.525 138.19V140.27L262.785 140.28Z" fill="#3D274C"/>
<path d="M239.66 162V155.4L240.09 155.87H238.08V155H240.65V162H239.66ZM242.071 162V161.32L244.921 158.57C245.175 158.33 245.361 158.12 245.481 157.94C245.608 157.753 245.691 157.583 245.731 157.43C245.778 157.27 245.801 157.117 245.801 156.97C245.801 156.61 245.675 156.327 245.421 156.12C245.168 155.913 244.798 155.81 244.311 155.81C243.938 155.81 243.601 155.873 243.301 156C243.001 156.12 242.741 156.31 242.521 156.57L241.841 155.98C242.108 155.64 242.465 155.38 242.911 155.2C243.365 155.013 243.861 154.92 244.401 154.92C244.888 154.92 245.311 155 245.671 155.16C246.031 155.313 246.308 155.537 246.501 155.83C246.701 156.123 246.801 156.47 246.801 156.87C246.801 157.097 246.771 157.32 246.711 157.54C246.651 157.76 246.538 157.993 246.371 158.24C246.205 158.487 245.965 158.763 245.651 159.07L243.111 161.52L242.871 161.13H247.101V162H242.071ZM247.813 162V161.32L250.663 158.57C250.917 158.33 251.103 158.12 251.223 157.94C251.35 157.753 251.433 157.583 251.473 157.43C251.52 157.27 251.543 157.117 251.543 156.97C251.543 156.61 251.417 156.327 251.163 156.12C250.91 155.913 250.54 155.81 250.053 155.81C249.68 155.81 249.343 155.873 249.043 156C248.743 156.12 248.483 156.31 248.263 156.57L247.583 155.98C247.85 155.64 248.207 155.38 248.653 155.2C249.107 155.013 249.603 154.92 250.143 154.92C250.63 154.92 251.053 155 251.413 155.16C251.773 155.313 252.05 155.537 252.243 155.83C252.443 156.123 252.543 156.47 252.543 156.87C252.543 157.097 252.513 157.32 252.453 157.54C252.393 157.76 252.28 157.993 252.113 158.24C251.947 158.487 251.707 158.763 251.393 159.07L248.853 161.52L248.613 161.13H252.843V162H247.813Z" fill="#3D274C"/>
<rect width="98" height="98" transform="translate(1 197)" fill="#DACEE8"/>
<path d="M21.22 239.08C20.6867 239.08 20.1933 238.993 19.74 238.82C19.2933 238.64 18.9033 238.39 18.57 238.07C18.2433 237.743 17.9867 237.363 17.8 236.93C17.6133 236.497 17.52 236.02 17.52 235.5C17.52 234.98 17.6133 234.503 17.8 234.07C17.9867 233.637 18.2467 233.26 18.58 232.94C18.9133 232.613 19.3033 232.363 19.75 232.19C20.2033 232.01 20.6967 231.92 21.23 231.92C21.77 231.92 22.2667 232.013 22.72 232.2C23.18 232.38 23.57 232.65 23.89 233.01L23.24 233.64C22.9733 233.36 22.6733 233.153 22.34 233.02C22.0067 232.88 21.65 232.81 21.27 232.81C20.8767 232.81 20.51 232.877 20.17 233.01C19.8367 233.143 19.5467 233.33 19.3 233.57C19.0533 233.81 18.86 234.097 18.72 234.43C18.5867 234.757 18.52 235.113 18.52 235.5C18.52 235.887 18.5867 236.247 18.72 236.58C18.86 236.907 19.0533 237.19 19.3 237.43C19.5467 237.67 19.8367 237.857 20.17 237.99C20.51 238.123 20.8767 238.19 21.27 238.19C21.65 238.19 22.0067 238.123 22.34 237.99C22.6733 237.85 22.9733 237.637 23.24 237.35L23.89 237.98C23.57 238.34 23.18 238.613 22.72 238.8C22.2667 238.987 21.7667 239.08 21.22 239.08ZM28.2894 239V237.88L28.2394 237.67V235.76C28.2394 235.353 28.1194 235.04 27.8794 234.82C27.646 234.593 27.2927 234.48 26.8194 234.48C26.506 234.48 26.1994 234.533 25.8994 234.64C25.5994 234.74 25.346 234.877 25.1394 235.05L24.7394 234.33C25.0127 234.11 25.3394 233.943 25.7194 233.83C26.106 233.71 26.5094 233.65 26.9294 233.65C27.656 233.65 28.216 233.827 28.6094 234.18C29.0027 234.533 29.1994 235.073 29.1994 235.8V239H28.2894ZM26.5494 239.06C26.156 239.06 25.8094 238.993 25.5094 238.86C25.216 238.727 24.9894 238.543 24.8294 238.31C24.6694 238.07 24.5894 237.8 24.5894 237.5C24.5894 237.213 24.656 236.953 24.7894 236.72C24.9294 236.487 25.1527 236.3 25.4594 236.16C25.7727 236.02 26.1927 235.95 26.7194 235.95H28.3994V236.64H26.7594C26.2794 236.64 25.956 236.72 25.7894 236.88C25.6227 237.04 25.5394 237.233 25.5394 237.46C25.5394 237.72 25.6427 237.93 25.8494 238.09C26.056 238.243 26.3427 238.32 26.7094 238.32C27.0694 238.32 27.3827 238.24 27.6494 238.08C27.9227 237.92 28.1194 237.687 28.2394 237.38L28.4294 238.04C28.3027 238.353 28.0794 238.603 27.7594 238.79C27.4394 238.97 27.036 239.06 26.5494 239.06ZM30.928 239V233.7H31.918L34.198 237.62H33.798L36.138 233.7H37.038V239H36.168V234.78L36.328 234.87L34.188 238.4H33.768L31.618 234.8L31.808 234.76V239H30.928ZM41.1766 239.06C40.6432 239.06 40.1699 238.943 39.7566 238.71C39.3432 238.477 39.0166 238.157 38.7766 237.75C38.5366 237.337 38.4166 236.87 38.4166 236.35C38.4166 235.823 38.5366 235.357 38.7766 234.95C39.0166 234.543 39.3432 234.227 39.7566 234C40.1699 233.767 40.6432 233.65 41.1766 233.65C41.7032 233.65 42.1732 233.767 42.5866 234C43.0066 234.227 43.3332 234.543 43.5666 234.95C43.8066 235.35 43.9266 235.817 43.9266 236.35C43.9266 236.877 43.8066 237.343 43.5666 237.75C43.3332 238.157 43.0066 238.477 42.5866 238.71C42.1732 238.943 41.7032 239.06 41.1766 239.06ZM41.1766 238.22C41.5166 238.22 41.8199 238.143 42.0866 237.99C42.3599 237.837 42.5732 237.62 42.7266 237.34C42.8799 237.053 42.9566 236.723 42.9566 236.35C42.9566 235.97 42.8799 235.643 42.7266 235.37C42.5732 235.09 42.3599 234.873 42.0866 234.72C41.8199 234.567 41.5166 234.49 41.1766 234.49C40.8366 234.49 40.5332 234.567 40.2666 234.72C39.9999 234.873 39.7866 235.09 39.6266 235.37C39.4666 235.643 39.3866 235.97 39.3866 236.35C39.3866 236.723 39.4666 237.053 39.6266 237.34C39.7866 237.62 39.9999 237.837 40.2666 237.99C40.5332 238.143 40.8366 238.22 41.1766 238.22ZM47.5828 239.06C47.0495 239.06 46.5761 238.943 46.1628 238.71C45.7495 238.477 45.4228 238.157 45.1828 237.75C44.9428 237.337 44.8228 236.87 44.8228 236.35C44.8228 235.823 44.9428 235.357 45.1828 234.95C45.4228 234.543 45.7495 234.227 46.1628 234C46.5761 233.767 47.0495 233.65 47.5828 233.65C48.1095 233.65 48.5795 233.767 48.9928 234C49.4128 234.227 49.7395 234.543 49.9728 234.95C50.2128 235.35 50.3328 235.817 50.3328 236.35C50.3328 236.877 50.2128 237.343 49.9728 237.75C49.7395 238.157 49.4128 238.477 48.9928 238.71C48.5795 238.943 48.1095 239.06 47.5828 239.06ZM47.5828 238.22C47.9228 238.22 48.2261 238.143 48.4928 237.99C48.7661 237.837 48.9795 237.62 49.1328 237.34C49.2861 237.053 49.3628 236.723 49.3628 236.35C49.3628 235.97 49.2861 235.643 49.1328 235.37C48.9795 235.09 48.7661 234.873 48.4928 234.72C48.2261 234.567 47.9228 234.49 47.5828 234.49C47.2428 234.49 46.9395 234.567 46.6728 234.72C46.4061 234.873 46.1928 235.09 46.0328 235.37C45.8728 235.643 45.7928 235.97 45.7928 236.35C45.7928 236.723 45.8728 237.053 46.0328 237.34C46.1928 237.62 46.4061 237.837 46.6728 237.99C46.9395 238.143 47.2428 238.22 47.5828 238.22ZM51.7191 239V233.7H52.6791V238.16H55.5791V233.7H56.5391V239H51.7191ZM56.4691 240.23V238.95L56.7091 239H55.5791V238.16H57.3791V240.23H56.4691ZM60.9834 239.06C60.4167 239.06 59.9167 238.943 59.4834 238.71C59.0567 238.477 58.7234 238.157 58.4834 237.75C58.25 237.343 58.1334 236.877 58.1334 236.35C58.1334 235.823 58.2467 235.357 58.4734 234.95C58.7067 234.543 59.0234 234.227 59.4234 234C59.83 233.767 60.2867 233.65 60.7934 233.65C61.3067 233.65 61.76 233.763 62.1534 233.99C62.5467 234.217 62.8534 234.537 63.0734 234.95C63.3 235.357 63.4134 235.833 63.4134 236.38C63.4134 236.42 63.41 236.467 63.4034 236.52C63.4034 236.573 63.4 236.623 63.3934 236.67H58.8834V235.98H62.8934L62.5034 236.22C62.51 235.88 62.44 235.577 62.2934 235.31C62.1467 235.043 61.9434 234.837 61.6834 234.69C61.43 234.537 61.1334 234.46 60.7934 234.46C60.46 234.46 60.1634 234.537 59.9034 234.69C59.6434 234.837 59.44 235.047 59.2934 235.32C59.1467 235.587 59.0734 235.893 59.0734 236.24V236.4C59.0734 236.753 59.1534 237.07 59.3134 237.35C59.48 237.623 59.71 237.837 60.0034 237.99C60.2967 238.143 60.6334 238.22 61.0134 238.22C61.3267 238.22 61.61 238.167 61.8634 238.06C62.1234 237.953 62.35 237.793 62.5434 237.58L63.0734 238.2C62.8334 238.48 62.5334 238.693 62.1734 238.84C61.82 238.987 61.4234 239.06 60.9834 239.06ZM64.9027 239V233.7H65.8627V235.95H68.8827V233.7H69.8427V239H68.8827V236.78H65.8627V239H64.9027ZM75.5493 239L73.4993 236.42L74.2893 235.94L76.6793 239H75.5493ZM71.7093 239V233.7H72.6693V239H71.7093ZM72.3793 236.76V235.94H74.1293V236.76H72.3793ZM74.3693 236.46L73.4793 236.34L75.5093 233.7H76.5393L74.3693 236.46ZM80.8382 239V237.88L80.7882 237.67V235.76C80.7882 235.353 80.6682 235.04 80.4282 234.82C80.1949 234.593 79.8415 234.48 79.3682 234.48C79.0549 234.48 78.7482 234.533 78.4482 234.64C78.1482 234.74 77.8949 234.877 77.6882 235.05L77.2882 234.33C77.5615 234.11 77.8882 233.943 78.2682 233.83C78.6549 233.71 79.0582 233.65 79.4782 233.65C80.2049 233.65 80.7649 233.827 81.1582 234.18C81.5515 234.533 81.7482 235.073 81.7482 235.8V239H80.8382ZM79.0982 239.06C78.7049 239.06 78.3582 238.993 78.0582 238.86C77.7649 238.727 77.5382 238.543 77.3782 238.31C77.2182 238.07 77.1382 237.8 77.1382 237.5C77.1382 237.213 77.2049 236.953 77.3382 236.72C77.4782 236.487 77.7015 236.3 78.0082 236.16C78.3215 236.02 78.7415 235.95 79.2682 235.95H80.9482V236.64H79.3082C78.8282 236.64 78.5049 236.72 78.3382 236.88C78.1715 237.04 78.0882 237.233 78.0882 237.46C78.0882 237.72 78.1915 237.93 78.3982 238.09C78.6049 238.243 78.8915 238.32 79.2582 238.32C79.6182 238.32 79.9315 238.24 80.1982 238.08C80.4715 237.92 80.6682 237.687 80.7882 237.38L80.9782 238.04C80.8515 238.353 80.6282 238.603 80.3082 238.79C79.9882 238.97 79.5849 239.06 79.0982 239.06Z" fill="#3D274C"/>
<path d="M43.66 260V253.4L44.09 253.87H42.08V253H44.65V260H43.66ZM46.0712 260V259.32L48.9212 256.57C49.1745 256.33 49.3612 256.12 49.4812 255.94C49.6078 255.753 49.6912 255.583 49.7312 255.43C49.7778 255.27 49.8012 255.117 49.8012 254.97C49.8012 254.61 49.6745 254.327 49.4212 254.12C49.1678 253.913 48.7978 253.81 48.3112 253.81C47.9378 253.81 47.6012 253.873 47.3012 254C47.0012 254.12 46.7412 254.31 46.5212 254.57L45.8412 253.98C46.1078 253.64 46.4645 253.38 46.9112 253.2C47.3645 253.013 47.8612 252.92 48.4012 252.92C48.8878 252.92 49.3112 253 49.6712 253.16C50.0312 253.313 50.3078 253.537 50.5012 253.83C50.7012 254.123 50.8012 254.47 50.8012 254.87C50.8012 255.097 50.7712 255.32 50.7112 255.54C50.6512 255.76 50.5378 255.993 50.3712 256.24C50.2045 256.487 49.9645 256.763 49.6512 257.07L47.1112 259.52L46.8712 259.13H51.1012V260H46.0712ZM51.8134 260V259.32L54.6634 256.57C54.9167 256.33 55.1034 256.12 55.2234 255.94C55.35 255.753 55.4334 255.583 55.4734 255.43C55.52 255.27 55.5434 255.117 55.5434 254.97C55.5434 254.61 55.4167 254.327 55.1634 254.12C54.91 253.913 54.54 253.81 54.0534 253.81C53.68 253.81 53.3434 253.873 53.0434 254C52.7434 254.12 52.4834 254.31 52.2634 254.57L51.5834 253.98C51.85 253.64 52.2067 253.38 52.6534 253.2C53.1067 253.013 53.6034 252.92 54.1434 252.92C54.63 252.92 55.0534 253 55.4134 253.16C55.7734 253.313 56.05 253.537 56.2434 253.83C56.4434 254.123 56.5434 254.47 56.5434 254.87C56.5434 255.097 56.5134 255.32 56.4534 255.54C56.3934 255.76 56.28 255.993 56.1134 256.24C55.9467 256.487 55.7067 256.763 55.3934 257.07L52.8534 259.52L52.6134 259.13H56.8434V260H51.8134Z" fill="#3D274C"/>
<mask id="path-29-inside-7_263_4102" fill="white">
<path d="M99 197H197V295H99V197Z"/>
</mask>
<path d="M99 197H197V295H99V197Z" fill="#DACEE8"/>
<path d="M196 197V295H198V197H196ZM100 295V197H98V295H100Z" fill="#3D274C" mask="url(#path-29-inside-7_263_4102)"/>
<path d="M138.59 239V232H143.87V232.85H139.58V234.85H141.76C142.593 234.85 143.227 235.023 143.66 235.37C144.093 235.717 144.31 236.22 144.31 236.88C144.31 237.56 144.073 238.083 143.6 238.45C143.133 238.817 142.463 239 141.59 239H138.59ZM139.58 238.21H141.55C142.13 238.21 142.567 238.1 142.86 237.88C143.16 237.66 143.31 237.333 143.31 236.9C143.31 236.06 142.723 235.64 141.55 235.64H139.58V238.21ZM150.984 239V233.7H151.944V239H150.984ZM148.134 235.5C148.808 235.507 149.318 235.66 149.664 235.96C150.018 236.26 150.194 236.683 150.194 237.23C150.194 237.803 150.001 238.247 149.614 238.56C149.234 238.867 148.688 239.017 147.974 239.01L145.744 239V233.7H146.704V235.49L148.134 235.5ZM147.904 238.28C148.331 238.287 148.658 238.2 148.884 238.02C149.111 237.84 149.224 237.573 149.224 237.22C149.224 236.873 149.111 236.62 148.884 236.46C148.664 236.3 148.338 236.217 147.904 236.21L146.704 236.19V238.27L147.904 238.28ZM154.861 239V234.29L155.101 234.54H152.921V233.7H157.761V234.54H155.591L155.821 234.29V239H154.861Z" fill="#3D274C"/>
<path d="M141.66 260V253.4L142.09 253.87H140.08V253H142.65V260H141.66ZM144.071 260V259.32L146.921 256.57C147.175 256.33 147.361 256.12 147.481 255.94C147.608 255.753 147.691 255.583 147.731 255.43C147.778 255.27 147.801 255.117 147.801 254.97C147.801 254.61 147.675 254.327 147.421 254.12C147.168 253.913 146.798 253.81 146.311 253.81C145.938 253.81 145.601 253.873 145.301 254C145.001 254.12 144.741 254.31 144.521 254.57L143.841 253.98C144.108 253.64 144.465 253.38 144.911 253.2C145.365 253.013 145.861 252.92 146.401 252.92C146.888 252.92 147.311 253 147.671 253.16C148.031 253.313 148.308 253.537 148.501 253.83C148.701 254.123 148.801 254.47 148.801 254.87C148.801 255.097 148.771 255.32 148.711 255.54C148.651 255.76 148.538 255.993 148.371 256.24C148.205 256.487 147.965 256.763 147.651 257.07L145.111 259.52L144.871 259.13H149.101V260H144.071ZM149.813 260V259.32L152.663 256.57C152.917 256.33 153.103 256.12 153.223 255.94C153.35 255.753 153.433 255.583 153.473 255.43C153.52 255.27 153.543 255.117 153.543 254.97C153.543 254.61 153.417 254.327 153.163 254.12C152.91 253.913 152.54 253.81 152.053 253.81C151.68 253.81 151.343 253.873 151.043 254C150.743 254.12 150.483 254.31 150.263 254.57L149.583 253.98C149.85 253.64 150.207 253.38 150.653 253.2C151.107 253.013 151.603 252.92 152.143 252.92C152.63 252.92 153.053 253 153.413 253.16C153.773 253.313 154.05 253.537 154.243 253.83C154.443 254.123 154.543 254.47 154.543 254.87C154.543 255.097 154.513 255.32 154.453 255.54C154.393 255.76 154.28 255.993 154.113 256.24C153.947 256.487 153.707 256.763 153.393 257.07L150.853 259.52L150.613 259.13H154.843V260H149.813Z" fill="#3D274C"/>
<rect width="98" height="98" transform="translate(197 197)" fill="#DACEE8"/>
<path d="M230.52 239V232.61L230.77 232.87H228.13V232H233.9V232.87H231.26L231.5 232.61V239H230.52ZM237.922 239V237.88L237.872 237.67V235.76C237.872 235.353 237.752 235.04 237.512 234.82C237.279 234.593 236.926 234.48 236.452 234.48C236.139 234.48 235.832 234.533 235.532 234.64C235.232 234.74 234.979 234.877 234.772 235.05L234.372 234.33C234.646 234.11 234.972 233.943 235.352 233.83C235.739 233.71 236.142 233.65 236.562 233.65C237.289 233.65 237.849 233.827 238.242 234.18C238.636 234.533 238.832 235.073 238.832 235.8V239H237.922ZM236.182 239.06C235.789 239.06 235.442 238.993 235.142 238.86C234.849 238.727 234.622 238.543 234.462 238.31C234.302 238.07 234.222 237.8 234.222 237.5C234.222 237.213 234.289 236.953 234.422 236.72C234.562 236.487 234.786 236.3 235.092 236.16C235.406 236.02 235.826 235.95 236.352 235.95H238.032V236.64H236.392C235.912 236.64 235.589 236.72 235.422 236.88C235.256 237.04 235.172 237.233 235.172 237.46C235.172 237.72 235.276 237.93 235.482 238.09C235.689 238.243 235.976 238.32 236.342 238.32C236.702 238.32 237.016 238.24 237.282 238.08C237.556 237.92 237.752 237.687 237.872 237.38L238.062 238.04C237.936 238.353 237.712 238.603 237.392 238.79C237.072 238.97 236.669 239.06 236.182 239.06ZM239.681 238.99L239.741 238.18C239.788 238.187 239.831 238.193 239.871 238.2C239.911 238.207 239.948 238.21 239.981 238.21C240.194 238.21 240.361 238.137 240.481 237.99C240.608 237.843 240.701 237.65 240.761 237.41C240.821 237.163 240.864 236.887 240.891 236.58C240.918 236.273 240.938 235.967 240.951 235.66L241.041 233.7H245.111V239H244.151V234.26L244.381 234.54H241.661L241.881 234.25L241.811 235.72C241.791 236.187 241.754 236.623 241.701 237.03C241.648 237.437 241.564 237.793 241.451 238.1C241.344 238.407 241.194 238.647 241.001 238.82C240.814 238.993 240.571 239.08 240.271 239.08C240.184 239.08 240.091 239.07 239.991 239.05C239.898 239.037 239.794 239.017 239.681 238.99ZM250.217 239V237.88L250.167 237.67V235.76C250.167 235.353 250.047 235.04 249.807 234.82C249.574 234.593 249.22 234.48 248.747 234.48C248.434 234.48 248.127 234.533 247.827 234.64C247.527 234.74 247.274 234.877 247.067 235.05L246.667 234.33C246.94 234.11 247.267 233.943 247.647 233.83C248.034 233.71 248.437 233.65 248.857 233.65C249.584 233.65 250.144 233.827 250.537 234.18C250.93 234.533 251.127 235.073 251.127 235.8V239H250.217ZM248.477 239.06C248.084 239.06 247.737 238.993 247.437 238.86C247.144 238.727 246.917 238.543 246.757 238.31C246.597 238.07 246.517 237.8 246.517 237.5C246.517 237.213 246.584 236.953 246.717 236.72C246.857 236.487 247.08 236.3 247.387 236.16C247.7 236.02 248.12 235.95 248.647 235.95H250.327V236.64H248.687C248.207 236.64 247.884 236.72 247.717 236.88C247.55 237.04 247.467 237.233 247.467 237.46C247.467 237.72 247.57 237.93 247.777 238.09C247.984 238.243 248.27 238.32 248.637 238.32C248.997 238.32 249.31 238.24 249.577 238.08C249.85 237.92 250.047 237.687 250.167 237.38L250.357 238.04C250.23 238.353 250.007 238.603 249.687 238.79C249.367 238.97 248.964 239.06 248.477 239.06ZM252.856 239V233.7H253.816V235.95H256.836V233.7H257.796V239H256.836V236.78H253.816V239H252.856ZM260.712 239V234.29L260.952 234.54H258.772V233.7H263.612V234.54H261.442L261.672 234.29V239H260.712Z" fill="#3D274C"/>
<path d="M239.66 260V253.4L240.09 253.87H238.08V253H240.65V260H239.66ZM242.071 260V259.32L244.921 256.57C245.175 256.33 245.361 256.12 245.481 255.94C245.608 255.753 245.691 255.583 245.731 255.43C245.778 255.27 245.801 255.117 245.801 254.97C245.801 254.61 245.675 254.327 245.421 254.12C245.168 253.913 244.798 253.81 244.311 253.81C243.938 253.81 243.601 253.873 243.301 254C243.001 254.12 242.741 254.31 242.521 254.57L241.841 253.98C242.108 253.64 242.465 253.38 242.911 253.2C243.365 253.013 243.861 252.92 244.401 252.92C244.888 252.92 245.311 253 245.671 253.16C246.031 253.313 246.308 253.537 246.501 253.83C246.701 254.123 246.801 254.47 246.801 254.87C246.801 255.097 246.771 255.32 246.711 255.54C246.651 255.76 246.538 255.993 246.371 256.24C246.205 256.487 245.965 256.763 245.651 257.07L243.111 259.52L242.871 259.13H247.101V260H242.071ZM247.813 260V259.32L250.663 256.57C250.917 256.33 251.103 256.12 251.223 255.94C251.35 255.753 251.433 255.583 251.473 255.43C251.52 255.27 251.543 255.117 251.543 254.97C251.543 254.61 251.417 254.327 251.163 254.12C250.91 253.913 250.54 253.81 250.053 253.81C249.68 253.81 249.343 253.873 249.043 254C248.743 254.12 248.483 254.31 248.263 254.57L247.583 253.98C247.85 253.64 248.207 253.38 248.653 253.2C249.107 253.013 249.603 252.92 250.143 252.92C250.63 252.92 251.053 253 251.413 253.16C251.773 253.313 252.05 253.537 252.243 253.83C252.443 254.123 252.543 254.47 252.543 254.87C252.543 255.097 252.513 255.32 252.453 255.54C252.393 255.76 252.28 255.993 252.113 256.24C251.947 256.487 251.707 256.763 251.393 257.07L248.853 259.52L248.613 259.13H252.843V260H247.813Z" fill="#3D274C"/>
</g>
<rect x="0.5" y="0.5" width="295" height="295" rx="16.5" stroke="#3D274C"/>
<defs>
<clipPath id="clip0_263_4102">
<rect x="1" y="1" width="294" height="294" rx="16" fill="white"/>
</clipPath>
</defs>
</svg>
