<svg width="64" height="64" viewBox="0 0 64 64" fill="none" xmlns="http://www.w3.org/2000/svg">
<path fill-rule="evenodd" clip-rule="evenodd" d="M35.1545 28.9761L32 9.82504L28.8455 28.9761L9.69443 32.1306L28.8455 35.2851L32 54.4362L35.1545 35.2851L54.3056 32.1306L35.1545 28.9761ZM60.7347 32.1306L36.0637 36.1943L32 60.8653L27.9363 36.1943L3.26531 32.1306L27.9363 28.0669L32 3.39592L36.0637 28.0669L60.7347 32.1306Z" fill="#3D274C"/>
<path fill-rule="evenodd" clip-rule="evenodd" d="M38.1586 32.1108L35.0041 12.9597L31.8496 32.1108L12.6985 35.2653L31.8496 38.4198L35.0041 57.5709L38.1586 38.4198L57.3097 35.2653L38.1586 32.1108ZM63.7388 35.2653L39.0678 39.329L35.0041 64L30.9404 39.329L6.26939 35.2653L30.9404 31.2016L35.0041 6.53061L39.0678 31.2016L63.7388 35.2653Z" fill="#3D274C"/>
<path d="M28.7347 0L32.7984 24.671L57.4694 28.7347L32.7984 32.7984L28.7347 57.4694L24.671 32.7984L0 28.7347L24.671 24.671L28.7347 0Z" fill="#3D274C"/>
</svg>
