<svg width="21" height="53" viewBox="0 0 21 53" fill="none" xmlns="http://www.w3.org/2000/svg">
<path d="M17.556 2.25794C15.4812 0.764388 12.5505 1.91274 10.6025 0.105679C10.5285 0.0352287 10.4475 0.0105714 10.3665 0.00704884C10.3524 0.00352631 10.3383 0.00353018 10.3242 7.64509e-06C10.3102 7.64509e-06 10.2961 0.00352631 10.282 0.00704884C10.2009 0.0140939 10.1199 0.0387512 10.046 0.105679C8.29526 1.73309 5.58995 1.13426 3.49052 2.03603C1.42279 2.92371 0.577389 5.55856 0.521029 7.61572C0.461146 9.81026 1.76096 11.7512 3.67721 12.7058C5.55825 13.6428 8.88 14.4107 9.14067 16.8412C8.90818 22.2378 9.16532 38.931 9.14067 44.3275C9.13362 46.818 8.76376 49.629 9.35202 52.0665C9.39781 52.2603 9.54224 52.3448 9.69371 52.3448C9.7078 52.3484 9.71836 52.3554 9.73245 52.3554C10.3735 52.4012 11.0041 52.2392 11.6417 52.2885C11.8424 52.3026 12.0538 52.0947 12.0362 51.8939C11.9833 51.2881 12.008 50.6787 11.934 50.0763C13.0472 49.9636 14.1779 49.946 15.284 49.9037C16.2773 49.865 17.0664 50.1186 17.2918 48.9491C17.3693 48.5511 17.4221 47.8571 17.0981 47.5331C16.7951 47.2301 15.918 47.4344 15.5517 47.4556C14.6922 47.5119 13.8327 47.5859 12.9732 47.6493C12.5293 47.681 12.089 47.7057 11.6452 47.7233C11.2718 47.7374 11.3246 47.2266 11.388 46.8109C13.3325 46.7299 15.2734 46.825 17.2108 46.5467C17.3517 46.5256 17.4398 46.3882 17.4855 46.272C17.9153 45.1659 17.785 44.1514 16.4675 44.0563C14.8296 43.9365 13.1493 43.9682 11.5043 44.1021C11.4867 38.7972 11.7332 22.1955 11.5078 16.8941C11.7332 14.5868 14.7802 13.6392 16.6401 12.8432C18.574 12.0154 19.9795 10.2752 20.0957 8.11591C20.2226 5.86502 19.4265 3.60707 17.556 2.25794ZM11.7121 11.4165C9.61973 10.2083 7.85142 11.6103 5.73086 11.1383C3.96959 10.7473 2.8142 9.15858 2.51831 7.42197C2.28582 6.0658 3.20873 4.58986 4.37821 3.9558C4.99465 3.62116 5.70971 3.30766 6.42831 3.33232C7.74926 3.37811 9.02442 4.35737 10.2432 2.68769C10.2679 2.65247 10.2961 2.62781 10.3278 2.60315C10.4405 2.33544 10.9477 2.28613 11.0957 2.65247C11.6276 3.9382 14.1497 3.54367 15.2769 3.81138C16.3337 4.05796 17.4327 4.62156 17.7039 5.78047C18.4613 8.99654 15.0902 13.368 11.7121 11.4165Z" fill="#3D274C"/>
</svg>
