<svg width="96" height="27" viewBox="0 0 96 27" fill="none" xmlns="http://www.w3.org/2000/svg">
<path d="M8.51848 1.12891C7.48109 0.382133 6.01572 0.956308 5.04174 0.0527786C5.00475 0.0175533 4.96424 0.00522465 4.92373 0.00346338C4.91669 0.00170212 4.90964 0.00170405 4.9026 -5.72126e-05C4.89555 -5.72126e-05 4.8885 0.00170212 4.88146 0.00346338C4.84095 0.00698592 4.80044 0.0193146 4.76346 0.0527786C3.88811 0.866483 2.53545 0.56707 1.48574 1.01795C0.451876 1.46179 0.0291733 2.77922 0.000993008 3.8078C-0.0289485 4.90507 0.620957 5.87552 1.57909 6.35283C2.5196 6.82132 4.18048 7.20528 4.31081 8.42056C4.19457 11.1188 4.32314 19.4655 4.31081 22.1637C4.30729 23.4089 4.12236 24.8144 4.41649 26.0332C4.43938 26.1301 4.5116 26.1724 4.58733 26.1724C4.59438 26.1741 4.59966 26.1776 4.6067 26.1776C4.92725 26.2005 5.24252 26.1195 5.56131 26.1442C5.6617 26.1512 5.76738 26.0473 5.75857 25.9469C5.73215 25.644 5.74448 25.3393 5.70749 25.0381C6.26405 24.9817 6.82942 24.9729 7.38246 24.9518C7.87914 24.9324 8.27366 25.0592 8.38638 24.4745C8.42513 24.2755 8.45155 23.9285 8.28951 23.7665C8.13804 23.615 7.69949 23.7171 7.51632 23.7277C7.08657 23.7559 6.65682 23.7929 6.22707 23.8246C6.00515 23.8404 5.78499 23.8528 5.56307 23.8616C5.37638 23.8686 5.4028 23.6132 5.4345 23.4054C6.40672 23.3649 7.37718 23.4124 8.34587 23.2733C8.41632 23.2627 8.46035 23.1941 8.48325 23.1359C8.69813 22.5829 8.63296 22.0756 7.97424 22.0281C7.15525 21.9682 6.31513 21.9841 5.49262 22.051C5.48381 19.3985 5.6071 11.0977 5.49438 8.44697C5.6071 7.29334 7.1306 6.81956 8.06055 6.42152C9.02748 6.00762 9.73023 5.13755 9.78835 4.0579C9.85176 2.93245 9.45371 1.80347 8.51848 1.12891ZM5.59653 5.7082C4.55034 5.10409 3.66619 5.80507 2.60591 5.56906C1.72527 5.37356 1.14758 4.57923 0.999633 3.71093C0.88339 3.03284 1.34484 2.29487 1.92958 1.97784C2.2378 1.81052 2.59534 1.65377 2.95463 1.6661C3.61511 1.689 4.25269 2.17862 4.86209 1.34378C4.87442 1.32617 4.88851 1.31384 4.90436 1.30152C4.96072 1.16766 5.21434 1.143 5.28831 1.32618C5.55426 1.96904 6.81533 1.77177 7.37894 1.90563C7.90732 2.02892 8.45683 2.31072 8.59245 2.89018C8.97112 4.49821 7.28559 6.68394 5.59653 5.7082Z" fill="#3D274C"/>
<path d="M19.7598 15.1962C19.185 15.1962 18.6688 15.1484 18.2112 15.0526C17.7535 14.9568 17.2426 14.829 16.6785 14.6694C16.3059 14.563 16.0558 14.5044 15.9281 14.4938L16.0718 11.5402H17.365L17.7162 13.5997C17.8546 13.7487 18.0994 13.8818 18.4506 13.9988C18.8125 14.1159 19.2223 14.1745 19.68 14.1745C20.3931 14.1745 20.9253 14.0201 21.2765 13.7115C21.6384 13.3922 21.8193 12.9504 21.8193 12.3863C21.8193 12.0138 21.7129 11.6945 21.5 11.4284C21.2872 11.1517 20.9945 10.9069 20.6219 10.694C20.2494 10.4705 19.7385 10.215 19.0893 9.92766C18.2058 9.5232 17.4714 9.04424 16.886 8.49077C16.3113 7.92666 16.0239 7.16564 16.0239 6.20771C16.0239 5.61167 16.1782 5.07417 16.4869 4.5952C16.7956 4.1056 17.2532 3.72243 17.8599 3.44569C18.4772 3.15832 19.2276 3.01463 20.111 3.01463C20.6326 3.01463 21.0903 3.05188 21.4841 3.12638C21.8885 3.20089 22.3249 3.30201 22.7932 3.42973C23.07 3.50423 23.2775 3.55213 23.4159 3.57342L23.3201 6.36737H22.0429L21.7076 4.40362C21.6118 4.30783 21.4202 4.21736 21.1328 4.13221C20.8454 4.03641 20.5261 3.98852 20.1749 3.98852C19.5363 3.98852 19.052 4.13753 18.722 4.43555C18.4027 4.72293 18.2431 5.11142 18.2431 5.60103C18.2431 5.99484 18.3602 6.33544 18.5943 6.62281C18.8391 6.91019 19.1318 7.155 19.4724 7.35722C19.813 7.54881 20.3505 7.82554 21.0849 8.18743C21.681 8.4748 22.1919 8.75686 22.6176 9.03359C23.0434 9.31033 23.4106 9.67221 23.7192 10.1192C24.0279 10.5556 24.1822 11.0718 24.1822 11.6679C24.1822 12.2533 24.0332 12.8121 23.7352 13.3443C23.4478 13.8764 22.9689 14.3182 22.2983 14.6694C21.6384 15.0206 20.7922 15.1962 19.7598 15.1962ZM30.3056 15.1962C28.5707 15.1962 27.2722 14.6534 26.41 13.5678C25.5479 12.4821 25.1168 11.0027 25.1168 9.12939C25.1168 7.90537 25.3403 6.83036 25.7874 5.90437C26.245 4.97837 26.8837 4.26525 27.7032 3.765C28.5228 3.26475 29.4647 3.01463 30.5291 3.01463C32.2853 3.01463 33.5998 3.53616 34.4726 4.57924C35.356 5.61167 35.7977 7.0592 35.7977 8.92184C35.7977 10.1565 35.5635 11.2528 35.0952 12.2107C34.6375 13.158 33.9936 13.8924 33.1634 14.4139C32.3332 14.9355 31.3806 15.1962 30.3056 15.1962ZM30.4652 3.98852C29.5925 3.98852 28.9113 4.41958 28.4217 5.28172C27.9321 6.14385 27.6873 7.42109 27.6873 9.11342C27.6873 10.7845 27.9214 12.0564 28.3897 12.9292C28.8687 13.7913 29.5499 14.2224 30.4333 14.2224C31.2954 14.2224 31.9713 13.77 32.4609 12.8653C32.9505 11.9499 33.1953 10.6355 33.1953 8.92184C33.1953 7.26143 32.9612 6.02677 32.4929 5.21786C32.0245 4.3983 31.3487 3.98852 30.4652 3.98852ZM42.4 15.1484C40.7822 15.1484 39.5795 14.7439 38.7918 13.935C38.0042 13.1261 37.6104 11.8542 37.6104 10.1192V4.35572L36.5567 4.14817V3.15832H41.3782V4.14817L40.0212 4.37169V10.3268C40.0212 12.86 40.9206 14.1266 42.7193 14.1266C43.6028 14.1266 44.2573 13.8019 44.6831 13.1527C45.1088 12.4928 45.3217 11.5721 45.3217 10.3907V4.37169L43.9487 4.14817V3.15832H47.94V4.14817L46.8544 4.35572V10.2629C46.8544 11.9233 46.4499 13.1527 45.641 13.9509C44.8427 14.7492 43.7624 15.1484 42.4 15.1484ZM50.0182 4.35572L48.7888 4.14817V3.15832H53.8978V4.14817L52.3651 4.35572V13.8871L55.7817 13.7434L56.7875 10.7579L58.0807 10.9335L57.5858 15.0206H48.7569V14.0627L50.0182 13.903V4.35572ZM71.1883 15.0206C71.0287 15.0206 70.8211 14.8184 70.5657 14.4139C70.3102 13.9988 69.9537 13.3443 69.496 12.4502C69.1022 11.6839 68.7722 11.0665 68.5061 10.5982C68.24 10.1299 67.9846 9.74139 67.7398 9.43273L66.3189 11.0612V13.903L67.6919 14.0787V15.0206H62.7266V14.0627L63.9879 13.903V4.35572L62.7426 4.14817V3.15832H67.5482V4.14817L66.3189 4.35572V9.56045L70.5178 4.35572L69.2086 4.14817V3.15832H73.5193V4.14817L72.1941 4.35572L69.0968 7.83619C69.4694 8.17678 69.8632 8.66107 70.2783 9.28904C70.6934 9.90637 71.199 10.7153 71.795 11.7158C72.2314 12.4502 72.5613 12.9877 72.7849 13.3283C73.0084 13.6582 73.1787 13.8498 73.2957 13.903L74.0461 14.0787V15.0206H71.1883ZM75.8836 4.35572L74.6064 4.14817V3.15832H83.116L83.3235 5.84051H82.206L81.6791 4.25993L78.2306 4.11624V8.41094L80.4498 8.36305L80.7052 7.05388H81.727V10.9175H80.7052L80.4498 9.54449L78.2306 9.49659V13.9988L82.0942 13.8073L83.0202 11.7637L84.2176 12.099L83.8025 15.0206H74.6224V14.0627L75.8836 13.903V4.35572ZM88.5326 10.3108L85.116 4.35572L84.206 4.14817V3.15832H88.8998V4.14817L87.7663 4.35572L89.762 8.26725L90.209 9.36887L90.672 8.26725L92.508 4.35572L91.2627 4.14817V3.15832H95.1583V4.14817L94.1684 4.33976L90.9913 10.2949V13.903L92.7315 14.0627V15.0206H86.8403V14.0627L88.5326 13.903V10.3108Z" fill="#3D274C"/>
<path d="M16.2373 19.8348C16.3443 19.8348 16.5095 19.8255 16.7328 19.8069C17.0027 19.7883 17.2167 19.779 17.3749 19.779C18.4312 19.779 18.9593 20.1721 18.9593 20.9585C18.9593 21.6379 18.5568 22.0776 17.7518 22.2777C17.9845 22.2823 18.1892 22.3335 18.366 22.4312C18.5475 22.5243 18.6871 22.6499 18.7848 22.8081C18.8825 22.9663 18.9314 23.1408 18.9314 23.3316C18.936 23.9411 18.729 24.3855 18.3102 24.6647C17.8914 24.9439 17.2912 25.0834 16.5095 25.0834C16.3606 25.0834 16.1814 25.0718 15.972 25.0485C15.7394 25.0299 15.5765 25.0206 15.4835 25.0206H14.5552L14.5831 24.6996L15.0717 24.6019L15.637 20.2606L15.1554 20.1768L15.1903 19.8348H16.2373ZM16.335 22.1241C16.4141 22.1288 16.4815 22.1311 16.5374 22.1311C16.5979 22.1264 16.6491 22.1241 16.6909 22.1241H16.8794C17.2144 22.1241 17.4913 22.0334 17.7099 21.8519C17.9286 21.6658 18.038 21.3866 18.038 21.0144C18.038 20.456 17.7425 20.1768 17.1516 20.1768C16.905 20.1768 16.7165 20.1908 16.5862 20.2187L16.335 22.1241ZM16.0069 24.6088C16.086 24.6321 16.1907 24.6507 16.321 24.6647C16.4559 24.6786 16.5653 24.6856 16.6491 24.6856C17.0539 24.6856 17.3656 24.5902 17.5843 24.3994C17.803 24.204 17.9124 23.9016 17.9124 23.4921C17.9124 23.171 17.8286 22.9337 17.6611 22.7802C17.4982 22.6266 17.2353 22.5499 16.8724 22.5499C16.6258 22.5499 16.428 22.5545 16.2791 22.5638L16.0069 24.6088ZM21.5 19.8348L21.4511 20.1768L20.8509 20.2606L21.493 22.0264L21.6535 22.515L21.8838 22.0822L22.9796 20.2606L22.4283 20.1768L22.4632 19.8348H24.1313L24.0894 20.1768L23.6636 20.2536L21.8978 22.9826L21.6814 24.6019L22.4911 24.6996L22.4632 25.0206H19.8877L19.9226 24.6996L20.7183 24.6019L20.9207 22.9826L19.7481 20.2606L19.3154 20.1768L19.3503 19.8348H21.5ZM27.6318 25.0974C26.8734 25.0974 26.3057 24.8601 25.9288 24.3855C25.5519 23.9109 25.3634 23.2641 25.3634 22.4452C25.3634 21.9101 25.4612 21.4401 25.6566 21.0353C25.8567 20.6305 26.1358 20.3187 26.4941 20.1C26.8524 19.8813 27.2642 19.772 27.7295 19.772C28.4973 19.772 29.0719 20 29.4535 20.456C29.8397 20.9073 30.0328 21.5401 30.0328 22.3544C30.0328 22.8942 29.9304 23.3734 29.7257 23.7922C29.5256 24.2063 29.2441 24.5274 28.8811 24.7554C28.5182 24.9834 28.1018 25.0974 27.6318 25.0974ZM27.7016 20.1977C27.32 20.1977 27.0223 20.3862 26.8082 20.7631C26.5942 21.14 26.4872 21.6983 26.4872 22.4382C26.4872 23.1687 26.5895 23.7248 26.7943 24.1063C27.0036 24.4832 27.3014 24.6717 27.6876 24.6717C28.0645 24.6717 28.36 24.4739 28.574 24.0784C28.7881 23.6782 28.8951 23.1036 28.8951 22.3544C28.8951 21.6286 28.7927 21.0888 28.588 20.7352C28.3833 20.3769 28.0878 20.1977 27.7016 20.1977ZM34.2103 25.0206C34.1405 25.0206 34.0498 24.9322 33.9381 24.7554C33.8265 24.5739 33.6706 24.2878 33.4705 23.8969C33.2983 23.5619 33.1541 23.292 33.0378 23.0873C32.9214 22.8826 32.8098 22.7127 32.7027 22.5778L32.0816 23.2897V24.5321L32.6818 24.6088V25.0206H30.5112V24.6019L31.0625 24.5321V20.3583L30.5181 20.2675V19.8348H32.619V20.2675L32.0816 20.3583V22.6336L33.9172 20.3583L33.3449 20.2675V19.8348H35.2293V20.2675L34.65 20.3583L33.296 21.8798C33.4589 22.0287 33.631 22.2404 33.8125 22.515C33.994 22.7848 34.215 23.1385 34.4756 23.5759C34.6663 23.8969 34.8106 24.1319 34.9083 24.2808C35.006 24.425 35.0805 24.5088 35.1316 24.5321L35.4597 24.6088V25.0206H34.2103ZM37.5123 25.0974C37.2611 25.0974 37.0354 25.0765 36.8353 25.0346C36.6352 24.9927 36.4119 24.9369 36.1653 24.8671C36.0024 24.8205 35.8931 24.795 35.8372 24.7903L35.9 23.4991H36.4654L36.6189 24.3994C36.6794 24.4646 36.7864 24.5228 36.94 24.5739C37.0982 24.6251 37.2773 24.6507 37.4774 24.6507C37.7892 24.6507 38.0218 24.5832 38.1754 24.4483C38.3336 24.3087 38.4127 24.1156 38.4127 23.869C38.4127 23.7061 38.3662 23.5666 38.2731 23.4502C38.18 23.3292 38.0521 23.2222 37.8892 23.1292C37.7264 23.0314 37.503 22.9198 37.2192 22.7941C36.833 22.6173 36.5119 22.4079 36.256 22.166C36.0047 21.9194 35.8791 21.5867 35.8791 21.1679C35.8791 20.9073 35.9466 20.6724 36.0815 20.463C36.2165 20.2489 36.4165 20.0814 36.6818 19.9604C36.9516 19.8348 37.2797 19.772 37.6659 19.772C37.8939 19.772 38.094 19.7883 38.2661 19.8208C38.4429 19.8534 38.6337 19.8976 38.8384 19.9535C38.9594 19.986 39.0502 20.007 39.1106 20.0163L39.0688 21.2377H38.5104L38.3638 20.3792C38.322 20.3373 38.2382 20.2978 38.1126 20.2606C37.9869 20.2187 37.8473 20.1977 37.6938 20.1977C37.4146 20.1977 37.2029 20.2629 37.0587 20.3932C36.9191 20.5188 36.8493 20.6886 36.8493 20.9027C36.8493 21.0748 36.9004 21.2237 37.0028 21.3494C37.1098 21.475 37.2378 21.582 37.3867 21.6704C37.5356 21.7542 37.7706 21.8752 38.0916 22.0334C38.3522 22.159 38.5755 22.2823 38.7617 22.4033C38.9478 22.5243 39.1083 22.6825 39.2433 22.8779C39.3782 23.0687 39.4457 23.2943 39.4457 23.5549C39.4457 23.8108 39.3805 24.0551 39.2502 24.2878C39.1246 24.5204 38.9152 24.7135 38.6221 24.8671C38.3336 25.0206 37.9637 25.0974 37.5123 25.0974ZM41.5503 19.8069H42.6182L44.2304 24.5321L44.6353 24.6019V25.0206H42.5763V24.6019L43.0998 24.5321L42.8276 23.6247H41.0198L40.7476 24.539L41.313 24.6019V25.0206H39.5332L39.5262 24.6019L39.945 24.5321L41.5503 19.8069ZM42.0319 20.9864L41.9062 20.442L41.7736 20.9934L41.1525 23.1361H42.688L42.0319 20.9864ZM45.3761 20.3583L44.8247 20.2675V19.8348H46.4091L48.489 22.9756L48.8799 23.7713V20.3583L48.2796 20.2675V19.8348H50.0106V20.2675L49.4731 20.3583V25.0206H48.6286L46.458 21.7193L45.9694 20.798V24.5321L46.6743 24.6019V25.0206H44.8247V24.6019L45.3761 24.5321V20.3583ZM52.0537 19.8069H53.1216L54.7339 24.5321L55.1387 24.6019V25.0206H53.0797V24.6019L53.6032 24.5321L53.331 23.6247H51.5233L51.2511 24.539L51.8164 24.6019V25.0206H50.0366L50.0297 24.6019L50.4484 24.5321L52.0537 19.8069ZM52.5353 20.9864L52.4097 20.442L52.2771 20.9934L51.6559 23.1361H53.1914L52.5353 20.9864ZM57.5359 20.3583L57.0124 20.2675V19.8348H58.0663C58.164 19.8348 58.3153 19.8301 58.52 19.8208C58.7899 19.8022 59.0342 19.7929 59.2528 19.7929C59.7368 19.7929 60.1183 19.8534 60.3975 19.9744C60.6813 20.0907 60.8814 20.2606 60.9977 20.4839C61.1187 20.7026 61.1792 20.9818 61.1792 21.3215C61.1792 21.9077 60.9954 22.3637 60.6278 22.6894C60.2649 23.0152 59.76 23.178 59.1133 23.178C58.8573 23.178 58.6735 23.171 58.5619 23.1571V24.5321L59.4971 24.6019V25.0206H56.9845V24.6019L57.5359 24.5321V20.3583ZM58.5549 22.7104C58.6619 22.7337 58.8434 22.7453 59.0993 22.7453C59.4111 22.7453 59.66 22.6383 59.8461 22.4242C60.0369 22.2055 60.1323 21.8449 60.1323 21.3424C60.1323 20.9515 60.0462 20.6677 59.874 20.4909C59.7065 20.3094 59.4483 20.2187 59.0993 20.2187C58.969 20.2187 58.8341 20.228 58.6945 20.2466C58.6293 20.2559 58.5828 20.2606 58.5549 20.2606V22.7104ZM63.7975 25.0974C63.039 25.0974 62.4714 24.8601 62.0945 24.3855C61.7176 23.9109 61.5291 23.2641 61.5291 22.4452C61.5291 21.9101 61.6268 21.4401 61.8223 21.0353C62.0223 20.6305 62.3015 20.3187 62.6598 20.1C63.0181 19.8813 63.4299 19.772 63.8952 19.772C64.663 19.772 65.2376 20 65.6192 20.456C66.0054 20.9073 66.1985 21.5401 66.1985 22.3544C66.1985 22.8942 66.0961 23.3734 65.8914 23.7922C65.6913 24.2063 65.4098 24.5274 65.0468 24.7554C64.6839 24.9834 64.2674 25.0974 63.7975 25.0974ZM63.8673 20.1977C63.4857 20.1977 63.1879 20.3862 62.9739 20.7631C62.7599 21.14 62.6528 21.6983 62.6528 22.4382C62.6528 23.1687 62.7552 23.7248 62.9599 24.1063C63.1693 24.4832 63.4671 24.6717 63.8533 24.6717C64.2302 24.6717 64.5257 24.4739 64.7397 24.0784C64.9538 23.6782 65.0608 23.1036 65.0608 22.3544C65.0608 21.6286 64.9584 21.0888 64.7537 20.7352C64.549 20.3769 64.2535 20.1977 63.8673 20.1977ZM68.3659 20.2955L67.3678 20.3304L67.0956 21.8519H66.5093L66.628 19.8348H71.1298L71.2136 21.8519H70.6622L70.39 20.3304L69.4058 20.2955V24.5321L70.383 24.6019V25.0206H67.4725V24.6019L68.3659 24.5321V20.2955ZM73.2719 19.8069H74.3398L75.9521 24.5321L76.3569 24.6019V25.0206H74.2979V24.6019L74.8214 24.5321L74.5492 23.6247H72.7415L72.4693 24.539L73.0346 24.6019V25.0206H71.2548L71.2479 24.6019L71.6666 24.5321L73.2719 19.8069ZM73.7535 20.9864L73.6279 20.442L73.4953 20.9934L72.8741 23.1361H74.4096L73.7535 20.9864ZM77.0978 20.3583L76.5464 20.2675V19.8348H78.1308L80.2107 22.9756L80.6015 23.7713V20.3583L80.0013 20.2675V19.8348H81.7322V20.2675L81.1948 20.3583V25.0206H80.3503L78.1796 21.7193L77.691 20.798V24.5321L78.396 24.6019V25.0206H76.5464V24.6019L77.0978 24.5321V20.3583ZM82.7843 20.3583L82.191 20.2675V19.8348H84.4245V20.2675L83.8103 20.3583V24.5321L84.4245 24.6088V25.0206H82.191V24.6019L82.7843 24.5321V20.3583ZM85.5701 20.3583L85.0187 20.2675V19.8348H86.603L88.683 22.9756L89.0738 23.7713V20.3583L88.4736 20.2675V19.8348H90.2045V20.2675L89.6671 20.3583V25.0206H88.8225L86.6519 21.7193L86.1633 20.798V24.5321L86.8683 24.6019V25.0206H85.0187V24.6019L85.5701 24.5321V20.3583ZM92.2477 19.8069H93.3155L94.9278 24.5321L95.3326 24.6019V25.0206H93.2737V24.6019L93.7971 24.5321L93.5249 23.6247H91.7172L91.445 24.539L92.0104 24.6019V25.0206H90.2306L90.2236 24.6019L90.6424 24.5321L92.2477 19.8069ZM92.7293 20.9864L92.6036 20.442L92.471 20.9934L91.8498 23.1361H93.3853L92.7293 20.9864Z" fill="#3D274C"/>
</svg>
