<svg width="21" height="53" viewBox="0 0 21 53" fill="none" xmlns="http://www.w3.org/2000/svg">
<path d="M17.5561 2.25782C15.4814 0.764266 12.5506 1.91262 10.6026 0.105557C10.5287 0.0351066 10.4477 0.0104493 10.3666 0.00692677C10.3525 0.00340424 10.3385 0.00340811 10.3244 -0.000114425C10.3103 -0.000114425 10.2962 0.00340424 10.2821 0.00692677C10.2011 0.0139718 10.1201 0.0386291 10.0461 0.105557C8.29538 1.73297 5.59007 1.13414 3.49064 2.03591C1.42292 2.92359 0.577512 5.55844 0.521151 7.6156C0.461268 9.81014 1.76108 11.751 3.67734 12.7057C5.55837 13.6426 8.88012 14.4106 9.14079 16.8411C8.9083 22.2376 9.16545 38.9309 9.14079 44.3274C9.13374 46.8179 8.76388 49.6288 9.35214 52.0664C9.39793 52.2602 9.54236 52.3447 9.69383 52.3447C9.70792 52.3482 9.71848 52.3553 9.73257 52.3553C10.3737 52.4011 11.0042 52.239 11.6418 52.2883C11.8426 52.3024 12.0539 52.0946 12.0363 51.8938C11.9835 51.2879 12.0081 50.6786 11.9342 50.0762C13.0473 49.9635 14.178 49.9459 15.2841 49.9036C16.2774 49.8648 17.0665 50.1185 17.2919 48.949C17.3694 48.5509 17.4223 47.857 17.0982 47.5329C16.7952 47.23 15.9181 47.4343 15.5518 47.4554C14.6923 47.5118 13.8328 47.5858 12.9733 47.6492C12.5295 47.6809 12.0892 47.7055 11.6453 47.7231C11.2719 47.7372 11.3248 47.2265 11.3882 46.8108C13.3326 46.7298 15.2735 46.8249 17.2109 46.5466C17.3518 46.5255 17.4399 46.3881 17.4857 46.2719C17.9154 45.1658 17.7851 44.1513 16.4676 44.0562C14.8297 43.9364 13.1494 43.9681 11.5044 44.102C11.4868 38.797 11.7334 22.1954 11.5079 16.8939C11.7334 14.5867 14.7804 13.6391 16.6403 12.843C18.5741 12.0152 19.9796 10.2751 20.0959 8.11579C20.2227 5.86489 19.4266 3.60695 17.5561 2.25782ZM11.7122 11.4164C9.61985 10.2082 7.85154 11.6101 5.73098 11.1381C3.96971 10.7471 2.81432 9.15846 2.51843 7.42185C2.28594 6.06568 3.20885 4.58974 4.37833 3.95568C4.99477 3.62104 5.70984 3.30754 6.42843 3.3322C7.74938 3.37799 9.02455 4.35725 10.2433 2.68757C10.268 2.65234 10.2962 2.62769 10.3279 2.60303C10.4406 2.33532 10.9478 2.28601 11.0958 2.65235C11.6277 3.93808 14.1498 3.54354 15.277 3.81126C16.3338 4.05783 17.4328 4.62144 17.7041 5.78035C18.4614 8.99642 15.0903 13.3679 11.7122 11.4164Z" fill="white"/>
</svg>
