<svg width="192" height="53" viewBox="0 0 192 53" fill="none" xmlns="http://www.w3.org/2000/svg">
<path d="M17.556 2.25782C15.4812 0.764267 12.5505 1.91262 10.6025 0.105556C10.5285 0.0351067 10.4475 0.0104485 10.3665 0.00692749C10.3524 0.00340271 10.3383 0.00340652 10.3242 -0.000114441C10.3102 -0.000114441 10.2961 0.00340271 10.282 0.00692749C10.2009 0.0139732 10.1199 0.0386276 10.046 0.105556C8.29526 1.73297 5.58995 1.13414 3.49052 2.03591C1.42279 2.92359 0.577389 5.55844 0.521029 7.6156C0.461146 9.81013 1.76096 11.751 3.67721 12.7057C5.55825 13.6426 8.88 14.4106 9.14067 16.8411C8.90818 22.2376 9.16532 38.9309 9.14067 44.3274C9.13362 46.8179 8.76376 49.6288 9.35202 52.0664C9.39781 52.2602 9.54224 52.3447 9.69371 52.3447C9.7078 52.3482 9.71836 52.3553 9.73245 52.3553C10.3735 52.4011 11.0041 52.239 11.6417 52.2883C11.8424 52.3024 12.0538 52.0946 12.0362 51.8938C11.9833 51.2879 12.008 50.6786 11.934 50.0762C13.0472 49.9635 14.1779 49.9459 15.284 49.9036C16.2773 49.8648 17.0664 50.1185 17.2918 48.949C17.3693 48.5509 17.4221 47.857 17.0981 47.5329C16.7951 47.23 15.918 47.4343 15.5517 47.4554C14.6922 47.5118 13.8327 47.5858 12.9732 47.6492C12.5293 47.6809 12.089 47.7055 11.6452 47.7231C11.2718 47.7372 11.3246 47.2265 11.388 46.8108C13.3325 46.7298 15.2734 46.8249 17.2108 46.5466C17.3517 46.5255 17.4398 46.3881 17.4855 46.2719C17.9153 45.1658 17.785 44.1513 16.4675 44.0562C14.8295 43.9364 13.1493 43.9681 11.5043 44.102C11.4867 38.797 11.7332 22.1954 11.5078 16.8939C11.7332 14.5867 14.7802 13.6391 16.6401 12.843C18.574 12.0152 19.9795 10.2751 20.0957 8.11579C20.2226 5.86489 19.4265 3.60695 17.556 2.25782ZM11.7121 11.4164C9.61973 10.2082 7.85142 11.6101 5.73086 11.1381C3.96959 10.7471 2.8142 9.15846 2.51831 7.42185C2.28582 6.06568 3.20873 4.58974 4.37821 3.95568C4.99465 3.62104 5.70971 3.30754 6.42831 3.3322C7.74926 3.37799 9.02442 4.35725 10.2432 2.68757C10.2679 2.65234 10.2961 2.62769 10.3278 2.60303C10.4405 2.33532 10.9477 2.28601 11.0957 2.65235C11.6276 3.93808 14.1497 3.54354 15.2769 3.81126C16.3337 4.05783 17.4327 4.62144 17.7039 5.78035C18.4613 8.99642 15.0902 13.3679 11.7121 11.4164Z" fill="white"/>
<path d="M40.0384 30.8925C38.8889 30.8925 37.8565 30.7967 36.9411 30.6051C36.0258 30.4135 35.004 30.1581 33.8757 29.8388C33.1307 29.6259 32.6304 29.5088 32.375 29.4875L32.6624 23.5803H35.2488L35.9512 27.6994C36.228 27.9974 36.7176 28.2635 37.4201 28.4977C38.1438 28.7318 38.9634 28.8489 39.8787 28.8489C41.305 28.8489 42.3693 28.5403 43.0718 27.9229C43.7956 27.2843 44.1575 26.4009 44.1575 25.2727C44.1575 24.5276 43.9446 23.889 43.5189 23.3568C43.0931 22.8033 42.5077 22.3137 41.7627 21.888C41.0176 21.441 39.9958 20.9301 38.6973 20.3553C36.9305 19.5464 35.4616 18.5885 34.2908 17.4815C33.1413 16.3533 32.5666 14.8313 32.5666 12.9154C32.5666 11.7233 32.8752 10.6483 33.4926 9.69041C34.1099 8.7112 35.0253 7.94486 36.2386 7.39139C37.4733 6.81663 38.974 6.52925 40.7409 6.52925C41.784 6.52925 42.6993 6.60376 43.4869 6.75277C44.2958 6.90178 45.1686 7.10401 46.1053 7.35946C46.6587 7.50847 47.0738 7.60426 47.3506 7.64684L47.159 13.2347H44.6045L43.934 9.30724C43.7424 9.11565 43.3592 8.93471 42.7845 8.76441C42.2097 8.57283 41.5711 8.47704 40.8686 8.47704C39.5914 8.47704 38.6228 8.77506 37.9629 9.3711C37.3243 9.94586 37.005 10.7228 37.005 11.7021C37.005 12.4897 37.2391 13.1709 37.7074 13.7456C38.1971 14.3204 38.7824 14.81 39.4636 15.2144C40.1448 15.5976 41.2198 16.1511 42.6887 16.8749C43.8807 17.4496 44.9025 18.0137 45.754 18.5672C46.6055 19.1207 47.3399 19.8444 47.9572 20.7385C48.5746 21.6113 48.8832 22.6437 48.8832 23.8358C48.8832 25.0066 48.5852 26.1242 47.9892 27.1885C47.4144 28.2529 46.4565 29.1363 45.1154 29.8388C43.7956 30.5413 42.1033 30.8925 40.0384 30.8925ZM61.13 30.8925C57.6602 30.8925 55.0631 29.8069 53.3388 27.6356C51.6146 25.4643 50.7524 22.5053 50.7524 18.7588C50.7524 16.3107 51.1995 14.1607 52.0935 12.3087C53.0089 10.4567 54.2861 9.0305 55.9252 8.03C57.5644 7.0295 59.4483 6.52925 61.577 6.52925C65.0894 6.52925 67.7184 7.57233 69.4639 9.65848C71.2308 11.7233 72.1142 14.6184 72.1142 18.3437C72.1142 20.813 71.6459 23.0056 70.7092 24.9214C69.7939 26.816 68.506 28.2848 66.8456 29.3279C65.1852 30.371 63.28 30.8925 61.13 30.8925ZM61.4493 8.47704C59.7037 8.47704 58.3413 9.33917 57.3621 11.0634C56.3829 12.7877 55.8933 15.3422 55.8933 18.7268C55.8933 22.0689 56.3616 24.6128 57.2983 26.3583C58.2562 28.0826 59.6186 28.9447 61.3854 28.9447C63.1097 28.9447 64.4614 28.04 65.4406 26.2306C66.4199 24.3999 66.9095 21.7709 66.9095 18.3437C66.9095 15.0229 66.4411 12.5535 65.5045 10.9357C64.5679 9.2966 63.2161 8.47704 61.4493 8.47704ZM85.3188 30.7967C82.0832 30.7967 79.6777 29.9878 78.1025 28.37C76.5272 26.7521 75.7396 24.2083 75.7396 20.7385V9.21145L73.6322 8.79634V6.81663H83.2753V8.79634L80.5611 9.24338V21.1536C80.5611 26.22 82.3599 28.7531 85.9575 28.7531C87.7243 28.7531 89.0335 28.1039 89.885 26.8053C90.7364 25.4855 91.1622 23.6442 91.1622 21.2813V9.24338L88.4161 8.79634V6.81663H96.3989V8.79634L94.2276 9.21145V21.0259C94.2276 24.3467 93.4186 26.8053 91.8008 28.4019C90.2043 29.9984 88.0436 30.7967 85.3188 30.7967ZM100.555 9.21145L98.0964 8.79634V6.81663H108.314V8.79634L105.249 9.21145V28.2742L112.082 27.9868L114.094 22.0157L116.68 22.367L115.69 30.5413H98.0326V28.6254L100.555 28.3061V9.21145ZM142.895 30.5413C142.576 30.5413 142.161 30.1368 141.65 29.3279C141.139 28.4977 140.426 27.1885 139.511 25.4004C138.723 23.8677 138.063 22.6331 137.531 21.6964C136.999 20.7598 136.488 19.9828 135.998 19.3655L133.157 22.6224V28.3061L135.903 28.6573V30.5413H125.972V28.6254L128.495 28.3061V9.21145L126.004 8.79634V6.81663H135.615V8.79634L133.157 9.21145V19.6209L141.554 9.21145L138.936 8.79634V6.81663H147.557V8.79634L144.907 9.21145L138.712 16.1724C139.458 16.8536 140.245 17.8221 141.075 19.0781C141.906 20.3127 142.917 21.9306 144.109 23.9316C144.982 25.4004 145.641 26.4754 146.089 27.1566C146.536 27.8165 146.876 28.1997 147.11 28.3061L148.611 28.6573V30.5413H142.895ZM152.286 9.21145L149.732 8.79634V6.81663H166.751L167.166 12.181H164.931L163.877 9.01986L156.98 8.73248V17.3219L161.418 17.2261L161.929 14.6078H163.973V22.335H161.929L161.418 19.589L156.98 19.4932V28.4977L164.707 28.1145L166.559 24.0274L168.954 24.6979L168.124 30.5413H149.764V28.6254L152.286 28.3061V9.21145ZM177.584 21.1217L170.751 9.21145L168.931 8.79634V6.81663H178.318V8.79634L176.051 9.21145L180.043 17.0345L180.937 19.2377L181.863 17.0345L185.535 9.21145L183.044 8.79634V6.81663H190.835V8.79634L188.856 9.17952L182.501 21.0897V28.3061L185.982 28.6254V30.5413H174.199V28.6254L177.584 28.3061V21.1217Z" fill="white"/>
<path d="M32.9936 40.1696C33.2076 40.1696 33.538 40.151 33.9847 40.1138C34.5244 40.0765 34.9525 40.0579 35.2689 40.0579C37.3814 40.0579 38.4376 40.8443 38.4376 42.417C38.4376 43.7757 37.6326 44.6551 36.0227 45.0553C36.488 45.0646 36.8975 45.167 37.2511 45.3624C37.614 45.5485 37.8932 45.7998 38.0886 46.1162C38.2841 46.4326 38.3818 46.7816 38.3818 47.1631C38.3911 48.3822 37.977 49.271 37.1394 49.8293C36.3019 50.3877 35.1014 50.6669 33.538 50.6669C33.2402 50.6669 32.8819 50.6436 32.4631 50.5971C31.9978 50.5599 31.6721 50.5413 31.486 50.5413H29.6294L29.6852 49.8991L30.6624 49.7037L31.7931 41.0211L30.8299 40.8536L30.8997 40.1696H32.9936ZM33.189 44.7482C33.3472 44.7575 33.4821 44.7622 33.5938 44.7622C33.7148 44.7529 33.8171 44.7482 33.9009 44.7482H34.2778C34.9478 44.7482 35.5015 44.5667 35.9389 44.2038C36.3763 43.8316 36.595 43.2732 36.595 42.5287C36.595 41.412 36.0041 40.8536 34.8222 40.8536C34.329 40.8536 33.9521 40.8815 33.6915 40.9374L33.189 44.7482ZM32.5329 49.7177C32.6911 49.7642 32.9005 49.8014 33.1611 49.8293C33.4309 49.8573 33.6496 49.8712 33.8171 49.8712C34.6268 49.8712 35.2503 49.6804 35.6877 49.2989C36.1251 48.908 36.3438 48.3031 36.3438 47.4842C36.3438 46.8421 36.1762 46.3675 35.8412 46.0604C35.5155 45.7533 34.9897 45.5997 34.2638 45.5997C33.7706 45.5997 33.3751 45.609 33.0773 45.6276L32.5329 49.7177ZM43.519 40.1696L43.4213 40.8536L42.2208 41.0211L43.505 44.5528L43.8261 45.5299L44.2867 44.6645L46.4783 41.0211L45.3755 40.8536L45.4453 40.1696H48.7816L48.6978 40.8536L47.8463 41.0072L44.3147 46.4652L43.8819 49.7037L45.5012 49.8991L45.4453 50.5413H40.2944L40.3642 49.8991L41.9556 49.7037L42.3604 46.4652L40.0152 41.0211L39.1498 40.8536L39.2196 40.1696H43.519ZM55.7826 50.6948C54.2658 50.6948 53.1304 50.2202 52.3766 49.271C51.6228 48.3218 51.2459 47.0282 51.2459 45.3903C51.2459 44.3201 51.4413 43.3802 51.8322 42.5706C52.2324 41.7609 52.7907 41.1374 53.5073 40.7001C54.2239 40.2627 55.0475 40.044 55.9781 40.044C57.5136 40.044 58.6629 40.5 59.426 41.412C60.1984 42.3147 60.5846 43.5803 60.5846 45.2089C60.5846 46.2884 60.3799 47.2469 59.9704 48.0844C59.5702 48.9127 59.0072 49.5548 58.2813 50.0108C57.5555 50.4668 56.7226 50.6948 55.7826 50.6948ZM55.9222 40.8955C55.1591 40.8955 54.5635 41.2724 54.1355 42.0262C53.7074 42.78 53.4933 43.8967 53.4933 45.3764C53.4933 46.8374 53.6981 47.9495 54.1075 48.7126C54.5263 49.4664 55.1219 49.8433 55.8943 49.8433C56.6481 49.8433 57.2391 49.4478 57.6671 48.6568C58.0952 47.8564 58.3093 46.7071 58.3093 45.2089C58.3093 43.7571 58.1045 42.6776 57.6951 41.9703C57.2856 41.2538 56.6946 40.8955 55.9222 40.8955ZM68.9397 50.5413C68.8001 50.5413 68.6186 50.3644 68.3953 50.0108C68.1719 49.6479 67.8602 49.0755 67.46 48.2938C67.1157 47.6238 66.8272 47.084 66.5946 46.6746C66.3619 46.2651 66.1386 45.9254 65.9245 45.6556L64.6822 47.0794V49.5641L65.8826 49.7177V50.5413H61.5413V49.7037L62.6441 49.5641V41.2165L61.5553 41.0351V40.1696H65.757V41.0351L64.6822 41.2165V45.7672L68.3534 41.2165L67.2088 41.0351V40.1696H70.9777V41.0351L69.8191 41.2165L67.1111 44.2596C67.4368 44.5574 67.7811 44.9809 68.144 45.5299C68.507 46.0697 68.949 46.7769 69.4702 47.6517C69.8517 48.2938 70.1402 48.7638 70.3356 49.0616C70.531 49.3501 70.6799 49.5176 70.7823 49.5641L71.4384 49.7177V50.5413H68.9397ZM75.5437 50.6948C75.0412 50.6948 74.5898 50.6529 74.1897 50.5692C73.7895 50.4854 73.3428 50.3737 72.8496 50.2342C72.5239 50.1411 72.3052 50.0899 72.1935 50.0806L72.3191 47.4982H73.4498L73.7569 49.2989C73.8779 49.4292 74.0919 49.5455 74.399 49.6479C74.7155 49.7502 75.0737 49.8014 75.4739 49.8014C76.0974 49.8014 76.5627 49.6665 76.8698 49.3966C77.1862 49.1174 77.3444 48.7312 77.3444 48.238C77.3444 47.9123 77.2514 47.6331 77.0652 47.4004C76.8791 47.1585 76.6232 46.9444 76.2975 46.7583C75.9718 46.5629 75.5251 46.3396 74.9574 46.0883C74.185 45.7347 73.5429 45.3159 73.031 44.832C72.5285 44.3387 72.2773 43.6734 72.2773 42.8358C72.2773 42.3147 72.4122 41.8447 72.6821 41.4259C72.9519 40.9978 73.3521 40.6628 73.8826 40.4209C74.4223 40.1696 75.0784 40.044 75.8508 40.044C76.3068 40.044 76.707 40.0765 77.0513 40.1417C77.4049 40.2068 77.7865 40.2952 78.1959 40.4069C78.4379 40.4721 78.6194 40.5139 78.7403 40.5325L78.6566 42.9754H77.5399L77.2467 41.2584C77.163 41.1747 76.9954 41.0956 76.7442 41.0211C76.4929 40.9374 76.2137 40.8955 75.9066 40.8955C75.3483 40.8955 74.9248 41.0258 74.6363 41.2863C74.3572 41.5376 74.2176 41.8773 74.2176 42.3054C74.2176 42.6497 74.3199 42.9475 74.5247 43.1987C74.7387 43.45 74.9946 43.664 75.2924 43.8409C75.5902 44.0084 76.0602 44.2503 76.7023 44.5667C77.2234 44.818 77.6701 45.0646 78.0424 45.3066C78.4146 45.5485 78.7357 45.8649 79.0056 46.2558C79.2754 46.6373 79.4104 47.0887 79.4104 47.6098C79.4104 48.1217 79.2801 48.6102 79.0195 49.0755C78.7683 49.5409 78.3495 49.9271 77.7632 50.2342C77.1862 50.5413 76.4464 50.6948 75.5437 50.6948ZM83.6196 40.1138H85.7554L88.9799 49.5641L89.7896 49.7037V50.5413H85.6716V49.7037L86.7186 49.5641L86.1741 47.7494H82.5587L82.0143 49.5781L83.145 49.7037V50.5413H79.5854L79.5715 49.7037L80.409 49.5641L83.6196 40.1138ZM84.5828 42.4729L84.3315 41.384L84.0663 42.4868L82.8239 46.7723H85.895L84.5828 42.4729ZM91.2713 41.2165L90.1685 41.0351V40.1696H93.3373L97.4971 46.4512L98.2788 48.0426V41.2165L97.0783 41.0351V40.1696H100.54V41.0351L99.4653 41.2165V50.5413H97.7763L93.435 43.9386L92.4578 42.096V49.5641L93.8677 49.7037V50.5413H90.1685V49.7037L91.2713 49.5641V41.2165ZM104.627 40.1138H106.762L109.987 49.5641L110.796 49.7037V50.5413H106.679V49.7037L107.725 49.5641L107.181 47.7494H103.566L103.021 49.5781L104.152 49.7037V50.5413H100.592L100.578 49.7037L101.416 49.5641L104.627 40.1138ZM105.59 42.4729L105.338 41.384L105.073 42.4868L103.831 46.7723H106.902L105.59 42.4729ZM115.591 41.2165L114.544 41.0351V40.1696H116.652C116.847 40.1696 117.15 40.1603 117.559 40.1417C118.099 40.1045 118.587 40.0858 119.025 40.0858C119.993 40.0858 120.756 40.2068 121.314 40.4488C121.882 40.6814 122.282 41.0211 122.515 41.4678C122.756 41.9052 122.877 42.4636 122.877 43.1429C122.877 44.3155 122.51 45.2275 121.775 45.8789C121.049 46.5303 120.039 46.856 118.746 46.856C118.234 46.856 117.866 46.8421 117.643 46.8142V49.5641L119.513 49.7037V50.5413H114.488V49.7037L115.591 49.5641V41.2165ZM117.629 45.9208C117.843 45.9673 118.206 45.9906 118.718 45.9906C119.341 45.9906 119.839 45.7765 120.211 45.3485C120.593 44.9111 120.784 44.1898 120.784 43.1848C120.784 42.4031 120.611 41.8354 120.267 41.4818C119.932 41.1188 119.416 40.9374 118.718 40.9374C118.457 40.9374 118.187 40.956 117.908 40.9932C117.778 41.0118 117.685 41.0211 117.629 41.0211V45.9208ZM128.114 50.6948C126.597 50.6948 125.462 50.2202 124.708 49.271C123.954 48.3218 123.577 47.0282 123.577 45.3903C123.577 44.3201 123.773 43.3802 124.164 42.5706C124.564 41.7609 125.122 41.1374 125.839 40.7001C126.555 40.2627 127.379 40.044 128.309 40.044C129.845 40.044 130.994 40.5 131.757 41.412C132.53 42.3147 132.916 43.5803 132.916 45.2089C132.916 46.2884 132.711 47.2469 132.302 48.0844C131.902 48.9127 131.339 49.5548 130.613 50.0108C129.887 50.4668 129.054 50.6948 128.114 50.6948ZM128.254 40.8955C127.491 40.8955 126.895 41.2724 126.467 42.0262C126.039 42.78 125.825 43.8967 125.825 45.3764C125.825 46.8374 126.029 47.9495 126.439 48.7126C126.858 49.4664 127.453 49.8433 128.226 49.8433C128.979 49.8433 129.57 49.4478 129.998 48.6568C130.427 47.8564 130.641 46.7071 130.641 45.2089C130.641 43.7571 130.436 42.6776 130.026 41.9703C129.617 41.2538 129.026 40.8955 128.254 40.8955ZM137.251 41.0909L135.255 41.1607L134.71 44.2038H133.538L133.775 40.1696H142.779L142.946 44.2038H141.843L141.299 41.1607L139.331 41.0909V49.5641L141.285 49.7037V50.5413H135.464V49.7037L137.251 49.5641V41.0909ZM147.063 40.1138H149.199L152.423 49.5641L153.233 49.7037V50.5413H149.115V49.7037L150.162 49.5641L149.617 47.7494H146.002L145.458 49.5781L146.588 49.7037V50.5413H143.029L143.015 49.7037L143.852 49.5641L147.063 40.1138ZM148.026 42.4729L147.775 41.384L147.51 42.4868L146.267 46.7723H149.338L148.026 42.4729ZM154.715 41.2165L153.612 41.0351V40.1696H156.781L160.94 46.4512L161.722 48.0426V41.2165L160.522 41.0351V40.1696H163.983V41.0351L162.909 41.2165V50.5413H161.22L156.878 43.9386L155.901 42.096V49.5641L157.311 49.7037V50.5413H153.612V49.7037L154.715 49.5641V41.2165ZM166.088 41.2165L164.901 41.0351V40.1696H169.368V41.0351L168.14 41.2165V49.5641L169.368 49.7177V50.5413H164.901V49.7037L166.088 49.5641V41.2165ZM171.659 41.2165L170.556 41.0351V40.1696H173.725L177.885 46.4512L178.667 48.0426V41.2165L177.466 41.0351V40.1696H180.928V41.0351L179.853 41.2165V50.5413H178.164L173.823 43.9386L172.846 42.096V49.5641L174.256 49.7037V50.5413H170.556V49.7037L171.659 49.5641V41.2165ZM185.014 40.1138H187.15L190.375 49.5641L191.184 49.7037V50.5413H187.066V49.7037L188.113 49.5641L187.569 47.7494H183.953L183.409 49.5781L184.54 49.7037V50.5413H180.98L180.966 49.7037L181.804 49.5641L185.014 40.1138ZM185.978 42.4729L185.726 41.384L185.461 42.4868L184.219 46.7723H187.29L185.978 42.4729Z" fill="white"/>
</svg>
