<svg width="536" height="544" viewBox="0 0 536 544" fill="none" xmlns="http://www.w3.org/2000/svg">
<g filter="url(#filter0_d_51_950)">
<path d="M268 40.5491L40.1655 272L268 503.451L495.835 272L268 40.5491Z" stroke="white" stroke-width="2" stroke-linecap="round" stroke-linejoin="round"/>
<path d="M106.897 108.339H429.104V435.661H106.897V108.339Z" stroke="white" stroke-width="2" stroke-linecap="round" stroke-linejoin="round"/>
<path d="M268 503.451V40.5491" stroke="white" stroke-width="2" stroke-linecap="round" stroke-linejoin="round"/>
<path d="M429.104 435.661L106.897 108.339" stroke="white" stroke-width="2" stroke-linecap="round" stroke-linejoin="round"/>
<path d="M495.835 272H40.1655" stroke="white" stroke-width="2" stroke-linecap="round" stroke-linejoin="round"/>
<path d="M429.104 108.339L106.897 435.661" stroke="white" stroke-width="2" stroke-linecap="round" stroke-linejoin="round"/>
<path d="M276.862 18.833C271.188 16.4453 264.812 16.4453 259.138 18.833L98.0475 86.6182C92.3733 89.0056 87.865 93.5853 85.515 99.3496L18.7893 262.997C16.4385 268.762 16.4385 275.238 18.7893 281.003L85.515 444.65C87.865 450.415 92.3733 454.994 98.0475 457.382L259.138 525.166C264.812 527.555 271.188 527.555 276.862 525.166L437.953 457.382C443.627 454.994 448.135 450.415 450.485 444.65L517.211 281.003C519.562 275.238 519.562 268.762 517.211 262.997L450.485 99.3496C448.135 93.5853 443.627 89.0056 437.953 86.6182L276.862 18.833Z" stroke="white" stroke-width="2" stroke-linejoin="round"/>
<path d="M234.095 272C234.095 291.047 249.289 306.46 268 306.46C286.711 306.46 301.906 291.047 301.906 272C301.906 252.954 286.711 237.54 268 237.54C249.289 237.54 234.095 252.954 234.095 272Z" stroke="white" stroke-width="2"/>
<path d="M17.0003 272C17.0003 285.021 27.3866 295.549 40.1658 295.549C52.945 295.549 63.3313 285.021 63.3313 272C63.3313 258.979 52.945 248.451 40.1658 248.451C27.3866 248.451 17.0003 258.979 17.0003 272Z" stroke="white" stroke-width="2"/>
<path d="M472.669 272C472.669 285.021 483.056 295.549 495.835 295.549C508.614 295.549 519 285.021 519 272C519 258.979 508.614 248.451 495.835 248.451C483.056 248.451 472.669 258.979 472.669 272Z" stroke="white" stroke-width="2"/>
<path d="M93.8003 272C93.8003 279.371 99.6786 285.32 106.897 285.32C114.115 285.32 119.993 279.371 119.993 272C119.993 264.628 114.115 258.68 106.897 258.68C99.6786 258.68 93.8003 264.628 93.8003 272Z" stroke="white" stroke-width="2"/>
<path d="M416.007 272C416.007 279.371 421.885 285.32 429.103 285.32C436.322 285.32 442.2 279.371 442.2 272C442.2 264.628 436.322 258.68 429.103 258.68C421.885 258.68 416.007 264.628 416.007 272Z" stroke="white" stroke-width="2"/>
<path d="M443.331 272C443.331 279.936 449.66 286.343 457.435 286.343C465.209 286.343 471.538 279.936 471.538 272C471.538 264.064 465.209 257.657 457.435 257.657C449.66 257.657 443.331 264.064 443.331 272Z" stroke="white" stroke-width="2"/>
<path d="M64.4621 272C64.4621 279.936 70.7912 286.343 78.5655 286.343C86.3398 286.343 92.6689 279.936 92.6689 272C92.6689 264.064 86.3398 257.657 78.5655 257.657C70.7912 257.657 64.4621 264.064 64.4621 272Z" stroke="white" stroke-width="2"/>
<path d="M244.835 40.5491C244.835 53.5698 255.221 64.0982 268 64.0982C280.779 64.0982 291.166 53.5698 291.166 40.5491C291.166 27.5284 280.779 17 268 17C255.221 17 244.835 27.5284 244.835 40.5491Z" stroke="white" stroke-width="2"/>
<path d="M254.904 108.339C254.904 115.711 260.782 121.66 268 121.66C275.218 121.66 281.097 115.711 281.097 108.339C281.097 100.968 275.218 95.019 268 95.019C260.782 95.019 254.904 100.968 254.904 108.339Z" stroke="white" stroke-width="2"/>
<path d="M253.897 79.5588C253.897 87.4952 260.226 93.9019 268 93.9019C275.775 93.9019 282.104 87.4952 282.104 79.5588C282.104 71.6223 275.775 65.2156 268 65.2156C260.226 65.2156 253.897 71.6223 253.897 79.5588Z" stroke="white" stroke-width="2"/>
<path d="M244.835 503.451C244.835 516.472 255.221 527 268 527C280.779 527 291.166 516.472 291.166 503.451C291.166 490.43 280.779 479.902 268 479.902C255.221 479.902 244.835 490.43 244.835 503.451Z" stroke="white" stroke-width="2"/>
<path d="M254.904 435.661C254.904 443.032 260.782 448.981 268 448.981C275.218 448.981 281.097 443.032 281.097 435.661C281.097 428.289 275.218 422.34 268 422.34C260.782 422.34 254.904 428.289 254.904 435.661Z" stroke="white" stroke-width="2"/>
<path d="M253.897 464.442C253.897 472.378 260.226 478.785 268 478.785C275.775 478.785 282.104 472.378 282.104 464.442C282.104 456.505 275.775 450.099 268 450.099C260.226 450.099 253.897 456.505 253.897 464.442Z" stroke="white" stroke-width="2"/>
<path d="M405.938 435.661C405.938 448.681 416.324 459.21 429.104 459.21C441.883 459.21 452.269 448.681 452.269 435.661C452.269 422.64 441.883 412.112 429.104 412.112C416.324 412.112 405.938 422.64 405.938 435.661Z" stroke="white" stroke-width="2"/>
<path d="M368.821 387.725C368.821 395.097 374.699 401.046 381.918 401.046C389.136 401.046 395.014 395.097 395.014 387.725C395.014 380.354 389.136 374.405 381.918 374.405C374.699 374.405 368.821 380.354 368.821 387.725Z" stroke="white" stroke-width="2"/>
<path d="M387.847 408.077C387.847 416.013 394.176 422.42 401.951 422.42C409.725 422.42 416.054 416.013 416.054 408.077C416.054 400.14 409.725 393.733 401.951 393.733C394.176 393.733 387.847 400.14 387.847 408.077Z" stroke="white" stroke-width="2"/>
<path d="M83.7312 108.339C83.7312 121.36 94.1176 131.888 106.897 131.888C119.676 131.888 130.062 121.36 130.062 108.339C130.062 95.3187 119.676 84.7903 106.897 84.7903C94.1176 84.7903 83.7312 95.3187 83.7312 108.339Z" stroke="white" stroke-width="2"/>
<path d="M140.986 156.275C140.986 163.646 146.865 169.595 154.083 169.595C161.301 169.595 167.179 163.646 167.179 156.275C167.179 148.903 161.301 142.954 154.083 142.954C146.865 142.954 140.986 148.903 140.986 156.275Z" stroke="white" stroke-width="2"/>
<path d="M119.946 135.924C119.946 143.86 126.275 150.267 134.05 150.267C141.824 150.267 148.153 143.86 148.153 135.924C148.153 127.987 141.824 121.58 134.05 121.58C126.275 121.58 119.946 127.987 119.946 135.924Z" stroke="white" stroke-width="2"/>
<path d="M83.7312 435.661C83.7312 448.681 94.1176 459.21 106.897 459.21C119.676 459.21 130.062 448.681 130.062 435.661C130.062 422.64 119.676 412.112 106.897 412.112C94.1176 412.112 83.7312 422.64 83.7312 435.661Z" stroke="white" stroke-width="2"/>
<path d="M139.98 387.726C139.98 395.662 146.309 402.069 154.083 402.069C161.857 402.069 168.187 395.662 168.187 387.726C168.187 379.789 161.857 373.383 154.083 373.383C146.309 373.383 139.98 379.789 139.98 387.726Z" stroke="white" stroke-width="2"/>
<path d="M119.946 408.077C119.946 416.013 126.275 422.42 134.05 422.42C141.824 422.42 148.153 416.013 148.153 408.077C148.153 400.14 141.824 393.733 134.05 393.733C126.275 393.733 119.946 400.14 119.946 408.077Z" stroke="white" stroke-width="2"/>
<path d="M405.938 108.339C405.938 121.36 416.324 131.888 429.104 131.888C441.883 131.888 452.269 121.36 452.269 108.339C452.269 95.3187 441.883 84.7903 429.104 84.7903C416.324 84.7903 405.938 95.3187 405.938 108.339Z" stroke="white" stroke-width="2"/>
<path d="M368.821 156.275C368.821 163.646 374.699 169.595 381.918 169.595C389.136 169.595 395.014 163.646 395.014 156.275C395.014 148.903 389.136 142.954 381.918 142.954C374.699 142.954 368.821 148.903 368.821 156.275Z" stroke="white" stroke-width="2"/>
<path d="M387.847 135.924C387.847 143.86 394.176 150.267 401.951 150.267C409.725 150.267 416.054 143.86 416.054 135.924C416.054 127.987 409.725 121.58 401.951 121.58C394.176 121.58 387.847 127.987 387.847 135.924Z" stroke="white" stroke-width="2"/>
</g>
<defs>
<filter id="filter0_d_51_950" x="0" y="0" width="536" height="544" filterUnits="userSpaceOnUse" color-interpolation-filters="sRGB">
<feFlood flood-opacity="0" result="BackgroundImageFix"/>
<feColorMatrix in="SourceAlpha" type="matrix" values="0 0 0 0 0 0 0 0 0 0 0 0 0 0 0 0 0 0 127 0" result="hardAlpha"/>
<feOffset/>
<feGaussianBlur stdDeviation="8"/>
<feComposite in2="hardAlpha" operator="out"/>
<feColorMatrix type="matrix" values="0 0 0 0 1 0 0 0 0 1 0 0 0 0 1 0 0 0 0.5 0"/>
<feBlend mode="normal" in2="BackgroundImageFix" result="effect1_dropShadow_51_950"/>
<feBlend mode="normal" in="SourceGraphic" in2="effect1_dropShadow_51_950" result="shape"/>
</filter>
</defs>
</svg>
