<svg width="40" height="64" viewBox="0 0 40 64" fill="none" xmlns="http://www.w3.org/2000/svg">
<path fill-rule="evenodd" clip-rule="evenodd" d="M10.1167 30.6706L2.04585 32L9.75917 33.2705C1.76854 48.5165 -1.72665 61.5946 1.93391 63.708C5.00525 65.4812 12.2426 59.0324 19.9318 48.3204L20.2405 50.1947L20.736 47.1868C20.9244 46.9182 21.1129 46.647 21.3017 46.3735C24.5183 48.8162 27.613 49.7179 29.7557 48.4808C33.0062 46.6041 33.0896 40.3692 30.3644 33.3294L38.4352 32L30.7219 30.7295C38.7125 15.4836 42.2077 2.40542 38.5472 0.291992C35.4758 -1.48125 28.2385 4.96757 20.5493 15.6796L20.2405 13.8053L19.7451 16.8132C19.5567 17.0818 19.3681 17.353 19.1794 17.6265C15.9628 15.1838 12.8681 14.2821 10.7254 15.5192C7.47492 17.3959 7.39145 23.6308 10.1167 30.6706ZM12.0613 56.9982C14.4768 54.4236 17.1025 51.1668 19.7794 47.3951L19.3357 44.7015C17.0408 42.5405 14.7694 39.6636 12.8188 36.285C12.2892 35.3677 11.8035 34.4485 11.3623 33.5346L10.447 33.3838C6.89437 40.1379 4.22991 46.4611 2.68111 51.5825C1.70395 54.8137 1.18201 57.5307 1.14516 59.5603C1.12674 60.5754 1.23059 61.3838 1.43627 61.9866C1.64011 62.584 1.92925 62.9413 2.26473 63.135C2.6002 63.3287 3.05419 63.4005 3.67352 63.2783C4.29843 63.155 5.05042 62.8407 5.92027 62.3173C7.65957 61.2705 9.75158 59.46 12.0613 56.9982ZM12.1637 33.6666C12.5416 34.4268 12.951 35.1908 13.3917 35.9542C15.1346 38.9729 17.1304 41.5727 19.1548 43.6029L17.6674 34.5731L12.1637 33.6666ZM21.1553 45.4173C21.1178 45.3868 21.0802 45.3561 21.0426 45.3252L22.8137 34.5731L28.3916 33.6543C27.968 34.4174 27.5338 35.1843 27.0893 35.9542C25.141 39.3288 23.1416 42.5057 21.1553 45.4173ZM21.6765 45.8274C21.8205 45.9371 21.9642 46.0435 22.1074 46.1467C25.1353 48.327 27.7411 48.8799 29.4249 47.9078C31.1087 46.9357 31.9327 44.4025 31.5585 40.6901C31.3395 38.518 30.7148 36.0385 29.6972 33.4393L29.2235 33.5173C28.7181 34.4347 28.1976 35.3579 27.6623 36.285C25.6986 39.6862 23.6818 42.89 21.6765 45.8274ZM29.1188 30.4654L30.0341 30.6162C33.5867 23.8621 36.2512 17.5389 37.8 12.4175C38.7771 9.18628 39.2991 6.4693 39.3359 4.43966C39.3543 3.4246 39.2505 2.61624 39.0448 2.0134C38.841 1.41595 38.5518 1.05866 38.2164 0.864976C37.8809 0.671289 37.4269 0.599534 36.8076 0.721727C36.1826 0.845024 35.4307 1.15926 34.5608 1.68275C32.8215 2.72948 30.7295 4.53998 28.4198 7.00182C26.0043 9.57641 23.3786 12.8332 20.7017 16.6049L21.1454 19.2985C23.4403 21.4595 25.7117 24.3364 27.6623 27.715C28.1919 28.6323 28.6776 29.5515 29.1188 30.4654ZM21.3263 20.3971C23.3507 22.4273 25.3465 25.0271 27.0893 28.0458C27.5301 28.8092 27.9395 29.5732 28.3174 30.3334L22.8137 29.4269L21.3263 20.3971ZM19.3258 18.5827C19.3633 18.6132 19.4009 18.6439 19.4385 18.6748L17.6674 29.4269L12.0894 30.3457C12.5131 29.5826 12.9473 28.8157 13.3917 28.0458C15.3401 24.6712 17.3395 21.4943 19.3258 18.5827ZM18.8046 18.1726C16.7993 21.11 14.7825 24.3138 12.8188 27.715C12.2835 28.6421 11.7629 29.5653 11.2576 30.4827L10.7839 30.5607C9.76629 27.9615 9.14157 25.482 8.92259 23.3099C8.54834 19.5975 9.3724 17.0643 11.0562 16.0922C12.7399 15.1201 15.3457 15.673 18.3737 17.8533C18.5169 17.9565 18.6606 18.0629 18.8046 18.1726Z" fill="#3D274C"/>
</svg>
