<svg width="55" height="54" viewBox="0 0 55 54" fill="none" xmlns="http://www.w3.org/2000/svg">
<path fill-rule="evenodd" clip-rule="evenodd" d="M27.717 0.24369L27.6768 0L27.6367 0.24369C25.3779 0.354173 23.5064 9.78176 23.1331 22.1546C10.7603 22.5279 1.33269 24.3993 1.22221 26.6582L0.978516 26.6983L1.22221 26.7385C1.33269 28.9974 10.7603 30.8688 23.1331 31.2421C23.5064 43.6149 25.3779 53.0425 27.6367 53.153L27.6768 53.3967L27.717 53.153C29.9758 53.0425 31.8473 43.6149 32.2206 31.2421C44.5935 30.8688 54.021 28.9974 54.1315 26.7385L54.3752 26.6983L54.1315 26.6582C54.021 24.3993 44.5935 22.5279 32.2206 22.1546C31.8473 9.78176 29.9758 0.354173 27.717 0.24369ZM27.434 1.47411C27.2397 1.72242 27.0157 2.11831 26.7794 2.69164C26.2672 3.93447 25.7849 5.79153 25.3724 8.15812C24.7486 11.7365 24.3023 16.3726 24.1231 21.5748L27.434 1.47411ZM31.2305 21.5748L27.9197 1.47411C28.114 1.72242 28.338 2.11831 28.5743 2.69164C29.0864 3.93447 29.5687 5.79153 29.9812 8.15812C30.605 11.7365 31.0513 16.3726 31.2305 21.5748ZM22.5531 23.1447C17.351 23.3238 12.715 23.7702 9.13663 24.3939C6.77004 24.8065 4.91299 25.2887 3.67016 25.8009C3.09683 26.0372 2.70094 26.2612 2.45263 26.4555L22.5531 23.1447ZM2.45263 26.9411L22.5531 30.252C17.351 30.0729 12.715 29.6265 9.13663 29.0028C6.77004 28.5902 4.91299 28.108 3.67016 27.5957C3.09683 27.3595 2.70094 27.1354 2.45263 26.9411ZM24.1231 31.8219L27.434 51.9226C27.2397 51.6743 27.0157 51.2784 26.7794 50.7051C26.2672 49.4622 25.7849 47.6052 25.3724 45.2386C24.7486 41.6602 24.3023 37.0241 24.1231 31.8219ZM27.9197 51.9226L31.2305 31.8219C31.0513 37.0241 30.605 41.6602 29.9812 45.2386C29.5687 47.6052 29.0864 49.4622 28.5743 50.7051C28.338 51.2784 28.114 51.6743 27.9197 51.9226ZM32.8006 30.252L52.9011 26.9411C52.6529 27.1354 52.2569 27.3595 51.6835 27.5957C50.4407 28.108 48.5837 28.5902 46.2171 29.0028C42.6387 29.6265 38.0027 30.0729 32.8006 30.252ZM52.9011 26.4555L32.8006 23.1447C38.0027 23.3238 42.6387 23.7702 46.2171 24.3939C48.5837 24.8065 50.4407 25.2887 51.6835 25.8009C52.2569 26.0372 52.6529 26.2612 52.9011 26.4555Z" fill="#3D274C"/>
</svg>
