<svg width="24" height="25" viewBox="0 0 24 25" fill="none" xmlns="http://www.w3.org/2000/svg">
<g clip-path="url(#clip0_535_1458)">
<path d="M12 0.36377C5.376 0.36377 0 5.73977 0 12.3638C0 18.9878 5.376 24.3638 12 24.3638C18.624 24.3638 24 18.9878 24 12.3638C24 5.73977 18.624 0.36377 12 0.36377ZM17.568 8.52377C17.388 10.4198 16.608 15.0278 16.212 17.1518C16.044 18.0518 15.708 18.3518 15.396 18.3878C14.7 18.4478 14.172 17.9318 13.5 17.4878C12.444 16.7918 11.844 16.3598 10.824 15.6878C9.636 14.9078 10.404 14.4758 11.088 13.7798C11.268 13.5998 14.34 10.8038 14.4 10.5518C14.4083 10.5136 14.4072 10.474 14.3968 10.4363C14.3863 10.3987 14.3668 10.3642 14.34 10.3358C14.268 10.2758 14.172 10.2998 14.088 10.3118C13.98 10.3358 12.3 11.4518 9.024 13.6598C8.544 13.9838 8.112 14.1518 7.728 14.1398C7.296 14.1278 6.48 13.8998 5.868 13.6958C5.112 13.4558 4.524 13.3238 4.572 12.9038C4.596 12.6878 4.896 12.4718 5.46 12.2438C8.964 10.7198 11.292 9.71177 12.456 9.23177C15.792 7.83977 16.476 7.59977 16.932 7.59977C17.028 7.59977 17.256 7.62377 17.4 7.74377C17.52 7.83977 17.556 7.97177 17.568 8.06777C17.556 8.13977 17.58 8.35577 17.568 8.52377Z" fill="white"/>
</g>
<defs>
<clipPath id="clip0_535_1458">
<rect width="24" height="24" fill="white" transform="translate(0 0.36377)"/>
</clipPath>
</defs>
</svg>
