<svg width="24" height="25" viewBox="0 0 24 25" fill="none" xmlns="http://www.w3.org/2000/svg">
<path fill-rule="evenodd" clip-rule="evenodd" d="M12 24.3638C18.6274 24.3638 24 18.9912 24 12.3638C24 5.73635 18.6274 0.36377 12 0.36377C5.37258 0.36377 0 5.73635 0 12.3638C0 18.9912 5.37258 24.3638 12 24.3638ZM14.3359 12.9612C14.4962 13.0266 15.3538 13.4894 15.5282 13.5855C15.5627 13.6045 15.5949 13.6217 15.6248 13.6376C15.7458 13.7021 15.8276 13.7456 15.8615 13.8073C15.9026 13.883 15.8897 14.2394 15.7256 14.6483C15.5615 15.0573 14.8205 15.4304 14.4936 15.4483C14.438 15.4514 14.3916 15.4609 14.344 15.4706C14.1129 15.5176 13.8537 15.5704 12.3769 14.924C10.7327 14.2043 9.69396 12.5325 9.47774 12.1846C9.45979 12.1557 9.44751 12.1359 9.44102 12.1266C9.43967 12.1246 9.43818 12.1224 9.43656 12.12C9.33817 11.9765 8.75182 11.1213 8.78461 10.2612C8.81455 9.4432 9.23269 9.02909 9.42559 8.83806C9.43919 8.82459 9.45167 8.81222 9.46282 8.80091C9.63205 8.62911 9.82564 8.59193 9.94487 8.59578C10.0067 8.5978 10.0685 8.60404 10.1283 8.61008C10.1826 8.61556 10.2352 8.62087 10.2846 8.6227C10.297 8.62317 10.3101 8.6228 10.3238 8.62242C10.4241 8.61961 10.5546 8.61597 10.6731 8.93424C10.7152 9.04735 10.7758 9.21192 10.8404 9.38745C10.9822 9.77298 11.1436 10.2114 11.1718 10.274C11.2141 10.365 11.2397 10.4689 11.1756 10.5855C11.1655 10.604 11.1561 10.6214 11.1472 10.6379C11.0999 10.726 11.0649 10.7911 10.9872 10.8753C10.9565 10.9085 10.9248 10.9443 10.8929 10.9803C10.8289 11.0526 10.7646 11.1252 10.709 11.1766C10.6167 11.2624 10.5205 11.3548 10.6179 11.5368C10.7141 11.7189 11.0487 12.3137 11.5603 12.8048C12.108 13.3311 12.5924 13.5638 12.8391 13.6822C12.888 13.7057 12.9275 13.7247 12.9564 13.7407C13.1308 13.8368 13.2346 13.8265 13.3436 13.7112C13.4513 13.5958 13.8077 13.2086 13.932 13.0355C14.0577 12.8612 14.1756 12.8958 14.3359 12.9612ZM9.19267 16.921C10.0831 17.4786 11.136 17.8022 12.2615 17.8022C15.4603 17.8022 18.0603 15.2009 18.0603 12.0022C18.0603 8.80476 15.459 6.20347 12.2615 6.20347C9.06538 6.20347 6.4641 8.80476 6.4641 12.0022C6.4641 13.2161 6.83935 14.3432 7.47883 15.2758C7.5337 15.3559 7.54958 15.4568 7.51865 15.5488L7.03261 16.994C6.95422 17.2271 7.17415 17.4503 7.40836 17.3754L8.93487 16.887C9.02144 16.8593 9.11564 16.8728 9.19267 16.921ZM5.29615 12.0035C5.29615 8.15604 8.41538 5.03809 12.2615 5.03809C16.109 5.03809 19.2282 8.15604 19.2282 12.0035C19.2282 15.8496 16.1103 18.9689 12.2628 18.9689C11.0885 18.9689 9.98062 18.6769 9.01002 18.1638C8.93698 18.1251 8.85155 18.1165 8.77286 18.1417L5.60456 19.156C5.37034 19.231 5.15036 19.0078 5.22872 18.7747L6.25184 15.7314C6.27994 15.6478 6.26953 15.5563 6.22542 15.4799C5.63446 14.4567 5.29615 13.2704 5.29615 12.0035Z" fill="white"/>
</svg>
